<svg id="svg8" xmlns="http://www.w3.org/2000/svg" viewBox="0 0 501.42 219.69"><defs><style>.cls-1,.cls-4{fill:#00b8d4;}.cls-2,.cls-5{fill:#37474f;}.cls-3{fill:#1a1a1a;}.cls-4,.cls-5{stroke:#00b8d4;}.cls-4{stroke-linecap:round;stroke-width:2px;}.cls-5{stroke-opacity:0.68;stroke-width:0.25px;}</style></defs><title>Work Sheet #1</title><path id="path838" class="cls-1" d="M254.94,6.77V27.55a42.79,42.79,0,0,1,18.71,4.38,39.34,39.34,0,0,1,14.72,12.39,2,2,0,0,1-.39,2.84L282,51.68a2.21,2.21,0,0,1-3-.39A31.22,31.22,0,0,0,268,42.13h0a31.19,31.19,0,0,0-13-3.1V64.2h30.85a2,2,0,0,1,2.06,2.06v8.27a2,2,0,0,1-2.06,2.06H244.36a2,2,0,0,1-2.07-2.06V41.1A30.82,30.82,0,0,0,238,43h0A29.36,29.36,0,0,0,226.8,53.87h0a30.62,30.62,0,0,0-4,15.36c0,8.78,2.84,15.75,8.78,21.56s13.29,8.64,22.46,8.64c10.06,0,18.19-3.87,25-11.74a1.93,1.93,0,0,1,2.84-.26L287.85,92a2.09,2.09,0,0,1,.39,3h0a40.56,40.56,0,0,1-15,11.74h0a47,47,0,0,1-19.75,4.13c-13.68,0-24.91-4.64-32.91-13.94h0a42.57,42.57,0,0,1-10.2-28.39A39.56,39.56,0,0,1,222.67,39,41.73,41.73,0,0,1,241.9,28.45V6.89a62.17,62.17,0,0,0,9.3,123.65h0a62.25,62.25,0,0,0,62.21-62.21c.13-32.52-25.56-59.63-58.47-61.56Z"/><path id="path825" class="cls-2" d="M6.51,149.53h3.4v30.76H23v3.26H6.37Z"/><path id="path827" class="cls-2" d="M49.17,175.33l2.69,1.42A16.68,16.68,0,0,1,48.75,181a11.73,11.73,0,0,1-4,2.41,13.64,13.64,0,0,1-5,.85c-4.11,0-7.37-1.28-9.64-4a14.12,14.12,0,0,1-3.54-9.21,13,13,0,0,1,3-8.51,12.31,12.31,0,0,1,9.92-4.82,12.7,12.7,0,0,1,10.35,4.82,14.38,14.38,0,0,1,2.83,8.65H30a9.86,9.86,0,0,0,2.83,7.23,9.22,9.22,0,0,0,6.66,2.83,10.57,10.57,0,0,0,3.69-.71,7.59,7.59,0,0,0,3.12-1.84,18.67,18.67,0,0,0,2.83-3.4Zm0-6.8a12.1,12.1,0,0,0-1.84-4.11,10,10,0,0,0-3.26-2.56,11.78,11.78,0,0,0-4.25-1,9.65,9.65,0,0,0-6.38,2.41,10.92,10.92,0,0,0-3,5.25Z"/><path id="path829" class="cls-2" d="M83.89,158.46v25.23H80.63V179.3A13.61,13.61,0,0,1,76.1,183a12.22,12.22,0,0,1-5.53,1.28,12.64,12.64,0,0,1-9.21-3.83,13.05,13.05,0,0,1-3.83-9.5,13.08,13.08,0,0,1,13-13.18A12.35,12.35,0,0,1,76.24,159a12.87,12.87,0,0,1,4.39,4v-4.54ZM71,160.87a9.54,9.54,0,0,0-5,1.28,10.17,10.17,0,0,0-3.69,3.68,10.49,10.49,0,0,0-1.28,5.1A9.28,9.28,0,0,0,62.49,176a10.54,10.54,0,0,0,3.69,3.82,10.35,10.35,0,0,0,5,1.28,10.89,10.89,0,0,0,5.1-1.28,9.18,9.18,0,0,0,3.68-3.68,10.93,10.93,0,0,0-1.55-12.47A11.15,11.15,0,0,0,71,160.87Z"/><path id="path831" class="cls-2" d="M115.78,163.71l-2.55,1.56a10.71,10.71,0,0,0-9.07-4.4,10.32,10.32,0,0,0-7.65,3,9.81,9.81,0,0,0-3,7.23A10,10,0,0,0,95,176.32a12.36,12.36,0,0,0,3.82,3.83,11.77,11.77,0,0,0,5.53,1.27,10.9,10.9,0,0,0,9.07-4.39l2.55,1.7A12.57,12.57,0,0,1,111.1,183a15.61,15.61,0,0,1-6.94,1.42,13.8,13.8,0,0,1-9.92-3.83,12.25,12.25,0,0,1-4-9.21,13,13,0,0,1,1.84-6.8,14.26,14.26,0,0,1,5.1-5,13.63,13.63,0,0,1,7.23-1.7,18.23,18.23,0,0,1,4.82.7,14.89,14.89,0,0,1,4,2A15,15,0,0,1,115.78,163.71Z"/><path id="path833" class="cls-2" d="M121.87,148.68h3.26V163a12.53,12.53,0,0,1,4.4-3.83,10.48,10.48,0,0,1,5.1-1.27,8.5,8.5,0,0,1,5,1.41,9.5,9.5,0,0,1,3.26,3.83c.71,1.56,1,4.11,1,7.51v13h-3.26V171.64a46.67,46.67,0,0,0-.28-5.81,5.76,5.76,0,0,0-2.27-3.68,6.2,6.2,0,0,0-4.11-1.28,8,8,0,0,0-5.24,2,9.23,9.23,0,0,0-3.12,4.81,36.7,36.7,0,0,0-.43,6.81v9.21h-3.26Z"/><path id="path835" class="cls-2" d="M150.79,158.46h3.26v4.4a11.93,11.93,0,0,1,3.54-3.55,9.67,9.67,0,0,1,8.64-.71,6.43,6.43,0,0,1,2.7,2,12.9,12.9,0,0,1,1.84,3.4,11.65,11.65,0,0,1,4.11-4.53,9.79,9.79,0,0,1,5.24-1.56,8.94,8.94,0,0,1,4.68,1.27,7.75,7.75,0,0,1,3,3.69,18.48,18.48,0,0,1,1,7.08v13.75h-3.26V169.8c0-2.69-.14-4.53-.57-5.53a4.72,4.72,0,0,0-2-2.41,6.51,6.51,0,0,0-3.4-1,7.41,7.41,0,0,0-4.4,1.42,8.11,8.11,0,0,0-2.83,3.68c-.57,1.56-.85,4.11-.85,7.8v9.92h-3.26v-12.9a21,21,0,0,0-.57-6.23,4.46,4.46,0,0,0-2-2.55,5.67,5.67,0,0,0-3.4-1,7,7,0,0,0-4.26,1.42,7.48,7.48,0,0,0-2.83,3.69,20.85,20.85,0,0,0-1,7.08v10.63h-3.26Z"/><path id="path837" class="cls-2" d="M220.51,158.46v25.23h-3.26V179.3a13.61,13.61,0,0,1-4.53,3.68,12.19,12.19,0,0,1-5.53,1.28,12.64,12.64,0,0,1-9.21-3.83,13.05,13.05,0,0,1-3.83-9.5,13.08,13.08,0,0,1,13-13.18,12.35,12.35,0,0,1,5.67,1.28,12.87,12.87,0,0,1,4.39,4v-4.54Zm-13,2.41a9.6,9.6,0,0,0-5,1.28,10.22,10.22,0,0,0-3.68,3.68,10.49,10.49,0,0,0-1.28,5.1A9.28,9.28,0,0,0,199,176a10.54,10.54,0,0,0,3.69,3.82,10.35,10.35,0,0,0,5,1.28,10.89,10.89,0,0,0,5.1-1.28,9.18,9.18,0,0,0,3.68-3.68,10.49,10.49,0,0,0,1.28-5.1,10.35,10.35,0,0,0-2.84-7.37A10.84,10.84,0,0,0,207.48,160.87Z"/><path id="path839" class="cls-2" d="M227.74,158.46H231V163a13.45,13.45,0,0,1,4.25-3.83,10.48,10.48,0,0,1,5.1-1.27,8.51,8.51,0,0,1,5,1.41,9.48,9.48,0,0,1,3.25,3.83c.71,1.56,1,4.11,1,7.51v13h-3.26V171.64a25.26,25.26,0,0,0-.43-5.81,6.21,6.21,0,0,0-2.12-3.68,6.48,6.48,0,0,0-4.11-1.28,8,8,0,0,0-5.25,2,9.23,9.23,0,0,0-3.12,4.81,37,37,0,0,0-.42,6.81v9.21H227.6Z"/><path id="path841" class="cls-2" d="M306.68,181.42l-2.27,1.7a11.55,11.55,0,0,0-4.39-3.54,12.19,12.19,0,0,0-5.53-1.28,13.56,13.56,0,0,0-6.23,1.56,11.6,11.6,0,0,0-4.4,4.25,12.62,12.62,0,0,0-1.56,6.1,11.13,11.13,0,0,0,3.55,8.5,12,12,0,0,0,8.78,3.4,12.38,12.38,0,0,0,9.78-4.53l2.27,1.7a15.11,15.11,0,0,1-5.24,4.11,16.1,16.1,0,0,1-6.95,1.42c-4.82,0-8.78-1.56-11.48-4.82a14.45,14.45,0,0,1-3.54-9.92,14,14,0,0,1,4.25-10.35,14.77,14.77,0,0,1,10.77-4.25,16.81,16.81,0,0,1,7.09,1.56,11.81,11.81,0,0,1,5.1,4.39Z"/><path id="path843" class="cls-2" d="M332.33,183.41V204.1h-2.55v-3.55a12.36,12.36,0,0,1-3.68,3.12,9.69,9.69,0,0,1-4.54,1,10.09,10.09,0,0,1-7.51-3.11,11.12,11.12,0,0,1,0-15.45,10.06,10.06,0,0,1,7.51-3.12,9.48,9.48,0,0,1,4.54,1.13,11.47,11.47,0,0,1,3.68,3.26v-3.82h2.55Zm-10.48,2.12a8.51,8.51,0,0,0-4.11,1.14,7,7,0,0,0-3,3.11,8,8,0,0,0,0,8.22,7.85,7.85,0,0,0,3,3.12,8.1,8.1,0,0,0,4.11,1.14,8.57,8.57,0,0,0,4.11-1.14,7.57,7.57,0,0,0,3-3,8.58,8.58,0,0,0,1-4.26,8.11,8.11,0,0,0-2.41-5.95,7.19,7.19,0,0,0-5.66-2.41Z"/><path id="path845" class="cls-2" d="M338.43,183.41h2.69v3.82A10.19,10.19,0,0,1,344.8,184a9.78,9.78,0,0,1,4.54-1.13,10,10,0,0,1,7.51,3.12,10.34,10.34,0,0,1,3.12,7.65,10.69,10.69,0,0,1-3.12,7.8,10.06,10.06,0,0,1-7.51,3.11,9.79,9.79,0,0,1-8.22-4.11v11.06h-2.69Zm10.63,2.12a8,8,0,0,0-5.81,2.41,8.11,8.11,0,0,0-2.41,5.95,8.58,8.58,0,0,0,1,4.26,7.57,7.57,0,0,0,3,3,8.57,8.57,0,0,0,4.11,1.14,7.6,7.6,0,0,0,4-1.14,7.85,7.85,0,0,0,3-3.12,8,8,0,0,0,0-8.22,8.94,8.94,0,0,0-3-3.11,5.84,5.84,0,0,0-3.82-1.14Z"/><path id="path847" class="cls-2" d="M365.78,174.9a2.44,2.44,0,1,1-1.56.71A2.31,2.31,0,0,1,365.78,174.9Zm-1.28,8.51h2.7V204.1h-2.7Z"/><path id="path849" class="cls-2" d="M375,175.75h2.69v7.66h4.26v2.26h-4.26V204H375V185.67h-3.68v-2.26H375Z"/><path id="path851" class="cls-2" d="M406.45,183.41V204.1h-2.69v-3.55a12.36,12.36,0,0,1-3.68,3.12,9.69,9.69,0,0,1-4.54,1,10.09,10.09,0,0,1-7.51-3.11,10.47,10.47,0,0,1-3.12-7.8A10.35,10.35,0,0,1,388,186.1a10.06,10.06,0,0,1,7.51-3.12,9.48,9.48,0,0,1,4.54,1.13,11.47,11.47,0,0,1,3.68,3.26v-3.82h2.69Zm-10.62,2.12a8.51,8.51,0,0,0-4.11,1.14,7,7,0,0,0-3,3.11,8,8,0,0,0,0,8.22,7.85,7.85,0,0,0,3,3.12,8.1,8.1,0,0,0,4.11,1.14,8.57,8.57,0,0,0,4.11-1.14,7.57,7.57,0,0,0,3-3,8.58,8.58,0,0,0,1-4.26,8.11,8.11,0,0,0-2.41-5.95A7,7,0,0,0,395.83,185.53Z"/><path id="path853" class="cls-2" d="M412,175.47h2.69V204.1H412Z"/><path id="path855" class="cls-2" d="M433.52,180.15h2.41v21.68h9.21v2.27H433.52Z"/><path id="path857" class="cls-2" d="M449,180.15h2.41v21.68h9.21v2.27H449Z"/><path id="path859" class="cls-2" d="M486.67,184.54,484.83,186a9.11,9.11,0,0,0-3.83-3.12,10.87,10.87,0,0,0-4.82-1,9.73,9.73,0,0,0-5.24,1.41,9.58,9.58,0,0,0-5.1,8.93,9.93,9.93,0,0,0,3,7.37,11,11,0,0,0,16-1l1.84,1.42a11.2,11.2,0,0,1-4.54,3.54,14,14,0,0,1-5.95,1.28c-4.25,0-7.51-1.42-9.92-4.26a13,13,0,0,1-3-8.5,11.66,11.66,0,0,1,3.68-8.79,12.54,12.54,0,0,1,9.21-3.54,14.27,14.27,0,0,1,6.1,1.28,9.78,9.78,0,0,1,4.39,3.54Z"/><path id="path861" class="cls-3" d="M493.61,200.41a1.95,1.95,0,1,1-1.41.57A2.53,2.53,0,0,1,493.61,200.41Z"/><path id="path921" class="cls-4" d="M266,209.77V148.68"/><path id="path923" class="cls-5" d="M367.2,204.1H496"/></svg>