
<svg id="Layer_1" data-name="Layer 1" xmlns="http://www.w3.org/2000/svg" viewBox="0 0 626.23 260.38"><defs><style>.cls-1,.cls-2{fill:#212121;}.cls-2{font-size:182.77px;font-family:Lakeside, Lakeside;}.cls-3{letter-spacing:-0.05em;}.cls-4{letter-spacing:-0.05em;}.cls-5{letter-spacing:0em;}</style></defs><title>logoiconSocial</title><polygon class="cls-1" points="350.11 47.31 310.02 149.96 268.88 47.31 350.11 47.31"/><polygon class="cls-1" points="282.91 34.44 310.04 11.97 336.48 34.44 282.91 34.44"/><polygon class="cls-1" points="252.51 47.31 285.42 129.43 217.4 47.31 252.51 47.31"/><polygon class="cls-1" points="366.44 47.31 402.82 47.31 333.96 130.44 366.44 47.31"/><polygon class="cls-1" points="396.58 34.44 358.17 34.44 324.12 5.49 355.79 5.49 396.58 34.44"/><polygon class="cls-1" points="260.08 5.49 295.9 5.49 260.94 34.44 222.44 34.44 260.08 5.49"/><text class="cls-2" transform="translate(0.61 252.54) scale(1.09 1)">Ma<tspan class="cls-3" x="153.16" y="0">n</tspan><tspan class="cls-4" x="186.6" y="0">’</tspan><tspan class="cls-5" x="202.96" y="0">s Luxuries</tspan></text></svg>