<svg xmlns="http://www.w3.org/2000/svg" viewBox="0 0 190 100"><defs><style>.cls-1{fill:#00b4db;}</style></defs><title>bitcoin</title><g id="Bitcoin"><path class="cls-1" d="M130.43,52.2q-3.71-4.25-11.19-5.83,9.53-4.3,8.38-14.61a13.37,13.37,0,0,0-2.34-6.48A14.13,14.13,0,0,0,120,20.86a31.7,31.7,0,0,0-7.23-2.55,63.94,63.94,0,0,0-9-1.27V2.77H94V16.64q-2.55,0-7.8.12v-14H76.31V17q-2.11.06-6.21.06L56.54,17v9.29h7.1q4.86,0,5.69,3.85V46.43a7,7,0,0,1,1,.06h-1V69.25q-.51,2.9-3.71,2.89h-7.1l-2,10.36H69.33l3.52,0,3.46,0V97h9.85V82.73q2.69.06,7.81.06V97h9.85V82.56a85.25,85.25,0,0,0,9.31-.85,42.48,42.48,0,0,0,7.77-1.95,21.93,21.93,0,0,0,6.21-3.32,15.91,15.91,0,0,0,4.12-5,19.49,19.49,0,0,0,2.08-7.08Q134.15,56.46,130.43,52.2ZM86.35,27l2.53,0,3.45-.06c.92,0,2.16,0,3.71.14s2.87.27,3.94.46a25.08,25.08,0,0,1,3.52.93A9.89,9.89,0,0,1,106.57,30a7.81,7.81,0,0,1,2,2.38,6.73,6.73,0,0,1,.8,3.31,7,7,0,0,1-.58,2.89A5.54,5.54,0,0,1,107,40.74a19.06,19.06,0,0,1-2.37,1.53,11.81,11.81,0,0,1-3.1,1q-1.89.4-3.3.63a31.52,31.52,0,0,1-3.52.31l-3.2.11q-1.08,0-3,0l-2.21,0V27Zm26.91,38.56a8,8,0,0,1-1.57,2.27,8.94,8.94,0,0,1-2.53,1.7,24.38,24.38,0,0,1-3,1.19,27.87,27.87,0,0,1-3.55.79c-1.39.23-2.6.39-3.65.48s-2.29.17-3.74.23-2.58.08-3.39.08l-3.07,0-2.37,0V53.05c.34,0,1.35,0,3,0s3.06-.06,4.13-.06,2.53.06,4.41.17a41,41,0,0,1,4.74.51,35.59,35.59,0,0,1,4.19,1.05,13,13,0,0,1,3.68,1.72A9,9,0,0,1,112.9,59a7.29,7.29,0,0,1,.36,6.51Z"/></g></svg>