<svg xmlns="http://www.w3.org/2000/svg" viewBox="0 0 190 100"><defs><style>.cls-1{fill:#00b4db;stroke:#fff;}.cls-1,.cls-2{stroke-miterlimit:10;}.cls-2{fill:none;stroke:#00b4db;stroke-width:4px;}</style></defs><title>forex</title><g id="FX"><path class="cls-1" d="M72.89,57.53a14.85,14.85,0,0,0-1.31-3.15,10.81,10.81,0,0,0-2.21-2.62,26.86,26.86,0,0,0-2.58-2A23,23,0,0,0,63.64,48c-1.33-.65-2.39-1.13-3.16-1.45s-1.91-.74-3.38-1.29c-1.3-.5-2.28-.87-2.92-1.14s-1.47-.63-2.52-1.11a14.65,14.65,0,0,1-2.33-1.27,19.24,19.24,0,0,1-1.64-1.36,4.57,4.57,0,0,1-1.23-1.71,5.29,5.29,0,0,1-.36-2,5.38,5.38,0,0,1,2.5-4.57,10.94,10.94,0,0,1,6.46-1.77,13.79,13.79,0,0,1,3.56.48,18.07,18.07,0,0,1,3.11,1.07,20.07,20.07,0,0,1,2.43,1.31c.77.48,1.31.85,1.63,1.09s.52.42.6.5a1.38,1.38,0,0,0,1.13.29,1.17,1.17,0,0,0,1-.66l3.37-6a1.17,1.17,0,0,0-.21-1.57c-.16-.16-.37-.36-.62-.58s-.79-.61-1.63-1.19a19.17,19.17,0,0,0-2.64-1.54,25,25,0,0,0-3.63-1.38,22.77,22.77,0,0,0-4.6-.95V13.92a1.3,1.3,0,0,0-.38-.95,1.33,1.33,0,0,0-1-.37H51.56a1.28,1.28,0,0,0-.94.4,1.26,1.26,0,0,0-.39.92v7.41A19.22,19.22,0,0,0,39.6,26.85a14,14,0,0,0-4.08,10A14.55,14.55,0,0,0,35.87,40a16.65,16.65,0,0,0,.88,2.74,10.28,10.28,0,0,0,1.48,2.39,25.55,25.55,0,0,0,1.81,2,13.87,13.87,0,0,0,2.23,1.75c.92.61,1.7,1.1,2.35,1.47s1.52.79,2.61,1.27,1.94.84,2.56,1.09l2.56,1c1.5.58,2.61,1,3.34,1.34s1.64.75,2.75,1.32A11.07,11.07,0,0,1,60.87,58a7.9,7.9,0,0,1,1.4,1.73,4.11,4.11,0,0,1,.63,2.18,5.76,5.76,0,0,1-2.57,5,10.19,10.19,0,0,1-5.93,1.77,14.76,14.76,0,0,1-3.09-.33,21.89,21.89,0,0,1-10.12-5.15l-.09-.08a1,1,0,0,0-1-.37,1.28,1.28,0,0,0-1,.49l-4.3,5.56a1.25,1.25,0,0,0,.09,1.69,9.36,9.36,0,0,0,.73.74,24.14,24.14,0,0,0,1.93,1.55,27.67,27.67,0,0,0,3.09,2,28.36,28.36,0,0,0,4.23,1.84,27,27,0,0,0,5.31,1.27v7.21a1.22,1.22,0,0,0,.4.92,1.24,1.24,0,0,0,.93.4h5.63a1.34,1.34,0,0,0,1-.37,1.29,1.29,0,0,0,.37-1V77.87a17.93,17.93,0,0,0,10.77-5.62A15.53,15.53,0,0,0,73.44,61.4,13.17,13.17,0,0,0,72.89,57.53Z"/><path class="cls-1" d="M155.23,19.51a1.36,1.36,0,0,0-1.2-.77h-8.44a1.28,1.28,0,0,0-1.28.92l-8.45,20.21c-.2.54-.61,1.52-1.21,2.93s-1.05,2.51-1.35,3.28c-1.09-2.8-1.91-4.8-2.47-6l-9.51-20.45a1.39,1.39,0,0,0-1.28-.87h-8.58a1.38,1.38,0,0,0-1.24.77,1.8,1.8,0,0,0,0,1.54l14.19,27.82H115a1.31,1.31,0,0,0-1,.45,1.57,1.57,0,0,0-.42,1.09v5a1.53,1.53,0,0,0,.42,1.11,1.33,1.33,0,0,0,1,.43h12.74V61H115a1.29,1.29,0,0,0-1,.46,1.54,1.54,0,0,0-.42,1.08v5a1.53,1.53,0,0,0,.42,1.11,1.36,1.36,0,0,0,1,.43h12.74V85a1.53,1.53,0,0,0,.42,1.11,1.33,1.33,0,0,0,1,.43h7.6a1.29,1.29,0,0,0,1-.46,1.53,1.53,0,0,0,.42-1.08V69.08h12.82a1.36,1.36,0,0,0,1-.43,1.53,1.53,0,0,0,.42-1.11v-5a1.53,1.53,0,0,0-.42-1.08,1.29,1.29,0,0,0-1-.46H138.12V57h12.82a1.33,1.33,0,0,0,1-.43,1.53,1.53,0,0,0,.42-1.11v-5a1.57,1.57,0,0,0-.42-1.09,1.31,1.31,0,0,0-1-.45h-9.51L155.27,21A1.57,1.57,0,0,0,155.23,19.51Z"/><line class="cls-2" x1="105.88" y1="4" x2="77.5" y2="95"/></g></svg>