<svg xmlns="http://www.w3.org/2000/svg" viewBox="0 0 190 100"><defs><style>.cls-1{fill:#00b4db;stroke:#fff;stroke-miterlimit:10;stroke-width:0.5px;}</style></defs><title>stocks</title><g id="Cumpanys"><path class="cls-1" d="M141.2,17.84H123.68V5.09a1.6,1.6,0,0,0-1.6-1.59H67.92a1.6,1.6,0,0,0-1.6,1.59V27.4H48.8A1.6,1.6,0,0,0,47.2,29V94.31a1.6,1.6,0,1,0,3.19,0V30.58H66.32V95.91a1.6,1.6,0,0,0,1.6,1.59h54.16a1.6,1.6,0,0,0,1.6-1.59V21h15.93V94.31a1.6,1.6,0,1,0,3.19,0V19.43A1.6,1.6,0,0,0,141.2,17.84ZM93.41,94.31H87V80h6.38Zm9.56,0H96.59V80H103Zm17.52,0H106.15V78.38a1.59,1.59,0,0,0-1.59-1.59H85.44a1.59,1.59,0,0,0-1.59,1.59V94.31H69.51V6.69h51Z"/><path class="cls-1" d="M83.85,9.87H74.29a1.6,1.6,0,0,0-1.6,1.6V21a1.6,1.6,0,0,0,1.6,1.59h9.56A1.59,1.59,0,0,0,85.44,21V11.47A1.6,1.6,0,0,0,83.85,9.87Zm-1.6,9.56H75.88V13.06h6.37Z"/><path class="cls-1" d="M99.78,9.87H90.22a1.6,1.6,0,0,0-1.59,1.6V21a1.59,1.59,0,0,0,1.59,1.59h9.56A1.59,1.59,0,0,0,101.37,21V11.47A1.6,1.6,0,0,0,99.78,9.87Zm-1.59,9.56H91.81V13.06h6.38Z"/><path class="cls-1" d="M115.71,9.87h-9.56a1.6,1.6,0,0,0-1.59,1.6V21a1.59,1.59,0,0,0,1.59,1.59h9.56a1.6,1.6,0,0,0,1.6-1.59V11.47A1.6,1.6,0,0,0,115.71,9.87Zm-1.59,9.56h-6.37V13.06h6.37Z"/><path class="cls-1" d="M83.85,25.81H74.29a1.6,1.6,0,0,0-1.6,1.59V37a1.6,1.6,0,0,0,1.6,1.59h9.56A1.59,1.59,0,0,0,85.44,37V27.4A1.59,1.59,0,0,0,83.85,25.81Zm-1.6,9.55H75.88V29h6.37Z"/><path class="cls-1" d="M99.78,25.81H90.22a1.59,1.59,0,0,0-1.59,1.59V37a1.59,1.59,0,0,0,1.59,1.59h9.56A1.59,1.59,0,0,0,101.37,37V27.4A1.59,1.59,0,0,0,99.78,25.81Zm-1.59,9.55H91.81V29h6.38Z"/><path class="cls-1" d="M115.71,25.81h-9.56a1.59,1.59,0,0,0-1.59,1.59V37a1.59,1.59,0,0,0,1.59,1.59h9.56a1.6,1.6,0,0,0,1.6-1.59V27.4A1.6,1.6,0,0,0,115.71,25.81Zm-1.59,9.55h-6.37V29h6.37Z"/><path class="cls-1" d="M83.85,41.74H74.29a1.6,1.6,0,0,0-1.6,1.59v9.56a1.6,1.6,0,0,0,1.6,1.59h9.56a1.59,1.59,0,0,0,1.59-1.59V43.33A1.59,1.59,0,0,0,83.85,41.74Zm-1.6,9.56H75.88V44.92h6.37Z"/><path class="cls-1" d="M99.78,41.74H90.22a1.59,1.59,0,0,0-1.59,1.59v9.56a1.59,1.59,0,0,0,1.59,1.59h9.56a1.59,1.59,0,0,0,1.59-1.59V43.33A1.59,1.59,0,0,0,99.78,41.74ZM98.19,51.3H91.81V44.92h6.38Z"/><path class="cls-1" d="M115.71,41.74h-9.56a1.59,1.59,0,0,0-1.59,1.59v9.56a1.59,1.59,0,0,0,1.59,1.59h9.56a1.6,1.6,0,0,0,1.6-1.59V43.33A1.6,1.6,0,0,0,115.71,41.74Zm-1.59,9.56h-6.37V44.92h6.37Z"/><path class="cls-1" d="M83.85,57.67H74.29a1.6,1.6,0,0,0-1.6,1.59v9.56a1.6,1.6,0,0,0,1.6,1.6h9.56a1.6,1.6,0,0,0,1.59-1.6V59.26A1.59,1.59,0,0,0,83.85,57.67Zm-1.6,9.56H75.88V60.86h6.37Z"/><path class="cls-1" d="M99.78,57.67H90.22a1.59,1.59,0,0,0-1.59,1.59v9.56a1.6,1.6,0,0,0,1.59,1.6h9.56a1.6,1.6,0,0,0,1.59-1.6V59.26A1.59,1.59,0,0,0,99.78,57.67Zm-1.59,9.56H91.81V60.86h6.38Z"/><path class="cls-1" d="M115.71,57.67h-9.56a1.59,1.59,0,0,0-1.59,1.59v9.56a1.6,1.6,0,0,0,1.59,1.6h9.56a1.6,1.6,0,0,0,1.6-1.6V59.26A1.6,1.6,0,0,0,115.71,57.67Zm-1.59,9.56h-6.37V60.86h6.37Z"/><path class="cls-1" d="M56.76,33.77H55.17a1.59,1.59,0,0,0-1.59,1.59V37a1.59,1.59,0,0,0,1.59,1.59h1.59A1.6,1.6,0,0,0,58.36,37v-1.6A1.6,1.6,0,0,0,56.76,33.77Z"/><path class="cls-1" d="M63.14,33.77h-1.6A1.59,1.59,0,0,0,60,35.36V37a1.59,1.59,0,0,0,1.59,1.59h1.6A1.59,1.59,0,0,0,64.73,37v-1.6A1.59,1.59,0,0,0,63.14,33.77Z"/><path class="cls-1" d="M56.76,40.14H55.17a1.6,1.6,0,0,0-1.59,1.6v1.59a1.59,1.59,0,0,0,1.59,1.59h1.59a1.6,1.6,0,0,0,1.6-1.59V41.74A1.6,1.6,0,0,0,56.76,40.14Z"/><path class="cls-1" d="M63.14,40.14h-1.6A1.6,1.6,0,0,0,60,41.74v1.59a1.59,1.59,0,0,0,1.59,1.59h1.6a1.59,1.59,0,0,0,1.59-1.59V41.74A1.6,1.6,0,0,0,63.14,40.14Z"/><path class="cls-1" d="M56.76,46.52H55.17a1.59,1.59,0,0,0-1.59,1.59V49.7a1.6,1.6,0,0,0,1.59,1.6h1.59a1.6,1.6,0,0,0,1.6-1.6V48.11A1.6,1.6,0,0,0,56.76,46.52Z"/><path class="cls-1" d="M63.14,46.52h-1.6A1.59,1.59,0,0,0,60,48.11V49.7a1.6,1.6,0,0,0,1.59,1.6h1.6a1.6,1.6,0,0,0,1.59-1.6V48.11A1.59,1.59,0,0,0,63.14,46.52Z"/><path class="cls-1" d="M56.76,52.89H55.17a1.59,1.59,0,0,0-1.59,1.59v1.6a1.59,1.59,0,0,0,1.59,1.59h1.59a1.6,1.6,0,0,0,1.6-1.59v-1.6A1.6,1.6,0,0,0,56.76,52.89Z"/><path class="cls-1" d="M63.14,52.89h-1.6A1.59,1.59,0,0,0,60,54.48v1.6a1.59,1.59,0,0,0,1.59,1.59h1.6a1.59,1.59,0,0,0,1.59-1.59v-1.6A1.59,1.59,0,0,0,63.14,52.89Z"/><path class="cls-1" d="M56.76,59.26H55.17a1.6,1.6,0,0,0-1.59,1.6v1.59A1.59,1.59,0,0,0,55.17,64h1.59a1.6,1.6,0,0,0,1.6-1.59V60.86A1.6,1.6,0,0,0,56.76,59.26Z"/><path class="cls-1" d="M63.14,59.26h-1.6A1.6,1.6,0,0,0,60,60.86v1.59A1.59,1.59,0,0,0,61.54,64h1.6a1.59,1.59,0,0,0,1.59-1.59V60.86A1.6,1.6,0,0,0,63.14,59.26Z"/><path class="cls-1" d="M56.76,65.64H55.17a1.59,1.59,0,0,0-1.59,1.59v1.59a1.6,1.6,0,0,0,1.59,1.6h1.59a1.6,1.6,0,0,0,1.6-1.6V67.23A1.6,1.6,0,0,0,56.76,65.64Z"/><path class="cls-1" d="M63.14,65.64h-1.6A1.59,1.59,0,0,0,60,67.23v1.59a1.6,1.6,0,0,0,1.59,1.6h1.6a1.6,1.6,0,0,0,1.59-1.6V67.23A1.59,1.59,0,0,0,63.14,65.64Z"/><path class="cls-1" d="M56.76,72H55.17a1.59,1.59,0,0,0-1.59,1.59v1.59a1.6,1.6,0,0,0,1.59,1.6h1.59a1.6,1.6,0,0,0,1.6-1.6V73.6A1.6,1.6,0,0,0,56.76,72Z"/><path class="cls-1" d="M63.14,72h-1.6A1.59,1.59,0,0,0,60,73.6v1.59a1.6,1.6,0,0,0,1.59,1.6h1.6a1.6,1.6,0,0,0,1.59-1.6V73.6A1.59,1.59,0,0,0,63.14,72Z"/><path class="cls-1" d="M56.76,78.38H55.17A1.59,1.59,0,0,0,53.58,80v1.6a1.59,1.59,0,0,0,1.59,1.59h1.59a1.6,1.6,0,0,0,1.6-1.59V80A1.6,1.6,0,0,0,56.76,78.38Z"/><path class="cls-1" d="M63.14,78.38h-1.6A1.59,1.59,0,0,0,60,80v1.6a1.59,1.59,0,0,0,1.59,1.59h1.6a1.59,1.59,0,0,0,1.59-1.59V80A1.59,1.59,0,0,0,63.14,78.38Z"/><path class="cls-1" d="M56.76,84.75H55.17a1.6,1.6,0,0,0-1.59,1.6v1.59a1.59,1.59,0,0,0,1.59,1.59h1.59a1.6,1.6,0,0,0,1.6-1.59V86.35A1.6,1.6,0,0,0,56.76,84.75Z"/><path class="cls-1" d="M63.14,84.75h-1.6A1.6,1.6,0,0,0,60,86.35v1.59a1.59,1.59,0,0,0,1.59,1.59h1.6a1.59,1.59,0,0,0,1.59-1.59V86.35A1.6,1.6,0,0,0,63.14,84.75Z"/><path class="cls-1" d="M134.83,24.21h-6.37a1.6,1.6,0,0,0-1.6,1.6v6.37a1.6,1.6,0,0,0,1.6,1.59h6.37a1.59,1.59,0,0,0,1.59-1.59V25.81A1.6,1.6,0,0,0,134.83,24.21Zm-1.59,6.37h-3.19V27.4h3.19Z"/><path class="cls-1" d="M134.83,37h-6.37a1.6,1.6,0,0,0-1.6,1.59v6.37a1.6,1.6,0,0,0,1.6,1.6h6.37a1.6,1.6,0,0,0,1.59-1.6V38.55A1.59,1.59,0,0,0,134.83,37Zm-1.59,6.37h-3.19V40.14h3.19Z"/><path class="cls-1" d="M134.83,49.7h-6.37a1.6,1.6,0,0,0-1.6,1.6v6.37a1.6,1.6,0,0,0,1.6,1.59h6.37a1.59,1.59,0,0,0,1.59-1.59V51.3A1.6,1.6,0,0,0,134.83,49.7Zm-1.59,6.38h-3.19V52.89h3.19Z"/><path class="cls-1" d="M134.83,62.45h-6.37a1.6,1.6,0,0,0-1.6,1.59v6.38a1.6,1.6,0,0,0,1.6,1.59h6.37a1.59,1.59,0,0,0,1.59-1.59V64A1.59,1.59,0,0,0,134.83,62.45Zm-1.59,6.37h-3.19V65.64h3.19Z"/><path class="cls-1" d="M134.83,75.19h-6.37a1.6,1.6,0,0,0-1.6,1.6v6.37a1.6,1.6,0,0,0,1.6,1.59h6.37a1.59,1.59,0,0,0,1.59-1.59V76.79A1.6,1.6,0,0,0,134.83,75.19Zm-1.59,6.38h-3.19V78.38h3.19Z"/></g></svg>