<svg id="Layer_1" data-name="Layer 1" xmlns="http://www.w3.org/2000/svg" viewBox="0 0 200 200"><defs><style>.cls-1{fill:#0083b0;}.cls-2{fill:#00b4db;}</style></defs><title>study</title><path class="cls-1" d="M57.34,54.36h87.32V18.78h8.81V49.69h10.78V18.78h9.52V8H28.23V18.78H57.34Z"/><path class="cls-2" d="M68.12,76.12a32.88,32.88,0,0,0,65.76,0v-11H68.12Z"/><path class="cls-1" d="M144.07,110.49,101,168.72,57.93,110.49A47.51,47.51,0,0,0,22.3,156.43V192H179.7V156.43A47.51,47.51,0,0,0,144.07,110.49Z"/><path class="cls-1" d="M131.76,109H129.7a43.59,43.59,0,0,1-57.4,0H70.24L101,150.59Z"/></svg>