<svg id="Layer_1" data-name="Layer 1" xmlns="http://www.w3.org/2000/svg" viewBox="0 0 200 200"><defs><style>.cls-1{fill:#eb524f;}</style></defs><title>udamy</title><path class="cls-1" d="M33.21,102.77c0,.39,0,.6-.07.81-.6,3.08-1.16,6.17-1.82,9.24A152.5,152.5,0,0,0,28.48,129,83.44,83.44,0,0,0,28,141a61,61,0,0,0,1.32,10.76A38.44,38.44,0,0,0,37,168.19a26.24,26.24,0,0,0,11.32,8.32,26.77,26.77,0,0,0,8.72,1.67,38.36,38.36,0,0,0,9.74-.9,39.25,39.25,0,0,0,15-7.19,89.06,89.06,0,0,0,14.61-14.37,117.39,117.39,0,0,0,11.37-17c5.44-9.62,10.47-19.46,15.4-29.35,1.45-2.9,2.86-5.83,4.3-8.74.13-.26.19-.6.59-.76a5.64,5.64,0,0,1,.17.64c.21,1.77.43,3.54.61,5.31.38,3.63.74,7.26,1.12,10.88.42,4,1,8.08,1.78,12.08a32.41,32.41,0,0,0,3.66,10.25,24.55,24.55,0,0,0,10.5,10.08,30.44,30.44,0,0,0,11.94,2.8,30.92,30.92,0,0,0,6.45-.34,48.39,48.39,0,0,0,9.53-2.54A35.54,35.54,0,0,0,188,139.65a35.94,35.94,0,0,0,7.62-14,16.07,16.07,0,0,0,.78-5.42c0-.59,0-1.18,0-1.76A12,12,0,0,0,194.1,112a2.49,2.49,0,0,0-3.51-.83,10.38,10.38,0,0,0-2.12,1.4c-2.21,1.85-4.37,3.75-6.57,5.61a63.81,63.81,0,0,1-7.55,5.63,13.18,13.18,0,0,1-5.62,2.12,6.53,6.53,0,0,1-4.87-1.31,8.32,8.32,0,0,1-2.58-3.68,18.15,18.15,0,0,1-1.12-5.54q-.27-4.31-.46-8.61c-.18-3.94-.33-7.88-.49-11.82q-.24-6.37-.46-12.77c-.14-4.21-.24-8.41-.39-12.62-.06-1.65-.14-3.3-.33-4.94a40.71,40.71,0,0,0-3.56-12.29,13.56,13.56,0,0,0-14.34-7.46,11.45,11.45,0,0,0-8.82,6.39c-7.57,14.64-15.22,29.24-22.7,43.92A289.47,289.47,0,0,1,82.08,138a62.06,62.06,0,0,1-6.43,7.31,8.78,8.78,0,0,1-3.28,2.08,5.16,5.16,0,0,1-6.19-2,8.69,8.69,0,0,1-1.09-2.12,33.32,33.32,0,0,1-1.74-10.83,99.17,99.17,0,0,1,.68-10q.64-5.47,1.7-10.88c1.5-7.73,3.37-15.38,5.31-23q3.84-15.15,7.65-30.33a79.35,79.35,0,0,0,2.39-18.48,27,27,0,0,0-.55-6.27,14.79,14.79,0,0,0-5.09-8.63,17.05,17.05,0,0,0-6.65-3.17,8,8,0,0,0-6.5.94,25.49,25.49,0,0,0-7.92,7.89A56.61,56.61,0,0,0,50.43,38,146.92,146.92,0,0,1,23.84,78.37,98.34,98.34,0,0,1,9.18,91.66c-1.3.93-2.56,1.9-3.84,2.86-.27.19-.49.37-.44.77a19.28,19.28,0,0,0,2.16,7.14,11.86,11.86,0,0,0,3.4,4,11.21,11.21,0,0,0,8.4,2A29,29,0,0,0,30,104.46c.8-.48,1.63-.91,2.45-1.35C32.65,103,32.87,102.92,33.21,102.77Z"/><path class="cls-1" d="M33.21,102.77c-.34.15-.56.23-.76.34-.82.44-1.65.87-2.45,1.35a29,29,0,0,1-11.14,3.9,11.21,11.21,0,0,1-8.4-2,11.86,11.86,0,0,1-3.4-4A19.28,19.28,0,0,1,4.9,95.29c-.05-.4.17-.58.44-.77,1.28-1,2.54-1.93,3.84-2.86A98.34,98.34,0,0,0,23.84,78.37,146.92,146.92,0,0,0,50.43,38a56.61,56.61,0,0,1,3.94-7.57,25.49,25.49,0,0,1,7.92-7.89,8,8,0,0,1,6.5-.94,17.05,17.05,0,0,1,6.65,3.17,14.79,14.79,0,0,1,5.09,8.63,27,27,0,0,1,.55,6.27,79.35,79.35,0,0,1-2.39,18.48Q74.9,73.31,71,88.46c-1.94,7.63-3.81,15.28-5.31,23q-1,5.41-1.7,10.88a99.17,99.17,0,0,0-.68,10,33.32,33.32,0,0,0,1.74,10.83,8.69,8.69,0,0,0,1.09,2.12,5.16,5.16,0,0,0,6.19,2,8.78,8.78,0,0,0,3.28-2.08A62.06,62.06,0,0,0,82.08,138a289.47,289.47,0,0,0,26.53-42.79c7.48-14.68,15.13-29.28,22.7-43.92a11.45,11.45,0,0,1,8.82-6.39,13.56,13.56,0,0,1,14.34,7.46A40.71,40.71,0,0,1,158,64.6c.19,1.64.27,3.29.33,4.94.15,4.21.25,8.41.39,12.62s.3,8.52.46,12.77c.16,3.94.31,7.88.49,11.82q.2,4.31.46,8.61a18.15,18.15,0,0,0,1.12,5.54,8.32,8.32,0,0,0,2.58,3.68,6.53,6.53,0,0,0,4.87,1.31,13.18,13.18,0,0,0,5.62-2.12,63.81,63.81,0,0,0,7.55-5.63c2.2-1.86,4.36-3.76,6.57-5.61a10.38,10.38,0,0,1,2.12-1.4,2.49,2.49,0,0,1,3.51.83,12,12,0,0,1,2.32,6.53c0,.58,0,1.17,0,1.76a16.07,16.07,0,0,1-.78,5.42,35.94,35.94,0,0,1-7.62,14,35.54,35.54,0,0,1-14.17,9.41,48.39,48.39,0,0,1-9.53,2.54,30.92,30.92,0,0,1-6.45.34,30.44,30.44,0,0,1-11.94-2.8,24.55,24.55,0,0,1-10.5-10.08,32.41,32.41,0,0,1-3.66-10.25c-.78-4-1.36-8-1.78-12.08-.38-3.62-.74-7.25-1.12-10.88-.18-1.77-.4-3.54-.61-5.31a5.64,5.64,0,0,0-.17-.64c-.4.16-.46.5-.59.76-1.44,2.91-2.85,5.84-4.3,8.74-4.93,9.89-10,19.73-15.4,29.35a117.39,117.39,0,0,1-11.37,17,89.06,89.06,0,0,1-14.61,14.37,39.25,39.25,0,0,1-15,7.19,38.36,38.36,0,0,1-9.74.9,26.77,26.77,0,0,1-8.72-1.67A26.24,26.24,0,0,1,37,168.19a38.44,38.44,0,0,1-7.71-16.39A61,61,0,0,1,28,141a83.44,83.44,0,0,1,.47-12,152.5,152.5,0,0,1,2.84-16.18c.66-3.07,1.22-6.16,1.82-9.24C33.18,103.37,33.18,103.16,33.21,102.77Z"/></svg>