<svg xmlns="http://www.w3.org/2000/svg" viewBox="0 0 500 500"><defs><style>.cls-1{fill:#3c92ca;}.cls-2{fill:#2c2f33;}.cls-3{fill:#fff;stroke:#263238;stroke-miterlimit:10;stroke-width:12px;}.cls-4{fill:#0083b0;}</style></defs><title>corraspond_icon</title><g id="receive_files"><path class="cls-1" d="M120.15,128.54a8.13,8.13,0,0,0,11.66,11.34,157.41,157.41,0,0,1,220.65-4.6l-14.95.16a8.13,8.13,0,0,0,.09,16.26h.08l34.65-.41a8.14,8.14,0,0,0,8.05-8.21l-.33-34.57a8.18,8.18,0,0,0-8.13-8.05h-.08a8.15,8.15,0,0,0-8,8.21l.17,15.11a173.67,173.67,0,0,0-243.81,4.76Z"/><path class="cls-1" d="M357.14,360.2a157.42,157.42,0,0,1-220.65,4.59l14.95-.16a8.13,8.13,0,0,0-.08-16.26h-.09l-34.65.41a8.15,8.15,0,0,0-8.05,8.21l.41,34.66a8.19,8.19,0,0,0,8.13,8h.09a8.14,8.14,0,0,0,8-8.21l-.16-15.11A172.66,172.66,0,0,0,244.48,424h2.05a173,173,0,0,0,122.35-52.31,8.21,8.21,0,0,0-11.74-11.49Z"/><path class="cls-2" d="M110.22,246.22a8.16,8.16,0,0,0-3.62-6.74,5.18,5.18,0,0,1-2.3-4.35V205.49a18.54,18.54,0,0,1,18.56-18.56h6.41a18.53,18.53,0,0,1,18.55,18.56v29.64a5.4,5.4,0,0,1-2.29,4.35,8,8,0,0,0-3.62,6.74v28.57a9.34,9.34,0,0,0,5.34,8.46,227.65,227.65,0,0,1,40.57,26,6.32,6.32,0,0,1,2.21,4.85v20.28a8.13,8.13,0,0,0,16.26,0V314.13a22.46,22.46,0,0,0-8.21-17.41,238.53,238.53,0,0,0-39.91-26.11V250a21.54,21.54,0,0,0,6-14.86V205.49a34.84,34.84,0,0,0-34.82-34.82h-6.41a34.83,34.83,0,0,0-34.81,34.82v29.64a21.17,21.17,0,0,0,6,14.86v20.62a240.48,240.48,0,0,0-39.91,26.11A22.51,22.51,0,0,0,46,314.13v20.28a8.13,8.13,0,1,0,16.26,0V314.13a6.42,6.42,0,0,1,2.22-4.85,224.77,224.77,0,0,1,40.56-26,9.58,9.58,0,0,0,5.34-8.46V246.22Z"/><path class="cls-2" d="M440.08,296.8a238.53,238.53,0,0,0-39.91-26.11V250.08a21.55,21.55,0,0,0,6-14.87V205.57a34.83,34.83,0,0,0-34.81-34.82h-6.41a34.84,34.84,0,0,0-34.82,34.82v29.64a21.21,21.21,0,0,0,6,14.87v20.53a240.48,240.48,0,0,0-39.91,26.11A22.51,22.51,0,0,0,288,314.13v20.28a8.13,8.13,0,0,0,16.26,0V314.13a6.44,6.44,0,0,1,2.21-4.85,224.71,224.71,0,0,1,40.57-26,9.51,9.51,0,0,0,5.26-8.46V246.22a8.16,8.16,0,0,0-3.62-6.74,5.18,5.18,0,0,1-2.3-4.35V205.49a18.54,18.54,0,0,1,18.56-18.56h6.41a18.53,18.53,0,0,1,18.55,18.56v29.64a5.4,5.4,0,0,1-2.29,4.35,8,8,0,0,0-3.62,6.74v28.57a9.41,9.41,0,0,0,5.26,8.46,224.77,224.77,0,0,1,40.56,26,6.29,6.29,0,0,1,2.22,4.85v20.28a8.13,8.13,0,1,0,16.26,0V314.13A22.73,22.73,0,0,0,440.08,296.8Z"/><circle class="cls-3" cx="92" cy="90" r="71"/><path class="cls-4" d="M64.89,108.4c0-2,.43-3.4,1.28-4.14s2.34-1.11,4.44-1.11q3.72,0,5.07,1.11A4.37,4.37,0,0,1,77,107.82,9,9,0,0,0,80.57,115q3.56,3,10.21,3,7.23,0,10.67-3.44t3.43-11v-2.21q0-12.71-14.22-12.71-4,0-4-4.84t4-4.95c4,0,7-.9,9-2.69s3.09-5.17,3.09-10.14q0-12-11.66-12-6.54,0-9.33,2.72A9,9,0,0,0,79,63.43q0,5-5.83,5-4,0-5.19-1.17c-.81-.78-1.22-2.29-1.22-4.55a18.19,18.19,0,0,1,1.16-6.29,21.78,21.78,0,0,1,3.79-6.3A18.57,18.57,0,0,1,79.41,45a32.4,32.4,0,0,1,11.83-2q23.45,0,23.44,20.87a27.51,27.51,0,0,1-2.51,12.21,14.92,14.92,0,0,1-6.82,7.21q11.9,4.65,11.89,18v2.21q0,13.15-7.34,19.27t-19.24,6.11q-12.6,0-19.18-6.29T64.89,108.4Z"/></g></svg>