<svg xmlns="http://www.w3.org/2000/svg" viewBox="0 0 500 500"><defs><style>.cls-1{fill:#263238;}.cls-2{fill:#0083b0;}</style></defs><title>custom_icon</title><g id="Custum"><path class="cls-1" d="M91.3,401.8A48.36,48.36,0,0,0,43,450.1a6.89,6.89,0,0,0,6.9,6.9h82.8a6.89,6.89,0,0,0,6.9-6.9A48.36,48.36,0,0,0,91.3,401.8ZM57.5,443.2a34.52,34.52,0,0,1,26.9-26.84v13H98.2v-13a34.54,34.54,0,0,1,26.9,26.84Z"/><path class="cls-1" d="M450.1,339.7H438c-.38-1-.78-1.91-1.2-2.87l8.56-8.56a6.89,6.89,0,0,0,0-9.76l-29.27-29.27a6.78,6.78,0,0,0-5.18-2A34.43,34.43,0,0,0,429.4,256.9V77.5A34.54,34.54,0,0,0,394.9,43H77.5A34.54,34.54,0,0,0,43,77.5V256.9a34.54,34.54,0,0,0,34.5,34.5h90l-26.06,48.3H129.25a24.15,24.15,0,0,0,0,48.3H277.6a6.89,6.89,0,0,0,6.9,6.9h12.1c.38,1,.78,1.91,1.2,2.87l-8.56,8.56a6.89,6.89,0,0,0,0,9.76l29.27,29.27a6.89,6.89,0,0,0,9.76,0l8.56-8.56c1,.42,1.91.82,2.87,1.2v12.1a6.89,6.89,0,0,0,6.9,6.9H388a6.89,6.89,0,0,0,6.9-6.9V438c1-.38,1.91-.78,2.87-1.2l8.56,8.56a6.89,6.89,0,0,0,9.76,0l29.27-29.27a6.89,6.89,0,0,0,0-9.76l-8.56-8.56c.42-1,.82-1.91,1.2-2.87h12.1A6.89,6.89,0,0,0,457,388V346.6A6.89,6.89,0,0,0,450.1,339.7ZM56.8,77.5A20.73,20.73,0,0,1,77.5,56.8H394.9a20.73,20.73,0,0,1,20.7,20.7V222.4H56.8ZM77.5,277.6a20.73,20.73,0,0,1-20.7-20.7V236.2H415.6v20.7a20.73,20.73,0,0,1-20.7,20.7H77.5Zm328.74,11.73-8.47,8.47c-1-.42-1.91-.82-2.87-1.2v-5.2A33.88,33.88,0,0,0,406.24,289.33ZM339.7,291.4v5.2c-1,.38-1.91.78-2.87,1.2l-6.4-6.4Zm-23.36,0-5.94,6-4-6ZM277.6,374.2H129.25a10.35,10.35,0,1,1,0-20.7H277.6ZM157.16,339.69l26.06-48.29H289.65l10.82,15.88L289.24,318.5a6.89,6.89,0,0,0,0,9.76l8.56,8.56c-.42,1-.82,1.91-1.2,2.87H157.16Zm286,41.41H433.13a6.9,6.9,0,0,0-6.58,4.82A61.59,61.59,0,0,1,422.34,396a6.91,6.91,0,0,0,1.24,8.07l7.15,7.15-19.51,19.51-7.15-7.14a6.91,6.91,0,0,0-8.07-1.25,62,62,0,0,1-10.07,4.21,6.92,6.92,0,0,0-4.83,6.59V443.2H353.5V433.13a6.9,6.9,0,0,0-4.82-6.58,61.59,61.59,0,0,1-10.07-4.21,6.91,6.91,0,0,0-8.07,1.24l-7.15,7.15-19.51-19.51,7.14-7.15a6.89,6.89,0,0,0,1.25-8.07,62,62,0,0,1-4.21-10.07,6.92,6.92,0,0,0-6.59-4.83H291.4V353.5h10.07a6.9,6.9,0,0,0,6.58-4.82,61.59,61.59,0,0,1,4.21-10.07,6.91,6.91,0,0,0-1.24-8.07l-7.15-7.15,19.51-19.51,7.15,7.14a6.89,6.89,0,0,0,8.07,1.25,62,62,0,0,1,10.07-4.21,6.92,6.92,0,0,0,4.83-6.59V291.4h27.6v10.07a6.9,6.9,0,0,0,4.82,6.58A61.59,61.59,0,0,1,396,312.26a6.89,6.89,0,0,0,8.07-1.24l7.15-7.15,19.51,19.51-7.14,7.15a6.89,6.89,0,0,0-1.25,8.07,62,62,0,0,1,4.21,10.07,6.92,6.92,0,0,0,6.59,4.83H443.2Z"/><path class="cls-2" d="M367.3,325.9a41.4,41.4,0,1,0,41.4,41.4A41.44,41.44,0,0,0,367.3,325.9Zm0,69a27.6,27.6,0,1,1,27.6-27.6A27.63,27.63,0,0,1,367.3,394.9Z"/><path class="cls-2" d="M179,96.18l-9.76-9.76-48.3,48.3a6.89,6.89,0,0,0,0,9.76l48.3,48.3L179,183,135.56,139.6Z"/><path class="cls-2" d="M330.78,134.72l-48.3-48.3-9.76,9.76,43.42,43.42L272.72,183l9.76,9.76,48.3-48.3A6.89,6.89,0,0,0,330.78,134.72Z"/><rect class="cls-2" x="156.42" y="125.82" width="138.82" height="13.8" transform="translate(6.13 275.36) rotate(-63.43)"/><rect class="cls-2" x="312.1" y="181" width="13.8" height="13.8"/><rect class="cls-2" x="339.7" y="181" width="13.8" height="13.8"/><rect class="cls-2" x="367.3" y="181" width="13.8" height="13.8"/></g></svg>