<svg xmlns="http://www.w3.org/2000/svg" viewBox="0 0 500 500"><defs><style>.cls-1{fill:#263238;}.cls-2{fill:#0083b0;}.cls-3{fill:#fff;stroke:#263238;stroke-miterlimit:10;stroke-width:12px;}</style></defs><title>form_icon</title><g id="receive_files"><path class="cls-1" d="M418.77,165.79a7.75,7.75,0,0,0,7.65-7.85V72.55c0-13-10.3-23.55-22.95-23.55H125c-12.65,0-23,10.56-23,23.55v354.9c0,13,10.3,23.55,23,23.55H403.47c12.65,0,22.95-10.56,22.95-23.55V369.6a7.65,7.65,0,1,0-15.3,0v57.85a7.76,7.76,0,0,1-7.65,7.85H125a7.77,7.77,0,0,1-7.65-7.85V72.55A7.77,7.77,0,0,1,125,64.7H403.47a7.76,7.76,0,0,1,7.65,7.85v85.39A7.75,7.75,0,0,0,418.77,165.79Z"/><path class="cls-2" d="M264.21,91.4c-38.81,0-70.39,32.4-70.39,72.23a72.91,72.91,0,0,0,22.1,52.5,6.82,6.82,0,0,0,.82.79,68.93,68.93,0,0,0,94.94,0,6.82,6.82,0,0,0,.82-.79,72.91,72.91,0,0,0,22.1-52.5C334.6,123.8,303,91.4,264.21,91.4Zm0,128.76a53.93,53.93,0,0,1-33.28-11.51,37.79,37.79,0,0,1,66.56,0A53.93,53.93,0,0,1,264.21,220.16ZM252,160.49v-5.1a12.24,12.24,0,1,1,24.48,0v5.1a12.24,12.24,0,1,1-24.48,0Zm56.57,36.65A53.51,53.51,0,0,0,286,177.75a28.61,28.61,0,0,0,5.76-17.26v-5.1c0-15.59-12.36-28.27-27.55-28.27s-27.54,12.68-27.54,28.27v5.1a28.6,28.6,0,0,0,5.75,17.26,53.51,53.51,0,0,0-22.54,19.39,57.15,57.15,0,0,1-10.76-33.51c0-31.17,24.71-56.53,55.09-56.53s55.09,25.36,55.09,56.53A57.15,57.15,0,0,1,308.54,197.14Z"/><path class="cls-2" d="M305.53,392.9H264.21a7.85,7.85,0,0,0,0,15.7h41.32a7.85,7.85,0,0,0,0-15.7Z"/><path class="cls-2" d="M305.53,348.93H196.88a7.85,7.85,0,0,0,0,15.7H305.53a7.85,7.85,0,0,0,0-15.7Z"/><path class="cls-2" d="M305.53,305H196.88a7.86,7.86,0,0,0,0,15.71H305.53a7.86,7.86,0,0,0,0-15.71Z"/><path class="cls-1" d="M169.61,263.29a7.52,7.52,0,0,0-10.83,0,8,8,0,0,0,0,11.11,7.52,7.52,0,0,0,10.83,0,8,8,0,0,0,0-11.11Z"/><path class="cls-1" d="M169.61,307.26a7.52,7.52,0,0,0-10.83,0,8,8,0,0,0,0,11.1,7.5,7.5,0,0,0,10.83,0,8,8,0,0,0,0-11.1Z"/><path class="cls-1" d="M169.61,351.23a7.52,7.52,0,0,0-10.83,0,8,8,0,0,0,0,11.1,7.52,7.52,0,0,0,10.83,0,8,8,0,0,0,0-11.1Z"/><path class="cls-2" d="M305.53,261H196.88a7.86,7.86,0,0,0,0,15.71H305.53a7.86,7.86,0,0,0,0-15.71Z"/><path class="cls-1" d="M467.94,162.32A31.25,31.25,0,0,0,443.55,159,32,32,0,0,0,424,174.39L327.75,345.53a8,8,0,0,0-1,3.05L320,410.88a7.91,7.91,0,0,0,3.77,7.67,7.46,7.46,0,0,0,3.83,1.06,7.57,7.57,0,0,0,4.54-1.53l49.18-37.18a7.73,7.73,0,0,0,2.09-2.39L479.7,207.37C488.56,191.62,483.28,171.41,467.94,162.32ZM337.14,394.79l3.54-32.53,22.15,13.12ZM374,363.85l-29.16-17.27L422.1,209.25l29.15,17.27Zm92.46-164.33-7.55,13.4-29.15-17.27,7.54-13.41a16.84,16.84,0,0,1,10.22-8.05,16.34,16.34,0,0,1,12.77,1.73,17.12,17.12,0,0,1,7.85,10.49A17.62,17.62,0,0,1,466.45,199.52Z"/><circle class="cls-3" cx="91.53" cy="86.76" r="71"/><path class="cls-2" d="M74.93,57.77A5.57,5.57,0,0,1,77.37,53L89.5,41.33a4.28,4.28,0,0,1,3.15-1.28,6.76,6.76,0,0,1,3.79,1.11,3.42,3.42,0,0,1,1.69,3v77.19a3.34,3.34,0,0,1-1.87,3,9,9,0,0,1-8.68,0,3.35,3.35,0,0,1-1.81-3V56.49l-4.08,5.13a3.56,3.56,0,0,1-2.57,1.17,3.67,3.67,0,0,1-3-1.58A5.44,5.44,0,0,1,74.93,57.77Z"/></g></svg>