<svg xmlns="http://www.w3.org/2000/svg" viewBox="0 0 500 500"><defs><style>.cls-1{fill:#263238;}.cls-2{fill:#0083b0;}.cls-3{fill:#fff;stroke:#263238;stroke-miterlimit:10;stroke-width:12px;}</style></defs><title>payment_icon</title><g id="receive_files"><path class="cls-1" d="M240.52,25.57H412.9C436.67,25.57,456,42.35,456,63V332.29c0,20.63-19.33,37.41-43.1,37.41H257.76v-15H412.9c14.26,0,25.86-10.07,25.86-22.44V63c0-12.38-11.6-22.45-25.86-22.45H240.52c-14.25,0-25.85,10.07-25.85,22.45V279.92H197.43V63C197.43,42.35,216.76,25.57,240.52,25.57Z"/><path class="cls-1" d="M114.76,224.83l84.56-91.71,13.47,9.35-84.55,91.71c-11,11.89-17,26.84-17,42.08V459.47H237.33c44.53,0,80.76-31.45,80.76-70.1V362.21h17.24v27.16c0,46.9-44,85.06-98,85.06H102.62c-4.77,0-8.62-3.35-8.62-7.48V276.27C94,257.65,101.36,239.38,114.76,224.83Z"/><path class="cls-1" d="M309.51,202a24.1,24.1,0,0,0-15.82,6.14L177.85,315,165.3,304.72,281.15,197.88a44.29,44.29,0,0,1,56.31-1.47c.1.08.79.65.87.73,14.73,12.82,15.72,33,2.29,46.85l-74.24,76.08v23.14c0,41.34-29.94,78.84-74.55,93.34l-6.05-14c37.91-12.32,63.37-44.2,63.36-79.33V317.33a6.93,6.93,0,0,1,2.05-4.84l76.25-78.16c7.63-7.88,7.06-19.33-1.73-27A25,25,0,0,0,309.51,202Z"/><rect class="cls-1" x="249.14" y="40.53" width="17.24" height="187.02"/><rect class="cls-1" x="292.24" y="272.44" width="17.24" height="89.77"/><rect class="cls-1" x="292.24" y="33.05" width="17.24" height="164.58"/><rect class="cls-2" x="395.67" y="62.98" width="17.24" height="97.25"/><rect class="cls-2" x="352.57" y="62.98" width="17.24" height="59.85"/><path class="cls-2" d="M352.57,272.44h51.72c4.75,0,8.61,3.35,8.61,7.48v44.89c0,4.14-3.86,7.48-8.61,7.48H352.57c-4.76,0-8.62-3.34-8.62-7.48V279.92C344,275.79,347.81,272.44,352.57,272.44Zm8.62,44.89h34.48V287.41H361.19Z"/><circle class="cls-3" cx="93.65" cy="86.79" r="71"/><path class="cls-2" d="M68.29,119.36v-11.3a16.85,16.85,0,0,1,3.8-10.25,45.33,45.33,0,0,1,9.38-9.08l11.19-8.15a48.55,48.55,0,0,0,9.5-9q3.91-4.89,3.91-9.78a12.6,12.6,0,0,0-3.21-8.55q-3.21-3.66-9.38-3.66A12.37,12.37,0,0,0,85,52.52q-3.25,2.9-3.26,8.56a4,4,0,0,1-1.81,3.25,7.56,7.56,0,0,1-4.72,1.39q-5.6,0-5.6-6.88A18.32,18.32,0,0,1,76.63,44,25.75,25.75,0,0,1,93.48,38.2a25.63,25.63,0,0,1,17.66,6.5,21.46,21.46,0,0,1,7.29,16.8,23.91,23.91,0,0,1-3.91,13.09A40.21,40.21,0,0,1,105.08,85Q99.53,89.2,94,93a68.5,68.5,0,0,0-9.44,7.62q-3.91,3.84-3.91,7.45v4.42h34.28a3.59,3.59,0,0,1,2.86,1.57,6,6,0,0,1,1.22,3.79,6.54,6.54,0,0,1-1.22,3.91,3.46,3.46,0,0,1-2.83,1.69H73.73a6.65,6.65,0,0,1-3.64-1.16A3.41,3.41,0,0,1,68.29,119.36Z"/></g></svg>