<svg xmlns="http://www.w3.org/2000/svg" viewBox="0 0 500 500"><defs><style>.cls-1{fill:#263238;}.cls-2{fill:#0083b0;}</style></defs><title>theme_icon</title><g id="themes"><g id="surface1"><path class="cls-1" d="M90.8,77.53v66.34h13.27V77.53a13.26,13.26,0,0,1,13.26-13.26H382.67a13.26,13.26,0,0,1,13.26,13.26H409.2A26.53,26.53,0,0,0,382.67,51H117.33A26.53,26.53,0,0,0,90.8,77.53Z"/><path class="cls-1" d="M77.53,449H382.67a26.53,26.53,0,0,0,26.53-26.53V395.93H395.93v26.54a13.27,13.27,0,0,1-26.53,0v-19.9a6.63,6.63,0,0,0-6.63-6.64H104.07V263.27H90.8V395.93H57.63A6.63,6.63,0,0,0,51,402.57v19.9A26.53,26.53,0,0,0,77.53,449ZM64.27,409.2H356.13v13.27a26.29,26.29,0,0,0,3.57,13.26H77.53a13.26,13.26,0,0,1-13.26-13.26Z"/><path class="cls-1" d="M57.63,250H190.3a6.63,6.63,0,0,0,6.63-6.63v-79.6a6.63,6.63,0,0,0-6.63-6.64H57.63A6.63,6.63,0,0,0,51,163.77v79.6A6.63,6.63,0,0,0,57.63,250Zm6.64-79.6h119.4v66.33H64.27Z"/><path class="cls-2" d="M92.74,185.61,79.48,198.88a6.63,6.63,0,0,0,0,9.38l13.26,13.26,9.38-9.38-8.57-8.57,8.57-8.58Z"/><path class="cls-2" d="M155.19,185.61,145.81,195l8.58,8.58-8.58,8.57,9.38,9.38,13.27-13.26a6.63,6.63,0,0,0,0-9.38Z"/><path class="cls-2" d="M111,221.37l13.28-39.81,12.59,4.2-13.28,39.8Z"/><path class="cls-1" d="M442.37,90.8H216.83a6.63,6.63,0,0,0-6.63,6.63V230.1a6.63,6.63,0,0,0,6.63,6.63H442.37A6.63,6.63,0,0,0,449,230.1V97.43A6.63,6.63,0,0,0,442.37,90.8Zm-6.64,132.67H223.47V207.32L283,171.58l58.08,37.56a6.63,6.63,0,0,0,6.63.32l48-24.88,40,22.83Zm0-31.33-36.48-20.86a6.61,6.61,0,0,0-6.34-.14L345.1,195.91l-58.3-37.72a6.65,6.65,0,0,0-7-.11l-56.31,33.77V104.07H435.73Z"/><path class="cls-2" d="M366.08,163.77a23.22,23.22,0,1,0-23.21-23.22A23.22,23.22,0,0,0,366.08,163.77Zm0-33.17a10,10,0,1,1-9.95,10A9.94,9.94,0,0,1,366.08,130.6Z"/><path class="cls-1" d="M117.33,269.9v79.6a6.63,6.63,0,0,0,6.64,6.63H289.8a6.63,6.63,0,0,0,6.63-6.63V269.9a6.63,6.63,0,0,0-6.63-6.63H124A6.63,6.63,0,0,0,117.33,269.9Zm13.27,6.63H283.17v66.34H130.6Z"/><path class="cls-2" d="M143.87,289.8H170.4v13.27H143.87Z"/><path class="cls-2" d="M183.67,289.8h59.7v13.27h-59.7Z"/><path class="cls-2" d="M256.63,289.8H269.9v13.27H256.63Z"/><path class="cls-2" d="M143.87,316.33h79.6V329.6h-79.6Z"/><path class="cls-2" d="M236.73,316.33H269.9V329.6H236.73Z"/><path class="cls-2" d="M117.33,77.53H130.6V90.8H117.33Z"/><path class="cls-2" d="M143.87,77.53h13.26V90.8H143.87Z"/><path class="cls-2" d="M170.4,77.53h13.27V90.8H170.4Z"/><path class="cls-2" d="M117.33,104.07h79.6v13.26h-79.6Z"/><path class="cls-1" d="M442.37,289.8h-126a6.63,6.63,0,0,0-6.63,6.63V376a6.63,6.63,0,0,0,6.63,6.64h126A6.63,6.63,0,0,0,449,376v-79.6A6.63,6.63,0,0,0,442.37,289.8Zm-6.64,79.6H323V303.07H435.73Z"/><path class="cls-2" d="M336.23,316.33H349.5V329.6H336.23Z"/><path class="cls-2" d="M336.23,342.87H349.5v13.26H336.23Z"/><path class="cls-2" d="M362.77,316.33h59.7V329.6h-59.7Z"/><path class="cls-2" d="M362.77,342.87h59.7v13.26h-59.7Z"/><path class="cls-1" d="M395.93,250H409.2v26.53H395.93Z"/></g></g></svg>