<svg xmlns="http://www.w3.org/2000/svg" viewBox="0 0 500 500"><defs><style>.cls-1{fill:#263238;}.cls-2{fill:#0083b0;}.cls-3{fill:#00b4db;}</style></defs><title>ui_icon</title><g id="UI"><path class="cls-1" d="M439.3,60.89H60.7A7.69,7.69,0,0,0,53,68.58v79.16a7.7,7.7,0,0,0,7.7,7.69H439.3a7.7,7.7,0,0,0,7.7-7.69V68.58A7.69,7.69,0,0,0,439.3,60.89ZM431.61,140H68.39V76.28H431.61Z"/><path class="cls-2" d="M414.22,122.56l-6.28-6.28a24.57,24.57,0,1,0-10.88,10.88l6.28,6.28a7.69,7.69,0,0,0,10.88-10.88ZM392.49,111.7a9.2,9.2,0,1,1,2.69-6.5A9.15,9.15,0,0,1,392.49,111.7Z"/><path class="cls-2" d="M328.75,120.59a7.26,7.26,0,0,0-.44-1.44,8,8,0,0,0-.7-1.33,7.21,7.21,0,0,0-1-1.17,6.8,6.8,0,0,0-1.17-1,7.64,7.64,0,0,0-1.33-.7,7.06,7.06,0,0,0-1.44-.44,7.63,7.63,0,0,0-3,0,7.47,7.47,0,0,0-1.44.44,7.73,7.73,0,0,0-2.5,1.66,7.71,7.71,0,0,0-.95,1.17,7.38,7.38,0,0,0-.71,1.33,8,8,0,0,0-.44,1.44,8.16,8.16,0,0,0,0,3,8.24,8.24,0,0,0,.44,1.44,8.12,8.12,0,0,0,.71,1.33,8.83,8.83,0,0,0,.95,1.17,8.92,8.92,0,0,0,1.18,1,7.64,7.64,0,0,0,1.32.71,8.51,8.51,0,0,0,1.44.44,7.72,7.72,0,0,0,1.51.14,7.55,7.55,0,0,0,1.5-.14,7.75,7.75,0,0,0,1.44-.44,7.38,7.38,0,0,0,1.33-.71,7.25,7.25,0,0,0,1.17-1,7.79,7.79,0,0,0,2.26-5.44A7.67,7.67,0,0,0,328.75,120.59Z"/><path class="cls-2" d="M292,114.4H132.1a7.7,7.7,0,0,0,0,15.39H292a7.7,7.7,0,0,0,0-15.39Z"/><path class="cls-1" d="M295.26,166.4H61.6a7.69,7.69,0,0,0-7.69,7.7V325.85a7.69,7.69,0,0,0,7.69,7.69H295.26a7.69,7.69,0,0,0,7.7-7.69V174.1A7.7,7.7,0,0,0,295.26,166.4ZM146.73,318.15H81.41l44-50.93,31.86,36.89Zm19.24,0L180.32,299h37.31a7.7,7.7,0,1,0,0-15.39H191.86l5.4-7.2h48.32l31.29,41.72ZM208.8,261l12.62-16.82L234,261Zm78.77,45.72-60-80a7.71,7.71,0,0,0-12.31,0l-48.55,64.74-35.49-41.1a7.71,7.71,0,0,0-11.65,0L69.3,308.63V181.79H287.57Z"/><path class="cls-2" d="M158.92,190.63a27.19,27.19,0,1,0,27.21,27.18A27.22,27.22,0,0,0,158.92,190.63Zm0,39a11.81,11.81,0,1,1,11.82-11.81A11.83,11.83,0,0,1,158.92,229.62Z"/><path class="cls-1" d="M439.3,166.4H321a7.7,7.7,0,0,0-7.7,7.7V325.85a7.69,7.69,0,0,0,7.7,7.69H439.3a7.69,7.69,0,0,0,7.7-7.69V174.1A7.7,7.7,0,0,0,439.3,166.4Zm-7.69,151.75H328.73V181.79H431.61Z"/><path class="cls-2" d="M413.69,194.47h-67a7.7,7.7,0,1,0,0,15.39h67a7.7,7.7,0,1,0,0-15.39Z"/><path class="cls-2" d="M413.69,225.35h-67a7.7,7.7,0,1,0,0,15.39h67a7.7,7.7,0,1,0,0-15.39Z"/><path class="cls-2" d="M413.69,256.23h-67a7.7,7.7,0,1,0,0,15.4h67a7.7,7.7,0,0,0,0-15.4Z"/><path class="cls-3" d="M354.19,293.31a8,8,0,0,0-.43-1.44,9.42,9.42,0,0,0-.71-1.33,7.69,7.69,0,0,0-7.91-3.27,7.17,7.17,0,0,0-1.43.44,8.54,8.54,0,0,0-1.34.7,8.91,8.91,0,0,0-1.17,1,7.88,7.88,0,0,0-1.66,2.5,8,8,0,0,0-.44,1.44,7.63,7.63,0,0,0,0,3,8,8,0,0,0,.44,1.44,7.73,7.73,0,0,0,.71,1.33,8.83,8.83,0,0,0,.95,1.17,8.1,8.1,0,0,0,1.17.95,8,8,0,0,0,2.77,1.15,7.66,7.66,0,0,0,1.51.15,7.76,7.76,0,0,0,5.44-2.25,9.79,9.79,0,0,0,1-1.17,10,10,0,0,0,.71-1.33,8.2,8.2,0,0,0,.43-1.44,7.63,7.63,0,0,0,0-3Z"/><path class="cls-2" d="M413.69,287.12H375.82a7.7,7.7,0,0,0,0,15.39h37.87a7.7,7.7,0,1,0,0-15.39Z"/><path class="cls-1" d="M179.87,344.46H61.6a7.69,7.69,0,0,0-7.69,7.69v79.27a7.69,7.69,0,0,0,7.69,7.69H179.87a7.69,7.69,0,0,0,7.7-7.69V352.15A7.7,7.7,0,0,0,179.87,344.46Zm-7.69,79.26H69.3V359.85H172.18Z"/><path class="cls-1" d="M439.3,344.46H206.7a7.7,7.7,0,0,0-7.7,7.69v79.27a7.69,7.69,0,0,0,7.7,7.69H439.3a7.69,7.69,0,0,0,7.7-7.69V352.15A7.7,7.7,0,0,0,439.3,344.46Zm-7.69,79.26H214.39V359.85H431.61v63.87Z"/><path class="cls-2" d="M249.45,390.29a7.79,7.79,0,0,0-1.15-2.77,7.25,7.25,0,0,0-1-1.17,7.66,7.66,0,0,0-1.17-1,9,9,0,0,0-1.34-.71,7.89,7.89,0,0,0-1.43-.44,7.63,7.63,0,0,0-3,0,8.24,8.24,0,0,0-1.44.44,9.42,9.42,0,0,0-1.33.71,7.66,7.66,0,0,0-1.17,1,7.88,7.88,0,0,0-1,1.17,8.43,8.43,0,0,0-.71,1.33,7.72,7.72,0,0,0-.43,1.44,7.57,7.57,0,0,0,0,3,8.2,8.2,0,0,0,.43,1.44,9.42,9.42,0,0,0,.71,1.33,9.06,9.06,0,0,0,1,1.17,7.78,7.78,0,0,0,5.44,2.25,8.57,8.57,0,0,0,1.51-.14,7.92,7.92,0,0,0,1.43-.45,6.88,6.88,0,0,0,1.34-.71,7.3,7.3,0,0,0,2.12-2.12,8.07,8.07,0,0,0,.71-1.33,8.24,8.24,0,0,0,.44-1.44,7.58,7.58,0,0,0,0-3Z"/><path class="cls-2" d="M400.3,384.09H271.08a7.7,7.7,0,1,0,0,15.39H400.3a7.7,7.7,0,1,0,0-15.39Z"/></g></svg>