<svg id="UX" xmlns="http://www.w3.org/2000/svg" viewBox="0 0 500 500"><defs><style>.cls-1{fill:#0083b0;}.cls-2{fill:#263238;}</style></defs><title>ux_icon</title><path class="cls-1" d="M57.25,113.91a6.69,6.69,0,1,0-4.73-2A6.71,6.71,0,0,0,57.25,113.91Z"/><path class="cls-1" d="M78.67,113.91a6.71,6.71,0,1,0-4.73-2A6.68,6.68,0,0,0,78.67,113.91Z"/><path class="cls-1" d="M100.08,113.91a6.69,6.69,0,1,0-4.73-2A6.71,6.71,0,0,0,100.08,113.91Z"/><path class="cls-1" d="M128.64,113.91H399.92a6.69,6.69,0,0,0,0-13.38H128.64a6.69,6.69,0,1,0,0,13.38Z"/><path class="cls-1" d="M428.47,113.91h14.28a6.69,6.69,0,0,0,0-13.38H428.47a6.69,6.69,0,0,0,0,13.38Z"/><path class="cls-1" d="M414.2,171.92H285.69a21,21,0,0,0-21,21v.44h-7.58a21,21,0,0,0-21,21v57.55H221V250a21,21,0,0,0-21-21H85.8a21,21,0,0,0-21,21v57.11a21,21,0,0,0,21,21H200a21,21,0,0,0,21-21V285.25h15.17v57.56a21,21,0,0,0,21,21h7.58v.44a21,21,0,0,0,21,21H414.2a21,21,0,0,0,21-21V350a21,21,0,0,0-21-21H285.69a21,21,0,0,0-21,21v.44h-7.58a7.6,7.6,0,0,1-7.59-7.58V285.25h15.17v.44a21,21,0,0,0,21,21H414.2a21,21,0,0,0,21-21V271.42a21,21,0,0,0-21-21H285.69a21,21,0,0,0-21,21v.44H249.55V214.31a7.6,7.6,0,0,1,7.59-7.59h7.58v.45a21,21,0,0,0,21,21H414.2a21,21,0,0,0,21-21V192.89A21,21,0,0,0,414.2,171.92ZM207.61,307.11A7.6,7.6,0,0,1,200,314.7H85.8a7.6,7.6,0,0,1-7.58-7.59V250a7.6,7.6,0,0,1,7.58-7.59H200a7.6,7.6,0,0,1,7.58,7.59ZM278.11,350a7.59,7.59,0,0,1,7.58-7.59H414.2a7.59,7.59,0,0,1,7.58,7.59v14.27a7.59,7.59,0,0,1-7.58,7.59H285.69a7.59,7.59,0,0,1-7.58-7.59Zm0-78.53a7.59,7.59,0,0,1,7.58-7.59H414.2a7.59,7.59,0,0,1,7.58,7.59v14.27a7.59,7.59,0,0,1-7.58,7.59H285.69a7.59,7.59,0,0,1-7.58-7.59Zm143.67-64.25a7.59,7.59,0,0,1-7.58,7.58H285.69a7.59,7.59,0,0,1-7.58-7.58V192.89a7.6,7.6,0,0,1,7.58-7.59H414.2a7.6,7.6,0,0,1,7.58,7.59Z"/><path class="cls-2" d="M442.75,72H57.25A35.29,35.29,0,0,0,22,107.22V392.78A35.29,35.29,0,0,0,57.25,428h385.5A35.29,35.29,0,0,0,478,392.78V107.22A35.29,35.29,0,0,0,442.75,72ZM57.25,85.36h385.5a21.88,21.88,0,0,1,21.86,21.86v21.86H35.39V107.22A21.88,21.88,0,0,1,57.25,85.36Zm385.5,329.28H57.25a21.88,21.88,0,0,1-21.86-21.86V142.47H464.61V392.78A21.88,21.88,0,0,1,442.75,414.64Z"/></svg>