<svg xmlns="http://www.w3.org/2000/svg" viewBox="0 0 500 500"><defs><style>.cls-1{fill:#0083b0;}.cls-2{fill:#263238;}</style></defs><title>wordpress_icon</title><g id="Wordpress"><path class="cls-1" d="M164.39,168.09H140.75l64.44,182.15,36.07-103.09-28-79.06H188.36V150.73H298.79v17.36H272.93l64.43,182.15,23.17-66.19c30.38-84.81-24.91-111.22-24.91-130.15a34.27,34.27,0,0,1,34.27-34.27c1,0,2,.06,3,.15A179.05,179.05,0,0,0,101,150.73h63.43v17.36Z"/><path class="cls-1" d="M70.94,250a179,179,0,0,0,95.11,158.19L85.25,179.77A178.36,178.36,0,0,0,70.94,250Z"/><path class="cls-1" d="M405.83,161.77c2.56,15.08,1.79,32-2.14,49h.71l-2.71,7.74h0a163.69,163.69,0,0,1-5.92,16.91L334.16,408.07a179.12,179.12,0,0,0,71.67-246.3Z"/><path class="cls-1" d="M194.78,420.37a179.91,179.91,0,0,0,108,.77L250.44,273.08Z"/><path class="cls-2" d="M401.32,98.68A214,214,0,1,0,98.68,401.32,214,214,0,1,0,401.32,98.68ZM250,448.9C140.32,448.9,51.1,359.68,51.1,250S140.32,51.1,250,51.1,448.9,140.32,448.9,250,359.68,448.9,250,448.9Z"/></g></svg>