<svg xmlns="http://www.w3.org/2000/svg" viewBox="0 0 500 500"><defs><style>.cls-1{fill:#263238;}.cls-2{fill:#0083b0;}.cls-3{fill:#fff;stroke:#263238;stroke-miterlimit:10;stroke-width:12px;}</style></defs><title>zip_icon</title><g id="receive_files"><path class="cls-1" d="M406.1,126.47,400.63,121h0L329,49.37h0l-5.45-5.45A13.41,13.41,0,0,0,314.08,40h-206c-8.41,0-17.48,6.5-17.48,20.76V437.32c0,5.95,6,11.74,13.05,13.55.36.09.69.23,1,.3a17.53,17.53,0,0,0,3.38.34H392.52a17.28,17.28,0,0,0,3.37-.34c.36-.07.7-.21,1.05-.3,7.08-1.81,13.06-7.6,13.06-13.55V139.17C410,133.75,409.35,129.72,406.1,126.47ZM324.84,65.29l59.86,59.85H324.84Zm-216.73,372a3.9,3.9,0,0,1-1.4-.35,3.26,3.26,0,0,1-1.88-2.93V330.9h291V434a3.27,3.27,0,0,1-1.88,2.93,4,4,0,0,1-1.41.35Zm-3.28-120.61V60.76c0-1.54.23-6.57,3.28-6.57H311.05a11.11,11.11,0,0,0-.41,2.78v82.36H393a11.1,11.1,0,0,0,2.77-.41c0,.1,0,.14,0,.25V316.71Z"/><polygon class="cls-2" points="183.36 361.05 219.46 361.05 217.42 362.6 183.36 413.72 183.36 423.13 230.91 423.13 230.91 413.72 194.91 413.72 196.85 412.17 230.91 361.05 230.91 351.64 183.36 351.64 183.36 361.05"/><rect class="cls-2" x="247.51" y="351.64" width="11.84" height="71.49"/><path class="cls-2" d="M314.69,357.46a24.23,24.23,0,0,0-8-4.36,28.67,28.67,0,0,0-9-1.46H277.1v71.49h11.65v-25.8h8.63a30.64,30.64,0,0,0,10.29-1.65,23.18,23.18,0,0,0,7.95-4.65,20.72,20.72,0,0,0,5.15-7.43,25.26,25.26,0,0,0,1.84-9.84,19.57,19.57,0,0,0-2.18-9.27A22.79,22.79,0,0,0,314.69,357.46Zm-4.41,23.62a11.78,11.78,0,0,1-2.81,4.6,10.58,10.58,0,0,1-3.83,2.38,12.93,12.93,0,0,1-4.23.73H288.74V360.47h8.73a15.81,15.81,0,0,1,7.18,1.4,11.46,11.46,0,0,1,6.21,7.86,19.81,19.81,0,0,1,.48,4A21.55,21.55,0,0,1,310.28,381.08Z"/><path class="cls-2" d="M253.86,203.19h14.2V189h-14.2V174.81h14.2V160.62h-14.2V146.43h14.2V132.24h-14.2V118.05h14.2V103.86h-14.2V89.67H239.67v14.19H225.48v14.19h14.19v14.19H225.48v14.19h14.19v14.19H225.48v14.19h14.19V189H225.48v14.19h14.19v14.19H211.28v35.47a35.49,35.49,0,0,0,71,0V217.38H253.86Zm14.2,49.66a21.29,21.29,0,1,1-42.58,0V231.57h42.58Z"/><path class="cls-2" d="M239.67,260h14.19a7.1,7.1,0,1,0,0-14.19H239.67a7.1,7.1,0,1,0,0,14.19Z"/><circle class="cls-3" cx="93.04" cy="90" r="71"/><path class="cls-2" d="M63.41,105.48a5.26,5.26,0,0,1,.7-2.56L92.32,47.37A5.7,5.7,0,0,1,97.68,44a7.4,7.4,0,0,1,4.09,1.4,4,4,0,0,1,2.09,3.38,4.49,4.49,0,0,1-.58,1.87l-24,47.92H96.4V82.37q0-4.09,6.18-4.1A8.45,8.45,0,0,1,107,79.33a3.32,3.32,0,0,1,1.81,3V98.56h5.71a3.46,3.46,0,0,1,3.09,1.73,7.31,7.31,0,0,1,1.11,4,6.52,6.52,0,0,1-1.28,3.86,3.61,3.61,0,0,1-2.92,1.79h-5.71v15.14a3.37,3.37,0,0,1-1.86,3,8.32,8.32,0,0,1-4.32,1.11,8.18,8.18,0,0,1-4.37-1.11,3.37,3.37,0,0,1-1.81-3V110H67.72a4.21,4.21,0,0,1-3.09-1.21A4.4,4.4,0,0,1,63.41,105.48Z"/></g></svg>