<svg xmlns="http://www.w3.org/2000/svg" viewBox="0 0 245 252"><defs><style>.cls-1{fill:#424c59;}.cls-2{fill:#eaeaea;}.cls-3{fill:#f9572b;}.cls-4{fill:#fcc63d;}.cls-5{fill:#45b8c4;}.cls-6{fill:#00acc1;}.cls-7{fill:#fff;}</style></defs><title>coding_icon</title><g id="coding_icon"><path class="cls-1" d="M195,19.18V234.77A16.24,16.24,0,0,1,178.77,251H19.23A16.23,16.23,0,0,1,3,234.77V19.18A16.24,16.24,0,0,1,19.23,2.94H178.77A16.24,16.24,0,0,1,195,19.18Z"/><path class="cls-2" d="M195,19.18V44.67H3V19.18A16.24,16.24,0,0,1,19.24,2.94H178.77A16.24,16.24,0,0,1,195,19.18Z"/><circle class="cls-3" cx="28.86" cy="23.4" r="8.36"/><circle class="cls-4" cx="57.02" cy="23.4" r="8.36"/><circle class="cls-5" cx="85.17" cy="23.4" r="8.36"/><circle class="cls-6" cx="194.37" cy="79.76" r="48.12"/><path class="cls-4" d="M127.52,78.29H43.18a3.8,3.8,0,0,1,0-7.6h84.34a3.8,3.8,0,1,1,0,7.6Z"/><path class="cls-7" d="M26.22,78.29a3.8,3.8,0,1,1,3.72-3.05A3.82,3.82,0,0,1,26.22,78.29Z"/><path class="cls-4" d="M127.52,120.74H43.18a3.8,3.8,0,0,1,0-7.59h84.34a3.8,3.8,0,1,1,0,7.59Z"/><path class="cls-7" d="M26.22,120.74A3.8,3.8,0,1,1,30,117.32,3.83,3.83,0,0,1,26.22,120.74Z"/><path class="cls-7" d="M161.71,142h-23.8a3.8,3.8,0,1,1,0-7.6h23.8a3.8,3.8,0,0,1,0,7.6Z"/><path class="cls-3" d="M125.24,142H80.92a3.8,3.8,0,1,1,0-7.6h44.32a3.8,3.8,0,1,1,0,7.6Z"/><path class="cls-7" d="M68.26,142H43.18a3.8,3.8,0,0,1,0-7.6H68.26a3.8,3.8,0,0,1,0,7.6Z"/><path class="cls-7" d="M26.22,142A3.8,3.8,0,1,1,30,138.64,3.83,3.83,0,0,1,26.22,142Z"/><path class="cls-4" d="M104.73,163.2H43.18a3.8,3.8,0,0,1,0-7.6h61.55a3.8,3.8,0,0,1,0,7.6Z"/><path class="cls-7" d="M26.22,163.19a3.8,3.8,0,1,1,3.7-2.94A3.83,3.83,0,0,1,26.22,163.19Z"/><path class="cls-3" d="M142.72,184.42H131.07a3.8,3.8,0,0,1,0-7.6h11.65a3.8,3.8,0,1,1,0,7.6Z"/><path class="cls-4" d="M118.41,184.42H84.72a3.8,3.8,0,1,1,0-7.6h33.69a3.8,3.8,0,0,1,0,7.6Z"/><path class="cls-7" d="M72.06,184.42H43.18a3.8,3.8,0,0,1,0-7.6H72.06a3.8,3.8,0,1,1,0,7.6Z"/><path class="cls-7" d="M26.22,184.42A3.8,3.8,0,1,1,30,181.09,3.83,3.83,0,0,1,26.22,184.42Z"/><path class="cls-7" d="M160.19,205.65H106a3.8,3.8,0,1,1,0-7.6h54.19a3.8,3.8,0,1,1,0,7.6Z"/><path class="cls-3" d="M93.33,205.65H43.18a3.8,3.8,0,0,1,0-7.6H93.33a3.8,3.8,0,0,1,0,7.6Z"/><path class="cls-7" d="M26.22,205.65A3.8,3.8,0,1,1,30,202.22,3.84,3.84,0,0,1,26.22,205.65Z"/><path class="cls-3" d="M68.26,226.87H43.18a3.8,3.8,0,0,1,0-7.6H68.26a3.8,3.8,0,0,1,0,7.6Z"/><path class="cls-7" d="M26.22,226.87a3.8,3.8,0,1,1,3.72-3.06A3.82,3.82,0,0,1,26.22,226.87Z"/><path class="cls-3" d="M62.18,99.52h-19a3.8,3.8,0,0,1,0-7.6h19a3.8,3.8,0,1,1,0,7.6Z"/><path class="cls-7" d="M112.33,99.52H75.86a3.8,3.8,0,0,1,0-7.6h36.47a3.8,3.8,0,0,1,0,7.6Z"/><path class="cls-7" d="M26.22,99.52a3.8,3.8,0,1,1,3.72-3.06A3.85,3.85,0,0,1,26.22,99.52Z"/><path class="cls-7" d="M192.09,105.21a3.82,3.82,0,0,1-2.74-1.17l-18.23-19a3.8,3.8,0,1,1,5.48-5.26L191.19,95l20.34-38.65a3.8,3.8,0,1,1,6.72,3.54l-22.79,43.31a3.81,3.81,0,0,1-2.84,2A3.08,3.08,0,0,1,192.09,105.21Z"/></g></svg>