<svg xmlns="http://www.w3.org/2000/svg" viewBox="0 0 117 117"><defs><style>.cls-1{fill:#e6e9ed;}.cls-2{fill:#424c59;}.cls-3{fill:#eaeaea;}.cls-4{fill:#f9572b;}.cls-5{fill:#fcc63d;}.cls-6{fill:#45b8c4;}.cls-7{fill:#00acc1;}.cls-8{fill:#fff;}</style></defs><title>coding</title><g id="skils"><circle class="cls-1" cx="58.5" cy="58.5" r="58.1"/><path class="cls-2" d="M81.64,24V93a5.19,5.19,0,0,1-5.2,5.19H25.36A5.19,5.19,0,0,1,20.16,93V24a5.19,5.19,0,0,1,5.2-5.19H76.44A5.19,5.19,0,0,1,81.64,24Z"/><path class="cls-3" d="M81.64,24v8.17H20.16V24a5.19,5.19,0,0,1,5.2-5.19H76.44A5.19,5.19,0,0,1,81.64,24Z"/><circle class="cls-4" cx="28.44" cy="25.34" r="2.68"/><circle class="cls-5" cx="37.45" cy="25.34" r="2.68"/><circle class="cls-6" cx="46.47" cy="25.34" r="2.68"/><circle class="cls-7" cx="81.43" cy="43.38" r="15.41"/><path class="cls-5" d="M60,42.91H33a1.22,1.22,0,0,1,0-2.43H60a1.22,1.22,0,1,1,0,2.43Z"/><path class="cls-8" d="M27.59,42.91a1.21,1.21,0,1,1,1.19-1A1.22,1.22,0,0,1,27.59,42.91Z"/><path class="cls-5" d="M60,56.51H33a1.22,1.22,0,0,1,0-2.44H60a1.22,1.22,0,0,1,0,2.44Z"/><path class="cls-8" d="M27.59,56.51a1.22,1.22,0,1,1,1.21-1.1A1.23,1.23,0,0,1,27.59,56.51Z"/><path class="cls-8" d="M71,63.3H63.35a1.22,1.22,0,0,1,0-2.43H71a1.22,1.22,0,0,1,0,2.43Z"/><path class="cls-4" d="M59.3,63.3H45.11a1.22,1.22,0,1,1,0-2.43H59.3a1.22,1.22,0,1,1,0,2.43Z"/><path class="cls-8" d="M41.05,63.3H33a1.22,1.22,0,0,1,0-2.43h8a1.22,1.22,0,1,1,0,2.43Z"/><path class="cls-8" d="M27.59,63.3a1.22,1.22,0,1,1,1.21-1.06A1.22,1.22,0,0,1,27.59,63.3Z"/><path class="cls-5" d="M52.73,70.1H33a1.22,1.22,0,0,1,0-2.43H52.73a1.22,1.22,0,1,1,0,2.43Z"/><path class="cls-8" d="M27.59,70.1a1.21,1.21,0,0,1-1.12-.75,1.22,1.22,0,1,1,2.31-.19A1.24,1.24,0,0,1,27.59,70.1Z"/><path class="cls-4" d="M64.89,76.9H61.16a1.22,1.22,0,0,1,0-2.44h3.73a1.22,1.22,0,0,1,0,2.44Z"/><path class="cls-5" d="M57.11,76.9H46.32a1.22,1.22,0,0,1,0-2.44H57.11a1.22,1.22,0,0,1,0,2.44Z"/><path class="cls-8" d="M42.27,76.9H33a1.22,1.22,0,0,1,0-2.44h9.25a1.22,1.22,0,1,1,0,2.44Z"/><path class="cls-8" d="M27.59,76.89a1.22,1.22,0,1,1,1.21-1.06A1.22,1.22,0,0,1,27.59,76.89Z"/><path class="cls-8" d="M70.49,83.69H53.14a1.22,1.22,0,1,1,0-2.43H70.49a1.22,1.22,0,1,1,0,2.43Z"/><path class="cls-4" d="M49.08,83.69H33a1.22,1.22,0,0,1,0-2.43H49.08a1.22,1.22,0,1,1,0,2.43Z"/><path class="cls-8" d="M27.59,83.69a1.22,1.22,0,1,1,1.21-1.1A1.23,1.23,0,0,1,27.59,83.69Z"/><path class="cls-4" d="M41.05,90.49H33a1.22,1.22,0,0,1,0-2.43h8a1.22,1.22,0,1,1,0,2.43Z"/><path class="cls-8" d="M27.59,90.49a1.22,1.22,0,1,1,1.19-1A1.22,1.22,0,0,1,27.59,90.49Z"/><path class="cls-4" d="M39.11,49.71H33a1.22,1.22,0,0,1,0-2.43h6.09a1.22,1.22,0,0,1,0,2.43Z"/><path class="cls-8" d="M55.16,49.71H43.49a1.22,1.22,0,1,1,0-2.43H55.16a1.21,1.21,0,0,1,1.22,1.21A1.22,1.22,0,0,1,55.16,49.71Z"/><path class="cls-8" d="M27.59,49.71a1.22,1.22,0,1,1,1.19-1A1.23,1.23,0,0,1,27.59,49.71Z"/><path class="cls-8" d="M80.7,51.53a1.21,1.21,0,0,1-.87-.37L74,45.08a1.22,1.22,0,0,1,1.75-1.69l4.67,4.87,6.52-12.38A1.22,1.22,0,1,1,89.08,37l-7.3,13.86a1.2,1.2,0,0,1-.91.64Z"/></g></svg>