<svg xmlns="http://www.w3.org/2000/svg" viewBox="0 0 252 252"><defs><style>.cls-1{fill:#2ecc71;}.cls-2{fill:#00b4db;}.cls-3{fill:#0083b0;}</style></defs><title>Other_services_icon</title><g id="coding_icon"><path class="cls-1" d="M204,131.41c-10.58,0-12.07,8-12.07,15.1a167.48,167.48,0,0,0,1.19,17.15,160.91,160.91,0,0,1,1.19,16.94c0,18.78-8.94,26.74-21.6,26.74h-3.13V196.12h2.68c8.79,0,11.77-6.54,11.77-17.56a122.76,122.76,0,0,0-1-14.49,128.73,128.73,0,0,1-1-15.51c-.15-13.07,4-19.6,10.73-22v-.41c-6.71-2.24-10.88-9.18-10.73-22.25a126,126,0,0,1,1-15.51,126.11,126.11,0,0,0,1-14.7c0-11.43-3.43-17.76-11.77-17.76h-2.68V44.66h3.13c12.36,0,21.6,7.35,21.6,28a157,157,0,0,1-1.19,16.74,155.68,155.68,0,0,0-1.19,16.53c0,6.33,1.49,15.11,12.07,15.11Z"/><path class="cls-1" d="M48,121c10.58,0,12.07-8.78,12.07-15.11a155.68,155.68,0,0,0-1.19-16.53,157,157,0,0,1-1.19-16.74c0-20.61,9.38-28,21.6-28h3.13V55.88H79.89C71.54,56.09,68,62.21,68,73.64c0,4.9.59,9.6,1,14.7a125.1,125.1,0,0,1,1.19,15.51c0,13.07-4.17,20-10.73,22.25v.41c6.56,2.45,10.73,9,10.73,22A128.19,128.19,0,0,1,69,164.07c-.45,4.9-1,9.8-1,14.49,0,11,3.13,17.35,11.77,17.56h2.68v11.22h-3c-12.66,0-21.75-8-21.75-26.74a160.91,160.91,0,0,1,1.19-16.94,167.48,167.48,0,0,0,1.19-17.15c0-7.14-1.49-15.1-12.07-15.1Z"/><path class="cls-2" d="M150.86,82.59H90.07a2.74,2.74,0,1,1,0-5.48h60.79a2.74,2.74,0,0,1,0,5.48Z"/><path class="cls-3" d="M77.84,82.58a2.74,2.74,0,1,1,2.69-2.2A2.76,2.76,0,0,1,77.84,82.58Z"/><path class="cls-2" d="M150.86,113.19H90.07a2.74,2.74,0,1,1,0-5.48h60.79a2.74,2.74,0,0,1,0,5.48Z"/><path class="cls-3" d="M77.84,113.19a2.74,2.74,0,1,1,2.73-2.47A2.77,2.77,0,0,1,77.84,113.19Z"/><path class="cls-3" d="M175.51,128.49H158.35a2.74,2.74,0,1,1,0-5.48h17.16a2.74,2.74,0,1,1,0,5.48Z"/><path class="cls-2" d="M149.22,128.49H117.27a2.74,2.74,0,1,1,0-5.48h32a2.74,2.74,0,1,1,0,5.48Z"/><path class="cls-3" d="M108.14,128.49H90.07a2.74,2.74,0,1,1,0-5.48h18.07a2.74,2.74,0,0,1,0,5.48Z"/><path class="cls-3" d="M77.84,128.49a2.74,2.74,0,1,1,2.72-2.4A2.76,2.76,0,0,1,77.84,128.49Z"/><path class="cls-2" d="M134.43,143.79H90.07a2.74,2.74,0,0,1,0-5.48h44.36a2.74,2.74,0,0,1,0,5.48Z"/><path class="cls-3" d="M77.84,143.79a2.74,2.74,0,1,1,2.67-2.12A2.77,2.77,0,0,1,77.84,143.79Z"/><path class="cls-2" d="M161.82,159.09h-8.4a2.74,2.74,0,1,1,0-5.48h8.4a2.74,2.74,0,1,1,0,5.48Z"/><path class="cls-2" d="M144.29,159.09H120a2.74,2.74,0,0,1,0-5.48h24.28a2.74,2.74,0,1,1,0,5.48Z"/><path class="cls-3" d="M110.88,159.09H90.07a2.74,2.74,0,1,1,0-5.48h20.81a2.74,2.74,0,1,1,0,5.48Z"/><path class="cls-3" d="M77.84,159.08a2.74,2.74,0,1,1,2.72-2.39A2.76,2.76,0,0,1,77.84,159.08Z"/><path class="cls-3" d="M174.41,174.39H135.35a2.74,2.74,0,1,1,0-5.48h39.06a2.74,2.74,0,0,1,0,5.48Z"/><path class="cls-2" d="M126.31,174.89h-35a2.65,2.65,0,0,1,0-5.3h35a2.65,2.65,0,0,1,0,5.3Z"/><path class="cls-3" d="M77.84,174.39a2.74,2.74,0,1,1,2.73-2.47A2.76,2.76,0,0,1,77.84,174.39Z"/><path class="cls-2" d="M103.76,97.89H90.07a2.74,2.74,0,0,1,0-5.48h13.69a2.74,2.74,0,0,1,0,5.48Z"/><path class="cls-3" d="M139.91,97.89H113.62a2.74,2.74,0,0,1,0-5.48h26.29a2.74,2.74,0,0,1,0,5.48Z"/><path class="cls-3" d="M77.84,97.89a2.74,2.74,0,1,1,2.69-2.21A2.75,2.75,0,0,1,77.84,97.89Z"/></g></svg>