<svg id="coding_icon" xmlns="http://www.w3.org/2000/svg" xmlns:xlink="http://www.w3.org/1999/xlink" viewBox="0 0 242 154"><defs><style>.cls-1{fill:url(#linear-gradient);}.cls-2{fill:#434a54;}.cls-3{fill:url(#New_Gradient_Swatch_1);}.cls-4{fill:#ccd1d9;stroke:#434a54;stroke-linejoin:round;stroke-width:2px;}.cls-5{fill:#656d78;}.cls-6{fill:#039be5;}.cls-7{fill:#00acc1;}</style><linearGradient id="linear-gradient" x1="120.41" y1="119.94" x2="120.98" y2="153.62" gradientUnits="userSpaceOnUse"><stop offset="0"/><stop offset="0.04" stop-color="#141619"/><stop offset="0.08" stop-color="#25292f"/><stop offset="0.13" stop-color="#333840"/><stop offset="0.19" stop-color="#3c424b"/><stop offset="0.28" stop-color="#424852"/><stop offset="0.53" stop-color="#434a54"/><stop offset="0.64" stop-color="#404750"/><stop offset="0.74" stop-color="#373d45"/><stop offset="0.84" stop-color="#282c32"/><stop offset="0.93" stop-color="#131518"/><stop offset="1"/></linearGradient><linearGradient id="New_Gradient_Swatch_1" x1="18.64" y1="15.65" x2="231.62" y2="115.01" gradientUnits="userSpaceOnUse"><stop offset="0" stop-color="#039be5"/><stop offset="0.52" stop-color="#01a4d2"/><stop offset="1" stop-color="#00acc1"/></linearGradient></defs><title>coding_computer_icon</title><path id="stand" class="cls-1" d="M170.34,149,146,138.2a1.36,1.36,0,0,1-.79-.94l-2.82-12a1.39,1.39,0,0,0-1.35-1.07H101.18a1.39,1.39,0,0,0-1.35,1.07l-2.82,12a1.37,1.37,0,0,1-.78.94L71,149.34h99.8A1.29,1.29,0,0,0,170.34,149Zm-46.57-10.39a1.63,1.63,0,0,1-1.63,1.62h-2.46a1.62,1.62,0,0,1-1.62-1.62v-8.18a1.62,1.62,0,0,1,1.62-1.62h2.46a1.63,1.63,0,0,1,1.63,1.62Z"/><rect id="foot" class="cls-2" x="70.67" y="148.2" width="100.48" height="5.71" rx="0.85" ry="0.85"/><g id="screen"><rect class="cls-3" x="4.32" y="4.12" width="233.18" height="118.49" rx="4.25" ry="4.25"/><path class="cls-2" d="M233.25,6.62A1.75,1.75,0,0,1,235,8.37v110a1.75,1.75,0,0,1-1.75,1.75H8.57a1.75,1.75,0,0,1-1.75-1.75V8.37A1.75,1.75,0,0,1,8.57,6.62H233.25m0-5H8.57A6.75,6.75,0,0,0,1.82,8.37v110a6.75,6.75,0,0,0,6.75,6.75H233.25a6.75,6.75,0,0,0,6.75-6.75V8.37a6.75,6.75,0,0,0-6.75-6.75Z"/></g><rect id="terwindo" class="cls-4" x="128.76" y="23.75" width="92.89" height="89.06" rx="3.12" ry="3.12"/><rect id="top" class="cls-2" x="128.76" y="23.75" width="92.89" height="7.99" rx="0.69" ry="0.69"/><ellipse id="btn1" class="cls-5" cx="200.4" cy="27.17" rx="2.36" ry="2.28"/><ellipse id="btn3" class="cls-5" cx="214.57" cy="27.17" rx="2.36" ry="2.28"/><ellipse id="btn2" class="cls-5" cx="207.48" cy="27.17" rx="2.36" ry="2.28"/><path id="bracket2" class="cls-6" d="M167.59,96.09l-2.05,4.68q-13.06-2.62-13.06-9.32a32,32,0,0,1,1.32-7.13A35.21,35.21,0,0,0,155.11,78a3.37,3.37,0,0,0-2.28-3.11A13.52,13.52,0,0,0,148,73.65V69.29c4.88-.68,7.31-2.19,7.31-4.52a29.94,29.94,0,0,0-1.43-6.13,27.63,27.63,0,0,1-1.44-6.73q0-5.73,6.74-8.39A25.1,25.1,0,0,1,165.93,42l1.36,4.56q-8.88,1.11-8.89,8a17.93,17.93,0,0,0,1.43,5.26,19.41,19.41,0,0,1,1.42,4.79,5.83,5.83,0,0,1-2.81,5.14,7.35,7.35,0,0,1-4.11,1.38v.43a8.37,8.37,0,0,1,4.48,1.57A5.34,5.34,0,0,1,161.25,78a21.9,21.9,0,0,1-1.42,5.19,21.07,21.07,0,0,0-1.43,5.33Q158.4,94,167.59,96.09Z"/><path id="bracket1" class="cls-6" d="M202.85,73.56q-7.09,1.72-7.1,4.44a33.1,33.1,0,0,0,1.35,6.26,31.13,31.13,0,0,1,1.34,7q0,4.88-6.58,7.69a29.45,29.45,0,0,1-6.59,1.81l-1.82-4.65q8.66-1.7,8.65-7.6a23.17,23.17,0,0,0-1.23-5.36A24.45,24.45,0,0,1,189.65,78a5.66,5.66,0,0,1,2.81-5,7.72,7.72,0,0,1,4.14-1.29v-.41a8.27,8.27,0,0,1-4.49-1.65,5.56,5.56,0,0,1-2.46-4.95,21.8,21.8,0,0,1,1.22-4.84,20.26,20.26,0,0,0,1.23-5.22q0-6.45-8.52-8L185.12,42a27.36,27.36,0,0,1,6.68,1.67q6.64,2.71,6.64,8.06a29,29,0,0,1-1.4,6.85,30.87,30.87,0,0,0-1.41,6.19q0,2,2.34,3.12a14.07,14.07,0,0,0,4.88,1.32Z"/><rect id="terwindo-2" data-name="terwindo" class="cls-4" x="15.73" y="12.33" width="92.89" height="89.06" rx="3.12" ry="3.12"/><rect id="top-2" data-name="top" class="cls-2" x="15.73" y="12.33" width="92.89" height="7.99" rx="0.69" ry="0.69"/><ellipse id="btn1-2" data-name="btn1" class="cls-5" cx="87.37" cy="15.76" rx="2.36" ry="2.28"/><ellipse id="btn3-2" data-name="btn3" class="cls-5" cx="101.53" cy="15.76" rx="2.36" ry="2.28"/><ellipse id="btn2-2" data-name="btn2" class="cls-5" cx="94.45" cy="15.76" rx="2.36" ry="2.28"/><path id="bracket3" class="cls-7" d="M50.6,69.1l-2.5,5.49L25.85,62.38V58.32L48.1,46.1l2.5,5.46L32.93,60v.67Z"/><path id="bracket2-2" data-name="bracket2" class="cls-7" d="M70.22,32.51q0,2-5.38,24.21T59.46,83.86H54Q54,82,59.4,60t5.41-27.49Z"/><path id="bracket1-2" data-name="bracket1" class="cls-7" d="M98.35,62.38,76.11,74.59,73.6,69.1l17.65-8.42V60L73.6,51.56l2.51-5.46L98.35,58.32Z"/></svg>