<svg xmlns="http://www.w3.org/2000/svg" viewBox="0 0 245 252"><defs><style>.cls-1{fill:#2ecc71;}.cls-2{fill:#00b4db;}.cls-3{fill:#0083b0;}</style></defs><title>coding_icon</title><g id="coding_icon"><path class="cls-1" d="M235,133.87c-15.39,0-17.56,11.58-17.56,22a243,243,0,0,0,1.73,24.94,234.9,234.9,0,0,1,1.74,24.65c0,27.32-13,38.91-31.44,38.91h-4.55V228h3.9c12.79,0,17.13-9.5,17.13-25.54a175.94,175.94,0,0,0-1.52-21.08,188.17,188.17,0,0,1-1.52-22.57c-.21-19,5.86-28.51,15.61-32.08v-.59c-9.75-3.27-15.82-13.37-15.61-32.37a183.87,183.87,0,0,1,1.52-22.57A181.18,181.18,0,0,0,206,49.83C206,33.19,201,24,188.82,24h-3.9V7.65h4.55c18,0,31.44,10.7,31.44,40.69a229.08,229.08,0,0,1-1.74,24.35,226.28,226.28,0,0,0-1.73,24.06c0,9.2,2.17,22,17.56,22Z"/><path class="cls-1" d="M8,118.72c15.4,0,17.56-12.77,17.56-22a223.68,223.68,0,0,0-1.73-24.06,229.08,229.08,0,0,1-1.74-24.35c0-30,13.66-40.69,31.44-40.69h4.56V24H54.43c-12.14.29-17.34,9.2-17.34,25.84,0,7.12.86,14,1.51,21.38a182.56,182.56,0,0,1,1.74,22.57c0,19-6.07,29.1-15.61,32.37v.59c9.54,3.57,15.61,13.07,15.61,32.08a187.41,187.41,0,0,1-1.74,22.57c-.65,7.12-1.51,14.25-1.51,21.08,0,16,4.55,25.25,17.12,25.54h3.91v16.34H53.78c-18.43,0-31.66-11.59-31.66-38.91a234.9,234.9,0,0,1,1.74-24.65,240.2,240.2,0,0,0,1.73-24.94c0-10.4-2.16-22-17.56-22Z"/><path class="cls-2" d="M157.69,62.84H69.24a4,4,0,0,1,0-8h88.45a4,4,0,1,1,0,8Z"/><path class="cls-3" d="M51.45,62.83a4,4,0,1,1,3.9-3.2A4,4,0,0,1,51.45,62.83Z"/><path class="cls-2" d="M157.69,107.36H69.24a4,4,0,0,1,0-8h88.45a4,4,0,1,1,0,8Z"/><path class="cls-3" d="M51.45,107.36a4,4,0,1,1,4-3.6A4,4,0,0,1,51.45,107.36Z"/><path class="cls-3" d="M193.55,129.62h-25a4,4,0,0,1,0-8h25a4,4,0,0,1,0,8Z"/><path class="cls-2" d="M155.3,129.62H108.82a4,4,0,0,1,0-8H155.3a4,4,0,0,1,0,8Z"/><path class="cls-3" d="M95.54,129.62H69.24a4,4,0,0,1,0-8h26.3a4,4,0,0,1,0,8Z"/><path class="cls-3" d="M51.45,129.62a4,4,0,1,1,3.95-3.49A4,4,0,0,1,51.45,129.62Z"/><path class="cls-2" d="M133.79,151.88H69.24a4,4,0,0,1,0-8h64.55a4,4,0,0,1,0,8Z"/><path class="cls-3" d="M51.45,151.88a4,4,0,1,1,3.88-3.09A4,4,0,0,1,51.45,151.88Z"/><path class="cls-2" d="M173.63,174.14H161.41a4,4,0,0,1,0-8h12.22a4,4,0,0,1,0,8Z"/><path class="cls-2" d="M148.13,174.14H112.8a4,4,0,0,1,0-8h35.33a4,4,0,0,1,0,8Z"/><path class="cls-3" d="M99.52,174.14H69.24a4,4,0,0,1,0-8H99.52a4,4,0,1,1,0,8Z"/><path class="cls-3" d="M51.45,174.14a4,4,0,1,1,3.95-3.49A4,4,0,0,1,51.45,174.14Z"/><path class="cls-3" d="M192,196.4H135.12a4,4,0,1,1,0-8H192a4,4,0,0,1,0,8Z"/><path class="cls-2" d="M122,197.13H71.11a3.85,3.85,0,1,1,0-7.7H122a3.85,3.85,0,1,1,0,7.7Z"/><path class="cls-3" d="M51.45,196.4a4,4,0,1,1,4-3.6A4,4,0,0,1,51.45,196.4Z"/><path class="cls-2" d="M89.16,85.1H69.24a4,4,0,0,1,0-8H89.16a4,4,0,1,1,0,8Z"/><path class="cls-3" d="M141.75,85.1H103.51a4,4,0,1,1,0-8h38.24a4,4,0,1,1,0,8Z"/><path class="cls-3" d="M51.45,85.1a4,4,0,1,1,3.9-3.21A4,4,0,0,1,51.45,85.1Z"/></g></svg>