<svg xmlns="http://www.w3.org/2000/svg" viewBox="0 0 117 117"><defs><style>.cls-1{fill:#e6e9ed;}.cls-2{fill:#9baaab;}.cls-3{fill:#687f82;}.cls-4{fill:#365558;}.cls-5{fill:#fff;}.cls-6{fill:#fd6a33;}.cls-7{fill:#f0353d;}.cls-8{fill:#4acfd9;}.cls-9{fill:#0295aa;}.cls-10{fill:#ffd1a9;}.cls-11{fill:#cdd4d5;}.cls-12{fill:#ff8c29;}</style></defs><title>design</title><g id="skils"><circle class="cls-1" cx="58.5" cy="58.5" r="58.1"/><path class="cls-2" d="M96.48,95.4,22.26,21.17a1.23,1.23,0,0,0-2.1.87V96.27a1.23,1.23,0,0,0,1.23,1.23H95.61a1.23,1.23,0,0,0,.87-2.1Zm-64-10.22V48.8L69,85.18Z"/><path class="cls-3" d="M59.37,58.28,50.7,67,69,85.18H32.47l-11.95,12a1.23,1.23,0,0,0,.87.36H95.61a1.23,1.23,0,0,0,.87-2.1Z"/><path class="cls-4" d="M31.24,89.78A1.23,1.23,0,0,0,30,91V97.5h2.46V91A1.23,1.23,0,0,0,31.24,89.78Z"/><path class="cls-4" d="M41.09,89.78A1.23,1.23,0,0,0,39.86,91V97.5h2.47V91A1.24,1.24,0,0,0,41.09,89.78Z"/><path class="cls-4" d="M51,89.78A1.23,1.23,0,0,0,49.72,91V97.5h2.46V91A1.23,1.23,0,0,0,51,89.78Z"/><path class="cls-4" d="M60.8,89.78A1.23,1.23,0,0,0,59.57,91V97.5H62V91A1.23,1.23,0,0,0,60.8,89.78Z"/><path class="cls-4" d="M70.65,89.78A1.23,1.23,0,0,0,69.42,91V97.5h2.46V91A1.23,1.23,0,0,0,70.65,89.78Z"/><path class="cls-4" d="M80.5,89.78A1.23,1.23,0,0,0,79.27,91V97.5h2.47V91A1.24,1.24,0,0,0,80.5,89.78Z"/><path class="cls-5" d="M46.35,54.8a1.22,1.22,0,0,1-.87-.36L27.09,36.05a1.23,1.23,0,0,1,1.74-1.74L47.22,52.7a1.23,1.23,0,0,1-.87,2.1Z"/><path class="cls-5" d="M52.92,62a1.22,1.22,0,0,1-.87-.36l-3.29-3.29a1.23,1.23,0,0,1,1.74-1.74l3.29,3.29a1.23,1.23,0,0,1-.87,2.1Z"/><path class="cls-6" d="M87.19,52.19,58.77,23.77a1.24,1.24,0,0,0-.87-.36,1.27,1.27,0,0,0-.88.36l-13,13a1.24,1.24,0,0,0-.36.87,1.23,1.23,0,0,0,.36.87L72.45,66.94a1.22,1.22,0,0,0,.87.36,1.24,1.24,0,0,0,.87-.36l13-13a1.24,1.24,0,0,0,.36-.87A1.27,1.27,0,0,0,87.19,52.19Z"/><path class="cls-7" d="M50.58,30.21,44,36.77a1.24,1.24,0,0,0-.36.87,1.23,1.23,0,0,0,.36.87L72.45,66.94a1.22,1.22,0,0,0,.87.36,1.24,1.24,0,0,0,.87-.36l6.56-6.56Z"/><path class="cls-8" d="M83,56.37,54.59,28a1.24,1.24,0,0,0-1.75,0L48.2,32.59a1.24,1.24,0,0,0-.36.87,1.23,1.23,0,0,0,.36.87L76.63,62.76a1.22,1.22,0,0,0,.87.36,1.24,1.24,0,0,0,.87-.36L83,58.12a1.24,1.24,0,0,0,.36-.87A1.27,1.27,0,0,0,83,56.37Z"/><path class="cls-9" d="M50.58,30.21,48.2,32.59a1.24,1.24,0,0,0-.36.87,1.23,1.23,0,0,0,.36.87L76.63,62.76a1.22,1.22,0,0,0,.87.36,1.24,1.24,0,0,0,.87-.36l2.38-2.38Z"/><path class="cls-10" d="M40.77,20.52a1.24,1.24,0,0,0-.34,1.11l3.25,16.26L58.14,23.43,41.88,20.18A1.24,1.24,0,0,0,40.77,20.52Z"/><path class="cls-10" d="M40.83,20.47l-.06.05a1.24,1.24,0,0,0-.34,1.11l3.25,16.26L51,30.6Z"/><path class="cls-3" d="M40.77,20.52a1.24,1.24,0,0,0-.34,1.11l1.4,7,7-7-7-1.39A1.24,1.24,0,0,0,40.77,20.52Z"/><path class="cls-4" d="M40.83,20.47l-.06.05a1.24,1.24,0,0,0-.34,1.11l1.4,7L45.39,25Z"/><path class="cls-11" d="M87.19,52.19,72.45,66.94l9.29,9.29a1.22,1.22,0,0,0,.87.36,1.24,1.24,0,0,0,.87-.36l13-13a1.27,1.27,0,0,0,.36-.88,1.24,1.24,0,0,0-.36-.87Z"/><path class="cls-2" d="M79.88,59.51l-7.43,7.43,9.29,9.29a1.22,1.22,0,0,0,.87.36,1.24,1.24,0,0,0,.87-.36L90,69.67Z"/><path class="cls-5" d="M89,64a1.24,1.24,0,0,1-.87-.36l-3.28-3.29a1.23,1.23,0,1,1,1.74-1.74l3.28,3.29a1.23,1.23,0,0,1,0,1.74A1.22,1.22,0,0,1,89,64Z"/><path class="cls-8" d="M96.48,34.76,82.55,20.82a4.53,4.53,0,0,0-6.39,0L72,25a4.53,4.53,0,0,0,0,6.39L85.92,45.32a1.23,1.23,0,0,0,.87.36,1.24,1.24,0,0,0,.87-.36l8.82-8.82A1.23,1.23,0,0,0,96.48,34.76Z"/><path class="cls-10" d="M86.79,45.68a1.24,1.24,0,0,0,.87-.36l8.82-8.82a1.23,1.23,0,0,0,0-1.74l-9.29-9.29L76.63,36l9.29,9.29A1.23,1.23,0,0,0,86.79,45.68Z"/><path class="cls-9" d="M74.11,22.88,72,25a4.53,4.53,0,0,0,0,6.39L85.92,45.32a1.23,1.23,0,0,0,.87.36,1.24,1.24,0,0,0,.87-.36l4.45-4.45Z"/><path class="cls-12" d="M82,30.71,76.63,36l9.29,9.29a1.23,1.23,0,0,0,.87.36,1.24,1.24,0,0,0,.87-.36l4.45-4.45Z"/><path class="cls-5" d="M90,36.86a1.22,1.22,0,0,1-.87-.36l-3.72-3.72A1.23,1.23,0,1,1,87.19,31l3.72,3.72a1.23,1.23,0,0,1-.87,2.1Z"/></g></svg>