<svg id="design_icon" xmlns="http://www.w3.org/2000/svg" xmlns:xlink="http://www.w3.org/1999/xlink" viewBox="0 0 300 252"><defs><style>.cls-1{fill:url(#linear-gradient);}.cls-2{fill:url(#linear-gradient-2);}.cls-3{fill:#ffc107;}.cls-4{fill:#00b4db;}.cls-5{fill:#0083b0;}.cls-6{fill:url(#linear-gradient-3);}.cls-7{fill:url(#linear-gradient-4);}.cls-8{opacity:0.2;isolation:isolate;}</style><linearGradient id="linear-gradient" x1="-601.19" y1="1451.69" x2="-601.19" y2="1492.42" gradientTransform="matrix(0, 1, 1, 0, -1436.88, 727.19)" gradientUnits="userSpaceOnUse"><stop offset="0" stop-color="gray" stop-opacity="0.25"/><stop offset="0.54" stop-color="gray" stop-opacity="0.12"/><stop offset="1" stop-color="gray" stop-opacity="0.1"/></linearGradient><linearGradient id="linear-gradient-2" x1="-455.13" y1="1353.16" x2="-455.13" y2="1554.56" gradientTransform="matrix(0, 1, 1, 0, -1307.75, 581.13)" xlink:href="#linear-gradient"/><linearGradient id="linear-gradient-3" x1="-706.57" y1="1697.42" x2="-706.57" y2="1718.65" xlink:href="#linear-gradient"/><linearGradient id="linear-gradient-4" x1="-492.8" y1="1697.42" x2="-492.8" y2="1718.65" xlink:href="#linear-gradient"/></defs><title>design_icon</title><polygon class="cls-1" points="55.54 164.62 55.54 87.38 28.39 87.38 28.39 95.97 14.81 95.97 14.81 156.03 28.39 156.03 28.39 164.62 55.54 164.62"/><path class="cls-2" d="M246.36,130.78h-93c-2.78,9.24-5.61,13.29-11.66,15.57a29.23,29.23,0,0,1-16.94,1c-6.25-1.46-9.58-4.14-11.52-11.44a27.82,27.82,0,0,1-.44-12.67c2-10.09,8.92-15.39,20.32-15.39,10.91,0,16.7,3.74,20.14,14.05h17.47l76.08-.45L134.18,45.69S103.89,81.93,45.4,95.19v61.62s67.9,18.55,84.61,49.5Z"/><path class="cls-3" d="M241.82,132.14h-86.3a24.54,24.54,0,1,1-1.06-12.27h87.36L135.43,50.29s-32.74,36.83-90,49.11v53.2s69.58,20.46,85.93,49.11Z"/><rect class="cls-3" x="268.78" y="25.36" width="4.75" height="94.99"/><rect class="cls-3" x="268.78" y="132.23" width="4.75" height="94.99"/><rect class="cls-4" x="16.76" y="97.35" width="20.46" height="57.29"/><rect class="cls-5" x="263.37" y="117.14" width="18.1" height="18.1"/><circle class="cls-6" cx="271.15" cy="20.61" r="10.61"/><circle class="cls-7" cx="271.15" cy="234.39" r="10.61"/><circle class="cls-5" cx="271.15" cy="20.61" r="9.5"/><circle class="cls-5" cx="271.15" cy="234.35" r="9.5"/><rect class="cls-4" x="29.04" y="89.17" width="24.55" height="73.66"/><rect class="cls-8" x="29.04" y="89.17" width="24.55" height="73.66"/></svg>