<svg xmlns="http://www.w3.org/2000/svg" xmlns:xlink="http://www.w3.org/1999/xlink" viewBox="0 0 252 252"><defs><style>.cls-1{fill:#ffc107;}.cls-2{fill:#0083b0;}.cls-3{fill:url(#linear-gradient);}.cls-4{fill:url(#linear-gradient-2);}.cls-5{fill:#00b4db;}.cls-6{fill:url(#linear-gradient-3);}.cls-7{fill:url(#linear-gradient-4);}.cls-8{opacity:0.2;isolation:isolate;}</style><linearGradient id="linear-gradient" x1="-1491.52" y1="2363.99" x2="-1491.52" y2="2391.15" gradientTransform="matrix(0, 1, 1, 0, -2326.88, 1617.19)" gradientUnits="userSpaceOnUse"><stop offset="0" stop-color="gray" stop-opacity="0.25"/><stop offset="0.54" stop-color="gray" stop-opacity="0.12"/><stop offset="1" stop-color="gray" stop-opacity="0.1"/></linearGradient><linearGradient id="linear-gradient-2" x1="-1345.46" y1="2255.26" x2="-1345.46" y2="2389.53" gradientTransform="matrix(0, 1, 1, 0, -2197.75, 1471.13)" xlink:href="#linear-gradient"/><linearGradient id="linear-gradient-3" x1="-1563.11" y1="2460.48" x2="-1563.11" y2="2474.63" xlink:href="#linear-gradient"/><linearGradient id="linear-gradient-4" x1="-1419.26" y1="2459.82" x2="-1419.26" y2="2473.97" xlink:href="#linear-gradient"/></defs><title>design_icon_2</title><g id="Layer_4" data-name="Layer 4"><path class="cls-1" d="M139.91,51.36v5.07a69.29,69.29,0,0,1,0,138.47V200a74.36,74.36,0,0,0,0-148.61Z"/><circle class="cls-2" cx="140.68" cy="54.08" r="6.33"/><polygon class="cls-3" points="64.27 151.41 64.27 99.92 46.16 99.92 46.16 105.64 37.11 105.64 37.11 145.69 46.16 145.69 46.16 151.41 64.27 151.41"/><path class="cls-4" d="M191.48,128.85h-62c-1.85,6.17-3.74,8.86-7.77,10.38a19.45,19.45,0,0,1-11.3.65c-4.16-1-6.38-2.76-7.67-7.63a18.52,18.52,0,0,1-.3-8.44c1.36-6.73,6-10.27,13.55-10.27,7.27,0,11.13,2.5,13.42,9.37h11.65l50.72-.3L116.7,72.12s-20.2,24.17-59.19,33V146.2s45.26,12.37,56.4,33Z"/><path class="cls-1" d="M188.46,129.76H130.92a16.35,16.35,0,1,1-.7-8.18h58.24L117.53,75.19s-21.83,24.55-60,32.74V143.4S103.89,157,114.8,176.14Z"/><rect class="cls-5" x="38.41" y="106.57" width="13.64" height="38.19"/><rect class="cls-2" x="202.82" y="119.76" width="12.07" height="12.07"/><circle class="cls-6" cx="140.68" cy="54.08" r="7.08"/><circle class="cls-7" cx="140.01" cy="197.92" r="7.08"/><circle class="cls-2" cx="140.01" cy="197.9" r="6.33"/><rect class="cls-5" x="46.6" y="101.11" width="16.37" height="49.11"/><rect class="cls-8" x="46.6" y="101.11" width="16.37" height="49.11"/></g></svg>