<svg xmlns="http://www.w3.org/2000/svg" xmlns:xlink="http://www.w3.org/1999/xlink" viewBox="0 0 242 154"><defs><style>.cls-1{fill:url(#linear-gradient);}.cls-2{fill:url(#New_Gradient_Swatch_1);}.cls-3{fill:#434a54;}.cls-4{fill:#ccd1d9;stroke:#434a54;stroke-linejoin:round;stroke-width:2px;}.cls-5{fill:#656d78;}.cls-6{fill:#fba000;}.cls-7{fill:#bc360c;}.cls-8{fill:#f4a457;}.cls-9{fill:url(#linear-gradient-2);}.cls-10{fill:#f7630c;}</style><linearGradient id="linear-gradient" x1="119.91" y1="120.44" x2="120.48" y2="153.98" gradientUnits="userSpaceOnUse"><stop offset="0"/><stop offset="0.04" stop-color="#141619"/><stop offset="0.08" stop-color="#25292f"/><stop offset="0.13" stop-color="#333840"/><stop offset="0.19" stop-color="#3c424b"/><stop offset="0.28" stop-color="#424852"/><stop offset="0.53" stop-color="#434a54"/><stop offset="0.64" stop-color="#404750"/><stop offset="0.74" stop-color="#373d45"/><stop offset="0.84" stop-color="#282c32"/><stop offset="0.93" stop-color="#131518"/><stop offset="1"/></linearGradient><linearGradient id="New_Gradient_Swatch_1" x1="4.32" y1="64.1" x2="236.5" y2="64.1" gradientUnits="userSpaceOnUse"><stop offset="0" stop-color="#039be5"/><stop offset="0.52" stop-color="#01a4d2"/><stop offset="1" stop-color="#00acc1"/></linearGradient><linearGradient id="linear-gradient-2" x1="188.88" y1="30.79" x2="243.85" y2="76.3" gradientTransform="translate(-156.56 125.46) rotate(-29.54)" gradientUnits="userSpaceOnUse"><stop offset="0" stop-color="#f7630c"/><stop offset="0.33" stop-color="#f87309"/><stop offset="0.97" stop-color="#fb9e00"/><stop offset="1" stop-color="#fba000"/></linearGradient></defs><title>design_computer_icon</title><g id="design_icon"><path id="stand" class="cls-1" d="M169.63,149.36l-24.29-10.73a1.39,1.39,0,0,1-.78-.94l-2.81-11.92a1.38,1.38,0,0,0-1.34-1.06H100.76a1.38,1.38,0,0,0-1.34,1.06l-2.81,11.92a1.39,1.39,0,0,1-.78.94L70.72,149.72H170.1A1.29,1.29,0,0,0,169.63,149.36ZM123.25,139a1.62,1.62,0,0,1-1.61,1.62h-2.46a1.62,1.62,0,0,1-1.61-1.62v-8.14a1.61,1.61,0,0,1,1.61-1.61h2.46a1.61,1.61,0,0,1,1.61,1.61Z"/><g id="screen"><rect class="cls-2" x="4.32" y="5.12" width="232.18" height="117.97" rx="4.25" ry="4.25"/><path class="cls-3" d="M232.25,7.62A1.75,1.75,0,0,1,234,9.37V118.84a1.76,1.76,0,0,1-1.75,1.75H8.57a1.76,1.76,0,0,1-1.75-1.75V9.37A1.75,1.75,0,0,1,8.57,7.62H232.25m0-5H8.57A6.75,6.75,0,0,0,1.82,9.37V118.84a6.75,6.75,0,0,0,6.75,6.75H232.25a6.75,6.75,0,0,0,6.75-6.75V9.37a6.75,6.75,0,0,0-6.75-6.75Z"/></g><rect id="terwindo" class="cls-4" x="128.23" y="24.65" width="92.5" height="88.68" rx="3.12" ry="3.12"/><rect id="top" class="cls-3" x="128.23" y="24.65" width="92.5" height="7.96" rx="0.69" ry="0.69"/><ellipse id="btn1" class="cls-5" cx="199.57" cy="28.07" rx="2.35" ry="2.27"/><ellipse id="btn3" class="cls-5" cx="213.67" cy="28.07" rx="2.35" ry="2.27"/><ellipse id="btn2" class="cls-5" cx="206.62" cy="28.07" rx="2.35" ry="2.27"/><rect id="terwindo-2" data-name="terwindo" class="cls-4" x="15.67" y="13.29" width="92.5" height="88.68" rx="3.12" ry="3.12"/><rect id="top-2" data-name="top" class="cls-3" x="15.67" y="13.29" width="92.5" height="7.96" rx="0.69" ry="0.69"/><ellipse id="btn1-2" data-name="btn1" class="cls-5" cx="87.01" cy="16.7" rx="2.35" ry="2.27"/><ellipse id="btn3-2" data-name="btn3" class="cls-5" cx="101.11" cy="16.7" rx="2.35" ry="2.27"/><ellipse id="btn2-2" data-name="btn2" class="cls-5" cx="94.06" cy="16.7" rx="2.35" ry="2.27"/><path class="cls-6" d="M202.74,89.4a29,29,0,0,0-12.31,12.29c-.34-.38-.74-.89-1.2-1.35q-20.94-21-41.91-41.89c-.45-.45-.58-.85-.24-1.37a38.07,38.07,0,0,1,2.18-3.28,32.79,32.79,0,0,1,7.49-7c1.93-1.27,1.94-1.24,3.53.34L202,88.81A7,7,0,0,0,202.74,89.4ZM158.6,48.26a2.24,2.24,0,0,0-2,1.34c-.39.8,0,1.4.59,2l31.08,31.07,8.06,8.06a1.61,1.61,0,0,0,2,.46,1.76,1.76,0,0,0,.41-3.05L173.88,63.18Q166.77,56.07,159.65,49A6.07,6.07,0,0,0,158.6,48.26Zm-7.16,7.14a2.15,2.15,0,0,0-2,1.3,1.44,1.44,0,0,0,.4,1.79c.21.2.41.41.61.62q15,15,30,30l8.74,8.73a1.58,1.58,0,0,0,2,.43,1.76,1.76,0,0,0,.44-3q-12-12-24-24-7.53-7.53-15.06-15A7.1,7.1,0,0,0,151.44,55.4Zm2.92-4.22a6.19,6.19,0,0,0-.91.29,1.75,1.75,0,0,0-.45,3l24,24,15.13,15.13c.91.91,1.7,1,2.54.15s.94-1.71-.05-2.71l-22-22q-8.55-8.53-17.1-17.08A8,8,0,0,0,154.36,51.18Z"/><path class="cls-7" d="M158.22,45.06c-4.3,1.82-10,7.52-12.15,12.12-1.75-1.75-3.49-3.47-5.19-5.24a1,1,0,0,1-.1-.9,23.36,23.36,0,0,1,1.82-2.95,33.33,33.33,0,0,1,7.87-7.49c2-1.32,2-1.29,3.65.38Z"/><path class="cls-8" d="M201.06,104.73l-9.32-3a31.32,31.32,0,0,1,10.95-11c1.11,3.39,2.16,6.61,3.24,9.9h.28l.4,0q-1.59-5.05-3.17-10.09a.56.56,0,0,0-.85-.41,11.61,11.61,0,0,0-1.83.92,32.94,32.94,0,0,0-8.6,8.54,12,12,0,0,0-1,1.8c-.26.57-.09.91.55,1.11,3.08,1,6.14,2,9.21,3A6.13,6.13,0,0,1,201.06,104.73Z"/><path class="cls-3" d="M200.73,105.49l6,1.61c1,.3,1.36.17,1.51,0s.12-.43,0-1.47h0l-1.89-6-5.69.14Z"/><path class="cls-9" d="M52,97.68c-.41-4.4-.84-8.79-1.25-13.18l-4-43.43a2.06,2.06,0,0,0-.63-1.35A5.33,5.33,0,0,1,46,32.5l.58-.67,1.7-1a4.13,4.13,0,0,0,.49-.07,5.38,5.38,0,1,1,1.56,10.61l-.77,0,.06,1a4.71,4.71,0,0,0,2.91-.4,1.57,1.57,0,0,1,1-.1A26,26,0,0,1,68.66,52.19c.42.6.75.92,1.6.72a4.83,4.83,0,0,1,3.2.81l6,3.06L80,57c.26-.52.27-.52-.2-.85L66.19,46.66,56,39.49c-.12-.08-.23-.17-.07-.22l.66-2.72,45.3,32.9-.78.44a6,6,0,0,0-.6-.43l-12.64-7-4.41-2.41-.14.41Q80.18,71.66,77.1,82.85a3.34,3.34,0,0,0,0,.64l-.26.14a5.58,5.58,0,0,0-.66-.3L54.78,77.41l-1.57-.47c0,.7,0,1.3,0,1.89Q53,88,52.8,97.23ZM49.66,42.54c0,.32,0,.54,0,.75q.68,8.91,1.37,17.83c.28,3.65.55,7.31.84,11a4.94,4.94,0,0,0,.18.76l.28-.06c.08-1.86.21-3.72.23-5.59,0-2.18.31-4.23,2.13-5.75a21,21,0,0,1-2.09-16.09,12.75,12.75,0,0,1,1.49.87,1.4,1.4,0,0,1,.54.86c.41,4.67.78,9.34,1.18,14a.9.9,0,0,1-.45,1A3.07,3.07,0,0,0,53.89,64c-.21,1-.36,2.05-.51,2.93l16.71,4.73c1.51-5.45,3-10.9,4.55-16.44a24,24,0,0,0-3-1.19,5,5,0,0,0-2.17,0A1.29,1.29,0,0,1,68.4,54q-6.74-4.12-13.49-8.23Zm22.26,32.2-18.55-5-.1,4.74,21.85,5.81c.81-2.84,1.68-5.76,2.49-8.7q1.69-6.09,3.31-12.21c.06-.22,0-.64-.17-.73-1.19-.71-2.42-1.36-3.68-2.06C75.35,62.65,73.65,68.65,71.92,74.74ZM51.33,38.28a2.58,2.58,0,1,0-3.55-1A2.57,2.57,0,0,0,51.33,38.28Z"/><path class="cls-10" d="M88.1,42.77c-.55,1.91-1.11,3.82-1.66,5.74-.66,2.32-1.3,4.66-2,7.09l-2.18-1.54,2.38-8.8c-.89.19-1.66.33-2.41.55-.21.06-.39.34-.52.56-.34.6-.61,1.25-1,1.84-.22.35-.53.8-.88.88-1,.24-1.15,1-1.31,1.82,0,.07-.07.12-.12.22a10.09,10.09,0,0,1-1.87-1.36c-.68-.77.22-1.53.31-2.32,0-.13.49-.32.73-.29a2.27,2.27,0,0,0,2.11-.75,9.46,9.46,0,0,1,4-2.6,30.68,30.68,0,0,0,3.72-2.22Z"/><path class="cls-10" d="M35.26,71.15a2.08,2.08,0,0,1,.43-.3,16.94,16.94,0,0,0,5.21-3.18,2.53,2.53,0,0,1,1-.37c.57-.16,1.16-.26,1.73-.43a2.07,2.07,0,0,0,1.46-1.38c.14-.46.38-.56.84-.46,2.12.49,2.27.71,2.13,3.28a2.7,2.7,0,0,1-.43-.11,1.64,1.64,0,0,0-1.89.16,3.79,3.79,0,0,1-3.05.3,1.31,1.31,0,0,0-1.51.61A8.18,8.18,0,0,1,39.8,70.5a5.67,5.67,0,0,0,.75.29c2.5.71,5,1.42,7.5,2.1a.68.68,0,0,1,.62.75c0,.67.09,1.34.17,2.3l-13-3.74Z"/><rect id="foot" class="cls-3" x="70.67" y="148.2" width="100.48" height="5.71" rx="0.85" ry="0.85"/></g></svg>