<svg xmlns="http://www.w3.org/2000/svg" xmlns:xlink="http://www.w3.org/1999/xlink" viewBox="0 0 117 117"><defs><style>.cls-1{fill:#2ecc71;}.cls-2{fill:url(#linear-gradient);}.cls-3{fill:url(#linear-gradient-2);}.cls-4{fill:#ffc107;}.cls-5{fill:#00b4db;}.cls-6{fill:#0083b0;}.cls-7{fill:url(#linear-gradient-3);}.cls-8{fill:url(#linear-gradient-4);}.cls-9{opacity:0.2;isolation:isolate;}</style><linearGradient id="linear-gradient" x1="63.51" y1="715.2" x2="63.51" y2="723.36" gradientTransform="matrix(0, 1, 1, 0, -703.88, -5.81)" gradientUnits="userSpaceOnUse"><stop offset="0" stop-color="gray" stop-opacity="0.25"/><stop offset="0.54" stop-color="gray" stop-opacity="0.12"/><stop offset="1" stop-color="gray" stop-opacity="0.1"/></linearGradient><linearGradient id="linear-gradient-2" x1="209.14" y1="592.2" x2="209.14" y2="632.56" gradientTransform="matrix(0, 1, 1, 0, -574.75, -151.87)" xlink:href="#linear-gradient"/><linearGradient id="linear-gradient-3" x1="27.4" y1="762.11" x2="27.4" y2="769.44" xlink:href="#linear-gradient"/><linearGradient id="linear-gradient-4" x1="101.22" y1="762.11" x2="101.22" y2="769.44" xlink:href="#linear-gradient"/></defs><title>design</title><g id="design_coding"><path class="cls-1" d="M105.68,60.23c-4.6,0-5.24,3.46-5.24,6.57,0,2.48.26,5,.51,7.46a70,70,0,0,1,.52,7.36c0,8.17-3.88,11.63-9.39,11.63H90.72V88.37h1.16c3.83,0,5.12-2.84,5.12-7.64a52.61,52.61,0,0,0-.45-6.3,56.18,56.18,0,0,1-.46-6.74C96,62,97.84,59.17,100.76,58.1v-.18c-2.92-1-4.73-4-4.67-9.67a54.94,54.94,0,0,1,.46-6.75A54,54,0,0,0,97,35.11c0-5-1.49-7.72-5.12-7.72H90.72V22.51h1.36c5.38,0,9.39,3.2,9.39,12.16A68.52,68.52,0,0,1,101,42a69.3,69.3,0,0,0-.51,7.19c0,2.75.64,6.57,5.24,6.57Z"/><path class="cls-1" d="M65.35,55.71c4.6,0,5.25-3.82,5.25-6.57A66.66,66.66,0,0,0,70.08,42a68.52,68.52,0,0,1-.52-7.28c0-9,4.08-12.16,9.4-12.16h1.36v4.88H79.21c-3.62.09-5.18,2.75-5.18,7.72,0,2.13.26,4.18.45,6.39A54.58,54.58,0,0,1,75,48.25c0,5.68-1.81,8.7-4.66,9.67v.18C73.19,59.17,75,62,75,67.69a56,56,0,0,1-.52,6.74c-.19,2.13-.45,4.26-.45,6.3,0,4.8,1.36,7.55,5.12,7.64h1.17v4.88H79c-5.51,0-9.46-3.46-9.46-11.63a70,70,0,0,1,.52-7.36,72.11,72.11,0,0,0,.52-7.46c0-3.11-.65-6.57-5.25-6.57Z"/><polygon class="cls-2" points="19.48 65.44 19.48 49.96 14.04 49.96 14.04 51.68 11.31 51.68 11.31 63.72 14.04 63.72 14.04 65.44 19.48 65.44"/><path class="cls-3" d="M57.72,58.22H39.08c-.55,1.85-1.12,2.67-2.33,3.12a5.89,5.89,0,0,1-3.4.2A2.73,2.73,0,0,1,31,59.24,5.73,5.73,0,0,1,31,56.7c.41-2,1.79-3.08,4.08-3.08s3.34.75,4,2.81h3.5l15.25-.08L35.24,41.17a34.4,34.4,0,0,1-17.79,9.92V63.44s13.6,3.71,17,9.92Z"/><path class="cls-4" d="M56.81,58.49H39.52A4.92,4.92,0,1,1,39.3,56H56.81L35.49,42.09a35.93,35.93,0,0,1-18,9.84V62.6s13.94,4.1,17.22,9.84Z"/><rect class="cls-4" x="61.07" y="23.23" width="1.64" height="32.8"/><rect class="cls-4" x="61.07" y="60.13" width="1.64" height="32.8"/><rect class="cls-5" x="11.71" y="51.93" width="4.1" height="11.48"/><rect class="cls-6" x="59.2" y="54.92" width="6.25" height="6.25"/><circle class="cls-7" cx="61.89" cy="21.59" r="3.66"/><circle class="cls-8" cx="61.89" cy="95.41" r="3.66"/><circle class="cls-6" cx="61.89" cy="21.59" r="3.28"/><circle class="cls-6" cx="61.89" cy="95.4" r="3.28"/><rect class="cls-5" x="14.17" y="50.29" width="4.92" height="14.76"/><rect class="cls-9" x="14.17" y="50.29" width="4.92" height="14.76"/></g></svg>