<svg id="design_icon" xmlns="http://www.w3.org/2000/svg" viewBox="0 0 300 252"><defs><style>.cls-1{fill:#464655;}.cls-2{fill:#fff;}.cls-3{fill:#bec8dc;}.cls-4{fill:#afbbd0;}.cls-5{fill:#96a5b9;}.cls-6{fill:#e4eaf6;}.cls-7{fill:#039be5;}</style></defs><title>design_icon</title><path class="cls-1" d="M288.06,2.57H13.18A10.18,10.18,0,0,0,3,12.75V175.64H298.24V12.75A10.18,10.18,0,0,0,288.06,2.57ZM283,160.37H18.27V17.84H283Z"/><path class="cls-2" d="M120.08,81.47A2.54,2.54,0,0,1,122.62,84h7.64V76.38H120.08a2.55,2.55,0,1,1,0-5.09h10.18V38.2H84.45V84h33.08A2.55,2.55,0,0,1,120.08,81.47Z"/><path class="cls-2" d="M18.27,160.37H283V17.84H18.27Zm112-12.72H120.08a2.55,2.55,0,1,1,0-5.09h10.18a2.55,2.55,0,1,1,0,5.09Zm-10.18-25.46a2.54,2.54,0,0,1,2.54,2.55v10.18a2.55,2.55,0,0,1-5.09,0V124.74A2.55,2.55,0,0,1,120.08,122.19Zm-2.55-7.63V104.38a2.55,2.55,0,1,1,5.09,0v10.18a2.55,2.55,0,0,1-5.09,0Zm33.09,33.09H140.44a2.55,2.55,0,0,1,0-5.09h10.18a2.55,2.55,0,1,1,0,5.09Zm43.27-12.73a2.55,2.55,0,0,1-5.09,0V124.74a2.55,2.55,0,1,1,5.09,0Zm0-20.36a2.55,2.55,0,0,1-5.09,0V104.38a2.55,2.55,0,1,1,5.09,0Zm0-20.36a2.55,2.55,0,0,1-5.09,0V84a2.55,2.55,0,1,1,5.09,0Zm22.91,5.09V33.11A5.09,5.09,0,0,1,221.89,28H267.7a5.09,5.09,0,0,1,5.09,5.09v112a5.09,5.09,0,0,1-5.09,5.09H221.89a5.09,5.09,0,0,1-5.09-5.09Zm-35.64-28h10.18a2.55,2.55,0,1,1,0,5.09H181.16a2.55,2.55,0,0,1,0-5.09Zm0,71.27h10.18a2.55,2.55,0,1,1,0,5.09H181.16a2.55,2.55,0,0,1,0-5.09ZM160.8,71.29H171a2.55,2.55,0,1,1,0,5.09H160.8a2.55,2.55,0,0,1,0-5.09Zm0,71.27H171a2.55,2.55,0,1,1,0,5.09H160.8a2.55,2.55,0,0,1,0-5.09ZM74.27,33.11A5.09,5.09,0,0,1,79.36,28h56a5.09,5.09,0,0,1,5.09,5.09V71.29h10.18a2.55,2.55,0,1,1,0,5.09H140.44V89.11a5.17,5.17,0,0,1-.25,1.58l13.36,12a2.05,2.05,0,0,1-.55,3.4l-5.06,2.22,4.52,10.3a2.54,2.54,0,0,1-4.66,2l-4.52-10.29-5.06,2.22a2,2,0,0,1-2.87-1.9l.22-16.45H122.62a2.55,2.55,0,0,1-5.09,0H79.36a5.09,5.09,0,0,1-5.1-5.09v-56Zm-45.82,0A5.09,5.09,0,0,1,33.54,28H48.81a5.09,5.09,0,0,1,5.09,5.09v112a5.09,5.09,0,0,1-5.09,5.09H33.54a5.09,5.09,0,0,1-5.09-5.09Z"/><path class="cls-3" d="M3,196a10.19,10.19,0,0,0,10.18,10.19H288.06A10.18,10.18,0,0,0,298.24,196V175.64H3Zm147.62-12.72a7.64,7.64,0,1,1-7.63,7.63A7.64,7.64,0,0,1,150.62,183.28Z"/><polygon class="cls-4" points="105.44 241.82 195.8 241.82 192.62 216.37 108.63 216.37 105.44 241.82"/><path class="cls-3" d="M104.81,241.82a5.09,5.09,0,1,0,0,10.18h91.63a5.09,5.09,0,1,0,0-10.18H104.81Z"/><polygon class="cls-5" points="108.63 216.37 192.62 216.37 191.34 206.19 109.9 206.19 108.63 216.37"/><circle class="cls-5" cx="150.62" cy="190.91" r="7.64"/><path class="cls-3" d="M33.54,150.19H48.81a5.09,5.09,0,0,0,5.09-5.09v-112A5.09,5.09,0,0,0,48.81,28H33.54a5.09,5.09,0,0,0-5.09,5.09v112A5.09,5.09,0,0,0,33.54,150.19Zm5.09-112h5.09a5.09,5.09,0,1,1,0,10.18H38.63a5.09,5.09,0,1,1,0-10.18Zm0,15.27h5.09a5.09,5.09,0,0,1,0,10.18H38.63a5.09,5.09,0,0,1,0-10.18Zm0,15.27h5.09a5.1,5.1,0,0,1,0,10.19H38.63a5.1,5.1,0,0,1,0-10.19Zm0,15.28h5.09a5.09,5.09,0,0,1,0,10.18H38.63a5.09,5.09,0,0,1,0-10.18Zm0,15.27h5.09a5.09,5.09,0,1,1,0,10.18H38.63a5.09,5.09,0,0,1,0-10.18Zm-5.09,25.45a5.09,5.09,0,0,1,5.09-5.09h5.09a5.09,5.09,0,0,1,5.09,5.09v10.18A5.09,5.09,0,0,1,43.72,140H38.63a5.09,5.09,0,0,1-5.09-5.09Z"/><path class="cls-6" d="M38.63,48.38h5.09a5.09,5.09,0,1,0,0-10.18H38.63a5.09,5.09,0,1,0,0,10.18Z"/><path class="cls-5" d="M38.63,63.65h5.09a5.09,5.09,0,0,0,0-10.18H38.63a5.09,5.09,0,0,0,0,10.18Z"/><path class="cls-6" d="M38.63,78.93h5.09a5.1,5.1,0,0,0,0-10.19H38.63a5.1,5.1,0,0,0,0,10.19Z"/><path class="cls-6" d="M38.63,94.2h5.09a5.09,5.09,0,0,0,0-10.18H38.63a5.09,5.09,0,0,0,0,10.18Z"/><path class="cls-6" d="M38.63,109.47h5.09a5.09,5.09,0,1,0,0-10.18H38.63a5.09,5.09,0,0,0,0,10.18Z"/><path class="cls-5" d="M38.63,140h5.09a5.09,5.09,0,0,0,5.09-5.09V124.74a5.09,5.09,0,0,0-5.09-5.09H38.63a5.09,5.09,0,0,0-5.09,5.09v10.18A5.09,5.09,0,0,0,38.63,140Z"/><path class="cls-3" d="M272.79,33.11A5.09,5.09,0,0,0,267.7,28H221.89a5.09,5.09,0,0,0-5.09,5.09V63.65h56V33.11Zm-7.63,25.45H224.43a2.55,2.55,0,0,1,0-5.09h40.73a2.55,2.55,0,0,1,0,5.09Zm0-10.18H224.43a2.55,2.55,0,0,1,0-5.09h40.73a2.55,2.55,0,0,1,0,5.09Zm0-10.18H224.43a2.55,2.55,0,0,1,0-5.09h40.73a2.55,2.55,0,0,1,0,5.09Z"/><path class="cls-3" d="M221.89,150.19H267.7a5.09,5.09,0,0,0,5.09-5.09V99.29h-56V145.1A5.09,5.09,0,0,0,221.89,150.19Zm22.9-45.81h20.37a2.55,2.55,0,0,1,0,5.09H244.79a2.55,2.55,0,0,1,0-5.09Zm0,10.18h20.37a2.55,2.55,0,0,1,0,5.09H244.79a2.55,2.55,0,0,1,0-5.09Zm0,10.18h20.37a2.55,2.55,0,0,1,0,5.09H244.79a2.55,2.55,0,0,1,0-5.09Zm0,10.18h20.37a2.55,2.55,0,0,1,0,5.09H244.79a2.55,2.55,0,0,1,0-5.09Zm-10.18-30.54h0a2.55,2.55,0,1,1,0,5.09h0a2.55,2.55,0,0,1,0-5.09Zm0,10.18h0a2.55,2.55,0,1,1,0,5.09h0a2.55,2.55,0,0,1,0-5.09Zm0,10.18h0a2.55,2.55,0,1,1,0,5.09h0a2.55,2.55,0,0,1,0-5.09Zm0,10.18h0a2.55,2.55,0,1,1,0,5.09h0a2.55,2.55,0,0,1,0-5.09Zm-10.18-30.54h0a2.55,2.55,0,1,1,0,5.09h0a2.55,2.55,0,0,1,0-5.09Zm0,10.18h0a2.55,2.55,0,1,1,0,5.09h0a2.55,2.55,0,0,1,0-5.09Zm0,10.18h0a2.55,2.55,0,1,1,0,5.09h0a2.55,2.55,0,0,1,0-5.09Zm0,10.18h0a2.55,2.55,0,1,1,0,5.09h0a2.55,2.55,0,0,1,0-5.09Z"/><path class="cls-5" d="M272.79,63.65h-56V99.29h56ZM229.52,94.2h-5.09a2.55,2.55,0,0,1,0-5.09h5.09a2.55,2.55,0,1,1,0,5.09Zm0-10.18h-5.09a2.55,2.55,0,0,1,0-5.09h5.09a2.55,2.55,0,1,1,0,5.09Zm0-10.19h-5.09a2.55,2.55,0,0,1,0-5.09h5.09a2.55,2.55,0,1,1,0,5.09ZM265.16,94.2H239.7a2.55,2.55,0,0,1,0-5.09h25.46a2.55,2.55,0,0,1,0,5.09Zm0-10.18H239.7a2.55,2.55,0,0,1,0-5.09h25.46a2.55,2.55,0,0,1,0,5.09Zm0-10.19H239.7a2.55,2.55,0,0,1,0-5.09h25.46a2.55,2.55,0,0,1,0,5.09Z"/><path class="cls-5" d="M265.16,33.11H234.61a2.55,2.55,0,1,1,0,5.09h30.55a2.55,2.55,0,0,0,0-5.09Z"/><path class="cls-5" d="M227,35.66a2.55,2.55,0,0,1,2.54-2.55h-5.09a2.55,2.55,0,0,0,0,5.09h5.09A2.54,2.54,0,0,1,227,35.66Z"/><path class="cls-5" d="M265.16,53.47H244.79a2.55,2.55,0,1,1,0,5.09h20.37a2.55,2.55,0,0,0,0-5.09Z"/><path class="cls-5" d="M237.16,56a2.55,2.55,0,0,1,2.54-2.55H224.43a2.55,2.55,0,0,0,0,5.09H239.7A2.54,2.54,0,0,1,237.16,56Z"/><path class="cls-3" d="M265.16,68.74H239.7a2.55,2.55,0,0,0,0,5.1h25.46a2.55,2.55,0,0,0,0-5.1Z"/><path class="cls-5" d="M252.43,45.84A2.55,2.55,0,0,1,255,43.29H224.43a2.55,2.55,0,0,0,0,5.09H255A2.55,2.55,0,0,1,252.43,45.84Z"/><path class="cls-5" d="M265.16,43.29h-5.09a2.55,2.55,0,0,1,0,5.09h5.09a2.55,2.55,0,0,0,0-5.09Z"/><path class="cls-6" d="M237.16,35.66a2.55,2.55,0,0,0-2.55-2.55h-5.09a2.55,2.55,0,0,0,0,5.09h5.09A2.55,2.55,0,0,0,237.16,35.66Z"/><path class="cls-6" d="M247.34,56a2.55,2.55,0,0,0-2.55-2.55H239.7a2.55,2.55,0,0,0,0,5.09h5.09A2.55,2.55,0,0,0,247.34,56Z"/><path class="cls-6" d="M229.52,68.74h-5.09a2.55,2.55,0,0,0,0,5.1h5.09a2.55,2.55,0,0,0,0-5.1Z"/><path class="cls-3" d="M265.16,78.93H239.7a2.55,2.55,0,0,0,0,5.09h25.46a2.55,2.55,0,0,0,0-5.09Z"/><path class="cls-6" d="M229.52,78.93h-5.09a2.55,2.55,0,0,0,0,5.09h5.09a2.55,2.55,0,1,0,0-5.09Z"/><path class="cls-3" d="M265.16,89.11H239.7a2.55,2.55,0,0,0,0,5.09h25.46a2.55,2.55,0,0,0,0-5.09Z"/><path class="cls-6" d="M229.52,89.11h-5.09a2.55,2.55,0,0,0,0,5.09h5.09a2.55,2.55,0,1,0,0-5.09Z"/><path class="cls-6" d="M224.43,119.65h0a2.55,2.55,0,1,0,0-5.09h0a2.55,2.55,0,0,0,0,5.09Z"/><path class="cls-6" d="M224.43,109.47h0a2.55,2.55,0,1,0,0-5.09h0a2.55,2.55,0,0,0,0,5.09Z"/><path class="cls-6" d="M224.43,140h0a2.55,2.55,0,1,0,0-5.09h0a2.55,2.55,0,0,0,0,5.09Z"/><path class="cls-6" d="M224.43,129.83h0a2.55,2.55,0,1,0,0-5.09h0a2.55,2.55,0,0,0,0,5.09Z"/><path class="cls-5" d="M234.61,119.65h0a2.55,2.55,0,1,0,0-5.09h0a2.55,2.55,0,0,0,0,5.09Z"/><path class="cls-5" d="M234.61,109.47h0a2.55,2.55,0,1,0,0-5.09h0a2.55,2.55,0,0,0,0,5.09Z"/><path class="cls-5" d="M234.61,140h0a2.55,2.55,0,1,0,0-5.09h0a2.55,2.55,0,0,0,0,5.09Z"/><path class="cls-5" d="M234.61,129.83h0a2.55,2.55,0,1,0,0-5.09h0a2.55,2.55,0,0,0,0,5.09Z"/><path class="cls-5" d="M244.79,119.65h20.37a2.55,2.55,0,0,0,0-5.09H244.79a2.55,2.55,0,0,0,0,5.09Z"/><path class="cls-5" d="M244.79,109.47h20.37a2.55,2.55,0,0,0,0-5.09H244.79a2.55,2.55,0,0,0,0,5.09Z"/><path class="cls-5" d="M244.79,140h20.37a2.55,2.55,0,0,0,0-5.09H244.79a2.55,2.55,0,0,0,0,5.09Z"/><path class="cls-5" d="M244.79,129.83h20.37a2.55,2.55,0,0,0,0-5.09H244.79a2.55,2.55,0,0,0,0,5.09Z"/><path class="cls-6" d="M262.61,45.84a2.55,2.55,0,0,0-2.54-2.55H255a2.55,2.55,0,1,0,0,5.09h5.09A2.54,2.54,0,0,0,262.61,45.84Z"/><path class="cls-7" d="M79.36,94.2h38.17V84H84.45V38.2h45.81V71.29a2.55,2.55,0,0,1,0,5.09V84h-7.64V94.2h12.95l0-3.06a2,2,0,0,1,3.4-1.5l1.18,1.06a5.17,5.17,0,0,0,.25-1.58V76.38a2.55,2.55,0,0,1,0-5.09V33.11A5.09,5.09,0,0,0,135.35,28h-56a5.09,5.09,0,0,0-5.09,5.09v56A5.09,5.09,0,0,0,79.36,94.2Z"/><path class="cls-5" d="M120.08,117.1a2.53,2.53,0,0,0,2.54-2.54V104.38a2.55,2.55,0,1,0-5.09,0v10.18A2.54,2.54,0,0,0,120.08,117.1Z"/><path class="cls-5" d="M181.16,147.65h10.18a2.55,2.55,0,1,0,0-5.09H181.16a2.55,2.55,0,0,0,0,5.09Z"/><path class="cls-5" d="M191.34,122.19a2.55,2.55,0,0,0-2.54,2.55v10.18a2.55,2.55,0,0,0,5.09,0V124.74A2.55,2.55,0,0,0,191.34,122.19Z"/><path class="cls-5" d="M181.16,76.38h10.18a2.55,2.55,0,1,0,0-5.09H181.16a2.55,2.55,0,0,0,0,5.09Z"/><path class="cls-5" d="M191.34,81.47A2.55,2.55,0,0,0,188.8,84V94.2a2.55,2.55,0,0,0,5.09,0V84A2.55,2.55,0,0,0,191.34,81.47Z"/><path class="cls-5" d="M150.62,142.56H140.44a2.55,2.55,0,0,0,0,5.09h10.18a2.55,2.55,0,1,0,0-5.09Z"/><path class="cls-5" d="M120.08,81.47A2.55,2.55,0,0,0,117.53,84V94.2a2.55,2.55,0,0,0,5.09,0V84A2.54,2.54,0,0,0,120.08,81.47Z"/><path class="cls-5" d="M130.26,142.56H120.08a2.55,2.55,0,1,0,0,5.09h10.18a2.55,2.55,0,1,0,0-5.09Z"/><path class="cls-5" d="M117.53,134.92a2.55,2.55,0,0,0,5.09,0V124.74a2.55,2.55,0,1,0-5.09,0Z"/><path class="cls-5" d="M191.34,101.83a2.55,2.55,0,0,0-2.54,2.55v10.18a2.55,2.55,0,0,0,5.09,0V104.38A2.55,2.55,0,0,0,191.34,101.83Z"/><path class="cls-5" d="M160.8,76.38H171a2.55,2.55,0,1,0,0-5.09H160.8a2.55,2.55,0,0,0,0,5.09Z"/><path class="cls-5" d="M117.53,73.83a2.55,2.55,0,0,0,2.55,2.55h10.18a2.55,2.55,0,1,0,0-5.09H120.08A2.55,2.55,0,0,0,117.53,73.83Z"/><path class="cls-5" d="M160.8,147.65H171a2.55,2.55,0,1,0,0-5.09H160.8a2.55,2.55,0,0,0,0,5.09Z"/><path class="cls-5" d="M137.9,73.83a2.54,2.54,0,0,0,2.54,2.55h10.18a2.55,2.55,0,1,0,0-5.09H140.44A2.54,2.54,0,0,0,137.9,73.83Z"/><path class="cls-1" d="M135.6,91.13l0,3.06-.21,16.45a2,2,0,0,0,2.86,1.9l5.07-2.23,4.52,10.3a2.53,2.53,0,0,0,2.33,1.52,2.45,2.45,0,0,0,1-.21,2.54,2.54,0,0,0,1.31-3.35l-4.52-10.3,5.06-2.22a2.05,2.05,0,0,0,.55-3.4l-13.36-12L139,89.63A2,2,0,0,0,135.6,91.13Z"/></svg>