<svg xmlns="http://www.w3.org/2000/svg" viewBox="0 0 117 117"><defs><style>.cls-1{fill:#2b414d;}.cls-2{fill:#475f6c;}.cls-3{fill:#455e6b;}.cls-4{fill:#4b6370;}</style></defs><title>egucation</title><g id="egucation"><path class="cls-1" d="M17.73,74.48h-2.4c-.08,9.19-1.6,12.79-1.6,12.79l8.8,1.6A25.09,25.09,0,0,1,17.73,74.48Zm0-20h-2.4V72.88h2.4Zm0,20h-2.4c-.08,9.19-1.6,12.79-1.6,12.79l8.8,1.6A25.09,25.09,0,0,1,17.73,74.48Zm0-20h-2.4V72.88h2.4Z"/><path class="cls-2" d="M16.53,70.48a4.4,4.4,0,1,1,0,8.79,4.38,4.38,0,0,1-4.4-4.39A4.45,4.45,0,0,1,16.53,70.48Z"/><path class="cls-1" d="M8.46,51.14l47.4-22.47a6.72,6.72,0,0,1,5.28,0l47.4,22.47c1.44.72,1.44,2,0,2.71L61.14,76.32a6.72,6.72,0,0,1-5.28,0L8.46,53.85C7,53.13,7,51.86,8.46,51.14Zm50,12c15,0,27.18,5.43,27.18,12.07S73.53,87.27,58.5,87.27,31.32,81.83,31.32,75.2,43.47,63.13,58.5,63.13Z"/><path class="cls-3" d="M83.28,56.81c0-5.67-11-10.31-24.7-10.31S34,51.06,33.88,56.73c0,0-2.64,18.55-2.56,18.55,0-5.44,11.43-12.07,27.26-12.07,14.71,0,25.66,6.87,27.1,12Z"/><path class="cls-4" d="M60.1,46.5V63.29c13.91.48,24.14,7,25.58,12l-2.4-18.47C83.28,51.3,73.05,46.9,60.1,46.5Z"/></g></svg>