<svg id="Layer_1" data-name="Layer 1" xmlns="http://www.w3.org/2000/svg" xmlns:xlink="http://www.w3.org/1999/xlink" viewBox="0 0 412 106"><defs><style>.cls-1{fill:url(#linear-gradient);}.cls-2{fill:url(#linear-gradient-2);}.cls-3{fill:url(#linear-gradient-3);}.cls-4{fill:url(#linear-gradient-4);}.cls-5{fill:url(#linear-gradient-5);}</style><linearGradient id="linear-gradient" x1="21.61" y1="47.06" x2="380.27" y2="105.06" gradientUnits="userSpaceOnUse"><stop offset="0" stop-color="#039be5"/><stop offset="1" stop-color="#00acc1"/></linearGradient><linearGradient id="linear-gradient-2" x1="25.59" y1="22.41" x2="384.26" y2="80.41" xlink:href="#linear-gradient"/><linearGradient id="linear-gradient-3" x1="27.88" y1="8.23" x2="386.55" y2="66.23" xlink:href="#linear-gradient"/><linearGradient id="linear-gradient-4" x1="3.5" y1="102" x2="408.5" y2="102" xlink:href="#linear-gradient"/><linearGradient id="linear-gradient-5" x1="4" y1="4" x2="409" y2="4" xlink:href="#linear-gradient"/></defs><title>manogram copy</title><path class="cls-1" d="M103,48.5H22a9,9,0,0,1,0-18h99a9,9,0,0,0-9-9H22a18,18,0,0,0,0,36h81a9,9,0,0,1,0,18H13a9,9,0,0,0-9,9h99a18,18,0,0,0,0-36Z"/><path class="cls-2" d="M256,21.5H157a9,9,0,0,0-9,9H256v36a9,9,0,0,1-9,9H166a9,9,0,0,1-9-9v-9h-9v9a18,18,0,0,0,18,18h81a18,18,0,0,0,18-18v-45Z"/><path class="cls-3" d="M400,75.5H310a9,9,0,0,1-9-9v-45h-9v45a18,18,0,0,0,18,18h99A9,9,0,0,0,400,75.5Z"/><path class="cls-4" d="M3.5,100h405a0,0,0,0,1,0,0v0a4,4,0,0,1-4,4H7.5a4,4,0,0,1-4-4v0A0,0,0,0,1,3.5,100Z"/><path class="cls-5" d="M8,2H405a4,4,0,0,1,4,4V6a0,0,0,0,1,0,0H4A0,0,0,0,1,4,6V6A4,4,0,0,1,8,2Z"/></svg>