<svg id="manogram_icon" xmlns="http://www.w3.org/2000/svg" xmlns:xlink="http://www.w3.org/1999/xlink" viewBox="0 0 378 500"><defs><style>.cls-1{fill:#e6e9ed;}.cls-2{fill:url(#linear-gradient);}.cls-3{fill:url(#linear-gradient-2);}.cls-4{fill:url(#linear-gradient-3);}.cls-5{fill:url(#linear-gradient-4);}.cls-6{fill:url(#linear-gradient-5);}.cls-7{fill:url(#linear-gradient-6);}</style><linearGradient id="linear-gradient" x1="139.6" y1="15.02" x2="144.74" y2="102.44" gradientUnits="userSpaceOnUse"><stop offset="0" stop-color="#e6e9ed"/><stop offset="0.38" stop-color="#e4e7eb"/><stop offset="0.51" stop-color="#dee0e4"/><stop offset="0.61" stop-color="#d2d5d9"/><stop offset="0.69" stop-color="#c2c4c8"/><stop offset="0.76" stop-color="#acafb2"/><stop offset="0.82" stop-color="#929496"/><stop offset="0.87" stop-color="#727476"/><stop offset="0.92" stop-color="#4e4f50"/><stop offset="0.96" stop-color="#262627"/><stop offset="1"/></linearGradient><linearGradient id="linear-gradient-2" x1="385.65" y1="386.08" x2="282.23" y2="387.41" xlink:href="#linear-gradient"/><linearGradient id="linear-gradient-3" x1="162.06" y1="266.87" x2="309.09" y2="267.99" xlink:href="#linear-gradient"/><linearGradient id="linear-gradient-4" x1="140.78" y1="214.8" x2="143.02" y2="88.25" xlink:href="#linear-gradient"/><linearGradient id="linear-gradient-5" x1="95.27" y1="186.44" x2="162.79" y2="210.18" xlink:href="#linear-gradient"/><linearGradient id="linear-gradient-6" x1="259.27" y1="318.52" x2="125.88" y2="291.92" xlink:href="#linear-gradient"/></defs><title>manogram_icon</title><path class="cls-1" d="M300.48,103.7q-27-11.53-61.67-19.48Q206,76.7,167.21,76.09v46.75a237.48,237.48,0,0,1,70.1,12.86q37.21,12.77,60.28,32a2.78,2.78,0,0,0,1.78.65,2.82,2.82,0,0,0,2.81-2.82V106.29A2.81,2.81,0,0,0,300.48,103.7Z"/><path class="cls-2" d="M161.87,4H120.93a6.57,6.57,0,0,0-6.57,6.57V80.73a222.79,222.79,0,0,1,47-4.7c2.37,0,4.73,0,7.06.06V10.57A6.57,6.57,0,0,0,161.87,4Z"/><path class="cls-3" d="M363.44,362.63H317.72q.43,5.52.43,11.39a105.27,105.27,0,0,1-6.71,36.67h52a6.56,6.56,0,0,0,6.56-6.56V369.19A6.56,6.56,0,0,0,363.44,362.63Z"/><path class="cls-4" d="M175,362.63a6.58,6.58,0,0,1-6.57-6.58V122.84c-2.44-.07-4.89-.11-7.33-.11q-26.58,0-46.75,6.75V404.13a6.57,6.57,0,0,0,6.57,6.56H256.09a56.84,56.84,0,0,0,7.44-29,81,81,0,0,0-2-19Z"/><path class="cls-1" d="M318.93,361.4H261.05a81.11,81.11,0,0,1,2,19,56.86,56.86,0,0,1-7.44,29q-7,12.07-20.56,21.22-28,18.84-78.25,18.85-35.49,0-75.93-13.93-39.93-13.77-70.52-39A2.78,2.78,0,0,0,8.62,396h0a2.81,2.81,0,0,0-2.81,2.82V461.9a2.82,2.82,0,0,0,1.69,2.59,400.32,400.32,0,0,0,69.74,23.56q35.08,8.19,79.06,8.19,41,0,70.07-9.83T277.3,459.1a111.77,111.77,0,0,0,31-39.33q2.44-5.14,4.35-10.3a105.33,105.33,0,0,0,6.71-36.68Q319.36,366.92,318.93,361.4Z"/><path class="cls-1" d="M168.44,76.09v46.75c-2.44-.07-4.89-.11-7.33-.11q-26.58,0-46.75,6.75V80.73a222.79,222.79,0,0,1,47-4.7C163.75,76,166.11,76.05,168.44,76.09Z"/><path class="cls-5" d="M168.44,230.16V122.84c-2.44-.07-4.89-.11-7.33-.11q-26.58,0-46.75,6.75V230.16Z"/><path class="cls-6" d="M91.63,140.75a92.41,92.41,0,0,1,23-11.27V80.73q-35.72,7.68-62.5,27.93Q9,141.32,9,192.38q0,44.52,26.08,72.25Q61,292.19,114.66,303.68V246.62q-25.23-7.34-36.27-19.55-13.12-14.48-13.12-39.88Q65.27,158.79,91.63,140.75Z"/><path class="cls-7" d="M296.49,305.82q-22.94-24.3-68.29-36.33-22.38-5.73-54.62-11.2l-5.5-.94v55.72a397.87,397.87,0,0,1,41.55,8.59q27,7.11,40.29,19.93,8,7.82,11.21,20.85H319Q316.36,326.84,296.49,305.82Z"/></svg>