<svg id="Layer_1" data-name="Layer 1" xmlns="http://www.w3.org/2000/svg" viewBox="0 0 418 79"><defs><style>.cls-1{fill:#ccd1d9;}</style></defs><title>manogram</title><path class="cls-1" d="M106,34H25a9,9,0,0,1,0-18h99a9,9,0,0,0-9-9H25a18,18,0,0,0,0,36h81a9,9,0,0,1,0,18H16a9,9,0,0,0-9,9h99a18,18,0,0,0,0-36Z"/><path class="cls-1" d="M259,7H160a9,9,0,0,0-9,9H259V52a9,9,0,0,1-9,9H169a9,9,0,0,1-9-9V43h-9v9a18,18,0,0,0,18,18h81a18,18,0,0,0,18-18V7Z"/><path class="cls-1" d="M403,61H313a9,9,0,0,1-9-9V7h-9V52a18,18,0,0,0,18,18h99A9,9,0,0,0,403,61Z"/></svg>