<?xml version="1.0" encoding="UTF-8"?>
<svg enable-background="new 0 0 622 80.9" version="1.1" viewBox="0 0 622 80.9" xml:space="preserve" xmlns="http://www.w3.org/2000/svg">
<style type="text/css">
	.st0{fill:#039BE5;stroke:#039BE5;stroke-width:0.5;stroke-miterlimit:10;}
	.st1{fill:#00ACC1;stroke:#00ACC1;stroke-width:0.5;stroke-miterlimit:10;}
</style>
<g fill="none" fill-rule="evenodd" stroke="currentColor" stroke-width="3" class="lines">
<path class="st0" d="m36.4 15.7c0 0.2 0 0.5-0.1 0.9-0.1 0.3-0.1 0.7-0.2 1s-0.2 0.7-0.3 1-0.3 0.6-0.4 0.7c-0.4 0.5-1.2 0.8-2.3 0.8 0-1.2-0.2-2.2-0.5-3-0.2-0.4-0.5-0.7-0.9-1s-0.9-0.5-1.4-0.7-1-0.3-1.6-0.4-1-0.1-1.4-0.1c-0.9 0-1.7 0-2.5 0.1-0.8 0-1.6 0.1-2.3 0.2-0.8 0.1-1.5 0.3-2.3 0.5s-1.6 0.5-2.4 0.8c-0.6 0.3-1.3 0.6-2 1s-1.3 0.8-1.9 1.2-1.1 1-1.5 1.5c-0.4 0.6-0.7 1.2-0.8 1.8 0 0.5 0.1 1.1 0.5 1.7 0.3 0.6 0.8 1.3 1.4 1.9s1.3 1.2 2 1.7c0.8 0.5 1.6 0.9 2.4 1.1 0.1 0.1 0.5 0.2 1 0.3s1.1 0.4 1.7 0.6 1.2 0.4 1.7 0.6 0.8 0.3 1 0.3c4 1 7.1 2.3 9 3.7 2 1.4 2.9 3.2 2.9 5.2 0 0.7-0.1 1.3-0.4 2s-0.7 1.3-1.1 1.9-0.9 1.2-1.5 1.7c-0.5 0.5-1 0.9-1.5 1.3s-1.1 0.8-1.8 1.3c-0.7 0.4-1.4 0.9-2.1 1.3-0.8 0.4-1.5 0.8-2.3 1.2s-1.6 0.7-2.4 0.9c-0.8 0.3-1.7 0.5-2.5 0.7-0.9 0.2-1.8 0.4-2.6 0.6-0.9 0.2-1.7 0.3-2.5 0.4s-1.5 0.1-2.1 0.1c-0.5 0-1.1-0.1-1.8-0.2s-1.5-0.3-2.2-0.6c-0.7-0.2-1.3-0.5-1.8-0.9-0.5-0.3-0.8-0.7-0.8-1.1 0-0.2 0-0.5 0.1-0.9 0.1-0.3 0.2-0.7 0.3-1-0.4-0.3-0.2-0.5-0.1-0.8s0.3-0.3 0.5-0.3c0.4 0 0.7 0.1 1.1 0.2s0.8 0.2 1.4 0.4c0.5 0.1 1.2 0.3 1.9 0.4s1.6 0.2 2.6 0.2c1.1 0 2.2-0.1 3.3-0.3 1.2-0.2 2.3-0.5 3.4-0.9s2.2-0.8 3.2-1.3 1.9-1 2.7-1.5c0.4-0.3 0.8-0.5 1.2-0.9 0.5-0.3 0.9-0.7 1.3-1.1s0.7-0.8 1-1.3c0.3-0.4 0.4-0.9 0.4-1.4 0-0.7-0.5-1.3-1.5-2-1-0.6-2-1.1-3-1.4s-1.9-0.6-2.8-0.8c-1-0.3-2.1-0.6-3.3-1s-2.6-0.9-4-1.5c-2.4-0.9-4.5-2.3-6.2-4.1s-2.5-3.9-2.5-6.5c0-1.2 0.3-2.3 1.1-3.4s1.8-2.1 3.1-3 2.8-1.8 4.4-2.5 3.4-1.3 5.1-1.7c0.4-0.1 0.8-0.2 1.3-0.2 0.5-0.1 1-0.2 1.6-0.2 0.5-0.1 1.1-0.1 1.6-0.2 0.5 0 0.9-0.1 1.3-0.1s1 0 1.6 0.1c0.7 0.1 1.3 0.1 2 0.3 0.7 0.1 1.3 0.2 2 0.4s1.1 0.3 1.5 0.6c0.9 0.5 1.6 1.1 2.1 1.7 0.6 0.7 0.9 1.3 0.9 2z"/>
<path class="st0" d="m236.6 40.7c-0.1 0-0.2 0-0.3 0.1s-0.3 0.2-0.4 0.3c-0.2 0.1-0.4 0.3-0.5 0.4-0.7 0.5-1.4 1-2 1.3-0.6 0.4-1.2 0.7-1.7 0.9-0.6 0.2-1.2 0.4-1.8 0.5s-1.3 0.2-2.1 0.2c-1.3 0-2.3-0.3-3.2-0.8s-1.5-1.3-2.1-2.2c-0.5-0.9-0.9-2.1-1.1-3.4s-0.4-2.7-0.4-4.3c0-0.1 0-0.4 0.1-0.8 0-0.4 0.1-0.8 0.2-1.2 0-0.4 0.1-0.8 0.2-1.2 0-0.4 0.1-0.6 0.1-0.8s0-0.3 0-0.4v-0.5c0-0.4-0.1-0.7-0.2-0.9s-0.5-0.4-1-0.4c-0.8 0-1.5 0.1-2.1 0.4-0.7 0.2-1.3 0.6-1.9 1s-1.2 0.9-1.7 1.5-1.1 1.3-1.6 2c-0.4 0.5-1 1.2-1.7 2s-1.4 1.6-2.2 2.5c-0.8 0.8-1.5 1.7-2.2 2.5s-1.3 1.5-1.7 2c0.1-0.7 0.2-1.4 0.2-1.9s0.1-1.1 0.1-1.7 0.2-1.3 0.3-2.2c0.1-0.8 0.3-1.9 0.6-3.3 0.2-0.7 0.3-1.3 0.4-2s0.3-1.3 0.4-1.8 0.2-1 0.2-1.3 0.1-0.5 0.1-0.6v-0.7c0-0.3 0.1-0.5 0.1-0.8 0-0.2 0-0.5-0.1-0.7 0-0.2-0.1-0.4-0.3-0.6s-0.3-0.3-0.6-0.4-0.6-0.2-1-0.2c-0.5 0-1 0.1-1.4 0.3s-0.7 0.5-1 0.9-0.5 0.8-0.6 1.3-0.2 1-0.2 1.6c0 0.8 0 1.6-0.1 2.4l-0.3 0.3-1.5 1.5-1.1 1.1-1 1-1.5 1.5c-0.5 0.5-1.1 1-1.6 1.6-0.5 0.5-1.1 1-1.6 1.5s-1 0.9-1.4 1.2c-0.9 0.7-1.8 1.3-2.7 2s-1.9 1.2-3 1.7c-2.1 1-4.2 1.5-6.1 1.5-3.4 0-5.2-1.6-5.4-4.8 0.6-0.4 1.1-0.9 1.7-1.4s1.1-0.9 1.7-1.3l1.5-1.2c0.5-0.4 0.9-0.8 1.2-1.1 1-1 1.9-1.8 2.7-2.7 0.8-0.8 1.4-1.6 2-2.4 0.5-0.8 0.9-1.6 1.2-2.5s0.4-1.8 0.4-2.8c0-0.8-0.1-1.5-0.3-2.1s-0.6-1.2-1.1-1.8c-0.2-0.2-0.3-0.4-0.6-0.5-0.2-0.2-0.5-0.3-0.7-0.4-0.3-0.1-0.5-0.2-0.7-0.3s-0.4-0.1-0.6-0.1c-1 0-2 0.3-3.1 0.8s-2.1 1.3-3.1 2.3c-1.3 1.3-2.4 2.7-3.2 4.2-0.8 1.4-1.5 2.9-2 4.3s-0.8 2.9-1 4.3c-0.2 1-0.2 2-0.3 3-1.8 1.2-3.4 2.2-5 2.8-1.9 0.7-3.6 1.1-5.1 1.1-0.9 0-1.6-0.2-2.1-0.7s-0.9-1-1.2-1.7-0.4-1.4-0.5-2.1-0.1-1.4-0.1-1.9c0-0.7 0-1.4 0.1-2.1s0.2-1.5 0.3-2.2 0.2-1.3 0.3-1.9 0.1-1 0.1-1.3c0-1.1-0.1-1.9-0.4-2.6-0.2-0.7-0.6-1-1-1-0.9 0-1.7 0.2-2.6 0.7s-1.7 1-2.5 1.8-1.5 1.5-2.2 2.3-1.3 1.6-1.8 2.3c-1 1.3-1.8 2.5-2.5 3.7-0.8 1.2-1.5 2.3-2.1 3.3-0.7 1-1.3 1.9-1.9 2.6-0.6 0.8-1.3 1.4-1.9 1.9 0-0.1-0.1-0.3-0.1-0.6v-1-1-0.8c0-0.7 0.1-1.7 0.2-3.1s0.3-2.9 0.6-4.7 0.6-3.6 0.9-5.6c0.4-2 0.7-4 1.2-5.9 0.1-0.5 0.2-1.1 0.4-1.7 0.1-0.7 0.3-1.4 0.4-2.1 0.2-0.7 0.3-1.5 0.4-2.2 0.1-0.8 0.3-1.5 0.4-2.1l0.3-1.8c0.1-0.5 0.1-0.9 0.1-1.2 0-0.9-0.2-1.7-0.5-2.2s-0.8-0.8-1.3-0.8c-0.2 0-0.5 0-0.7 0.1-0.3 0.1-0.5 0.2-0.8 0.4s-0.5 0.4-0.7 0.8c-0.2 0.3-0.4 0.7-0.5 1.2-0.3 3.5-0.8 6.8-1.3 10-0.2 1.1-0.4 2.2-0.5 3.3-0.1 0.2-0.2 0.4-0.3 0.5-1.2 2.1-2.5 4-3.8 5.6s-2.7 3.1-4.2 4.5-3 2.8-4.7 4c-1.7 1.3-3.5 2.7-5.4 4.2 0.5-0.5 0.9-1 1.4-1.7s0.8-1.4 1.2-2.3c0.4-0.8 0.7-1.7 1.1-2.6 0.3-0.9 0.6-1.8 0.8-2.6 0.2-0.9 0.4-1.7 0.5-2.5s0.2-1.5 0.2-2.1-0.1-1.2-0.4-1.8-0.7-1.2-1.2-1.6c-0.5-0.5-1-0.9-1.7-1.2-0.6-0.3-1.3-0.4-1.9-0.4s-1.3 0.1-2 0.4-1.4 0.6-2.1 1-1.3 0.8-2 1.3l-1.8 1.5c-1.2 1.1-2.4 2.6-3.6 4.4s-2.5 3.9-3.7 6.1c-0.1 0-0.2-0.3-0.2-0.8 0-0.6 0.1-1.3 0.2-2.1s0.3-1.5 0.4-2.3c0.2-0.8 0.3-1.6 0.4-2.3 0.1-0.8 0.2-1.5 0.2-2.1s-0.2-1.2-0.7-1.7-1-0.8-1.6-0.8c-1.5 0-2.4 1.7-2.7 5.1 0 0.4-0.1 0.9-0.1 1.5l-0.3 0.3-1.1 1.1-1 1-1.5 1.5c-0.5 0.5-1.1 1-1.6 1.6-0.6 0.5-1.1 1-1.6 1.5s-1 0.9-1.4 1.2c-0.9 0.7-1.8 1.3-2.7 2s-1.9 1.2-3 1.7c-2.1 1-4.2 1.5-6.1 1.5-3.4 0-5.2-1.6-5.3-4.8 0.6-0.4 1.1-0.9 1.7-1.4s1.1-0.9 1.7-1.3l1.5-1.2c0.5-0.4 0.9-0.8 1.2-1.1 1-1 1.9-1.8 2.7-2.7 0.8-0.8 1.5-1.6 2-2.4s1-1.6 1.2-2.5c0.3-0.9 0.4-1.8 0.4-2.8 0-0.8-0.1-1.5-0.3-2.1s-0.6-1.2-1.1-1.8c-0.2-0.2-0.3-0.4-0.6-0.5-0.2-0.2-0.5-0.3-0.7-0.4s-0.5-0.2-0.7-0.3-0.4-0.1-0.6-0.1c-1 0-2 0.3-3.1 0.8s-2.1 1.3-3.1 2.3c-1.3 1.3-2.4 2.7-3.2 4.2s-1.5 2.9-2 4.3-0.8 2.9-1 4.3-0.3 2.7-0.3 4v-0.2c-0.3 0.3-0.7 0.5-1 0.9-0.4 0.3-0.8 0.6-1.1 0.9-1.3 0.9-2.5 1.7-3.5 2.3s-1.9 1.1-2.8 1.4c-0.9 0.4-1.7 0.6-2.5 0.8s-1.7 0.3-2.6 0.3c-1.3 0-2.3-0.3-2.8-1-0.6-0.7-0.9-1.8-0.9-3.4 0-0.3 0-0.7 0.1-1.2 0-0.6 0.1-1.1 0.2-1.8 0.1-0.6 0.2-1.2 0.2-1.8 0.1-0.6 0.2-1 0.2-1.4 0.1-0.7 0.3-1.5 0.5-2.3 0.2-0.9 0.4-1.7 0.6-2.5s0.4-1.6 0.6-2.2c0.2-0.7 0.3-1.1 0.4-1.4 0.2-0.3 0.4-0.5 0.8-0.6s0.8-0.3 1.3-0.4 1.1-0.2 1.9-0.3c0.7-0.1 1.5-0.2 2.4-0.4 1.3-0.2 2.7-0.5 4.1-0.8s2.7-0.7 3.8-1.2c0.2-0.1 0.5-0.3 0.7-0.4s0.4-0.3 0.6-0.5 0.3-0.4 0.5-0.7c0.1-0.2 0.2-0.5 0.2-0.8l-0.2-0.2c-0.1-0.1-0.2-0.2-0.4-0.3-0.1-0.1-0.3-0.2-0.4-0.3s-0.2-0.1-0.2-0.2c-0.6 0.2-1 0.3-1.4 0.4-0.3 0.1-0.6 0.2-1 0.3-0.3 0.1-0.7 0.2-1.1 0.3s-1 0.2-1.8 0.4c-1 0.2-1.8 0.3-2.4 0.5-0.7 0.1-1.3 0.2-1.8 0.2-0.6 0.1-1.1 0.1-1.7 0.1h-2c-0.6 0-1-0.3-1-0.9 0-0.3 0-0.7 0.1-1.1l0.3-1.5c0.1-0.5 0.3-1 0.4-1.5s0.3-0.9 0.4-1.3c0.4-1.1 0.6-2.1 0.6-2.9 0-1.4-0.6-2.1-1.9-2.1-0.4 0-0.8 0.1-1.1 0.3s-0.5 0.5-0.8 1c-0.2 0.4-0.4 0.9-0.6 1.6s-0.4 1.4-0.5 2.1c-0.2 0.7-0.3 1.5-0.4 2.2s-0.3 1.3-0.3 1.8c0 0.3-0.1 0.6-0.3 1-0.1 0.4-0.3 0.8-0.5 1.2s-0.4 0.7-0.7 1-0.6 0.4-0.8 0.4-0.5 0-1 0.1c-0.5 0-0.9 0.1-1.4 0.2s-1 0.1-1.4 0.2c-0.4 0-0.8 0.1-1 0.1-0.3 0-0.6 0-0.9 0.1-0.3 0-0.6 0.1-0.9 0.2s-0.5 0.2-0.6 0.4-0.3 0.4-0.3 0.6c0 0.6 0.1 1 0.2 1.3 0.2 0.3 0.4 0.5 0.7 0.6s0.7 0.2 1.2 0.2h1.6c0.2 0 0.4 0 0.7-0.1s0.5-0.1 0.8-0.2 0.5-0.1 0.8-0.2c0.3 0 0.5-0.1 0.7-0.1 0.3 0 0.5 0 0.6 0.1 0.2 0.1 0.2 0.2 0.2 0.5 0 0.8-0.1 1.8-0.4 2.9s-0.5 2.3-0.9 3.6c-0.3 1.3-0.6 2.7-0.9 4.2s-0.4 2.9-0.4 4.4c0 1 0.1 1.9 0.4 2.7 0.3 0.9 0.7 1.7 1.3 2.3 0.6 0.7 1.3 1.3 2.2 1.7s2 0.6 3.3 0.6c1.1 0 2.3-0.2 3.4-0.5 1.2-0.3 2.3-0.8 3.5-1.3 1.2-0.6 2.3-1.2 3.5-2 1.1-0.8 2.2-1.5 3.3-2.4 0.5-0.4 0.9-0.7 1.3-1.1 0.4 1.6 1 3 2 4.1 1.5 1.8 3.8 2.6 6.9 2.6h0.2c1.3 0 2.7-0.3 4.2-0.9s3-1.3 4.5-2.3c1.5-0.9 3-2 4.4-3.3 1.5-1.2 2.8-2.5 4.1-3.9 1.2-1.2 2.3-2.5 3.3-3.7v1.4c0 1.4 0 2.5-0.1 3.3-0.1 2.5-0.3 4.9-0.5 7s-0.4 4.1-0.7 6c0 0.3-0.1 0.8-0.2 1.5s-0.2 1.5-0.3 2.4-0.2 1.8-0.3 2.6-0.1 1.6-0.1 2.2c0 0.3 0.1 0.5 0.2 0.8l0.6 0.6c0.2 0.2 0.5 0.3 0.7 0.4s0.5 0.2 0.7 0.2c0.4 0 0.8-0.1 1-0.3 0.3-0.2 0.5-0.4 0.7-0.7s0.4-0.6 0.5-1 0.3-0.7 0.4-1c0.2-0.8 0.3-1.6 0.3-2.5 0.1-0.9 0.1-1.8 0.2-2.7s0.1-2 0.2-3c0.1-1.1 0.1-2.2 0.3-3.4 0.1-1.2 0.2-2.3 0.3-3.4s0.2-1.9 0.3-2.8c0.5-1 1-2 1.6-3 0.5-1 1.2-2 1.8-3.1 0.7-1 1.4-2.1 2.2-3.1s1.7-2.1 2.7-3.1c0.3-0.4 0.7-0.8 1.2-1.2 0.4-0.4 0.9-0.8 1.4-1.2s1-0.7 1.6-1c0.5-0.3 1.1-0.4 1.6-0.4 0.3 0 0.6 0.1 0.9 0.3 0.2 0.2 0.4 0.4 0.6 0.8 0.2 0.3 0.3 0.6 0.4 1s0.1 0.7 0.1 1.1c0 0.6-0.1 1.3-0.3 2-0.2 0.8-0.4 1.5-0.7 2.3s-0.7 1.6-1.1 2.5c-0.4 0.8-0.8 1.6-1.3 2.4s-0.9 1.5-1.4 2.1-0.9 1.2-1.3 1.6l-1 1c-0.3 0.3-0.7 0.5-1 0.8-0.4 0.2-0.8 0.5-1.3 0.8s-1.1 0.6-1.8 1c-0.6 0.3-1 0.6-1.3 1s-0.5 0.9-0.5 1.4c0 0.2 0.1 0.4 0.3 0.6s0.4 0.4 0.7 0.5c0.3 0.2 0.6 0.3 1 0.4 0.3 0.1 0.7 0.1 1.1 0.1 0.2 0 0.5-0.1 1-0.3 0.4-0.2 0.9-0.5 1.5-0.8s1.2-0.7 1.8-1.1l1.8-1.2c0.6-0.4 1-0.7 1.5-1 0.4-0.3 0.7-0.5 0.9-0.5 1.2-0.6 2.4-1.3 3.7-2.2 1.3-0.8 2.5-1.7 3.8-2.7s2.5-2 3.8-3.2c1.2-1.1 2.4-2.3 3.5-3.5s2.1-2.4 3-3.6c-0.3 2.2-0.7 4.3-0.9 6.4-0.3 2.6-0.5 5.2-0.5 7.6v1.4c0 0.6 0 1.3 0.1 2 0 0.7 0.1 1.4 0.2 2.1s0.2 1.3 0.3 1.8c0.1 0 0.3 0 0.4 0.1s0.3 0.1 0.4 0.2c0.2 0.1 0.3 0.1 0.5 0.2 0.2 0 0.5 0.1 0.8 0.1s0.6-0.2 0.9-0.5c0.4-0.3 0.8-0.8 1.2-1.4s0.9-1.3 1.4-2l1.5-2.4c0.5-0.9 1-1.7 1.5-2.6s1-1.8 1.5-2.6c0.8-1.3 1.5-2.6 2.3-3.7s1.5-2.1 2.1-3c0.7-0.9 1.3-1.6 1.8-2.2s1-1 1.4-1.2c0.2 0.2 0.4 0.4 0.5 0.8s0.1 0.9 0.1 1.4v1.3c0 0.5-0.1 1-0.1 1.5s-0.1 1-0.1 1.5v1.2c0 1.1 0.1 2.1 0.3 3.2 0.2 1 0.6 2 1.1 2.7 0.5 0.8 1.2 1.4 2.1 1.9s2 0.7 3.3 0.7c1 0 2-0.2 3.1-0.5s2.2-0.8 3.4-1.4c1.1-0.6 2.3-1.3 3.4-2.1l1.2-0.9c0.3 2 1 3.7 2.1 5 1.5 1.8 3.8 2.6 6.9 2.6h0.2c1.3 0 2.7-0.3 4.2-0.9s3-1.3 4.5-2.3c1.5-0.9 3-2 4.5-3.3 1.5-1.2 2.8-2.5 4.1-3.9 1.3-1.3 2.5-2.7 3.5-4 0.4-0.5 0.8-1 1.1-1.5 0 0.3-0.1 0.6-0.1 0.9-0.1 1.8-0.3 3.4-0.5 4.7s-0.4 2.4-0.6 3.3c0 0.3-0.1 0.7-0.2 1.1s-0.1 0.9-0.2 1.3-0.1 0.9-0.1 1.3-0.1 0.8-0.1 1.1c0 0.2 0.1 0.5 0.2 0.7s0.3 0.4 0.5 0.6 0.5 0.3 0.8 0.5c0.3 0.1 0.7 0.2 1 0.2 0.4 0 0.8-0.1 1-0.2 0.3-0.1 0.5-0.3 0.7-0.6s0.5-0.6 0.8-1.1c0.3-0.4 0.6-1 1.1-1.7 0.3-0.4 0.6-0.9 1.2-1.6 0.5-0.7 1.1-1.4 1.8-2.2s1.4-1.6 2.1-2.5c0.8-0.9 1.5-1.7 2.2-2.4s1.3-1.4 1.9-1.9c0.6-0.6 1-0.9 1.3-1.1 0 2.6 0.2 4.8 0.7 6.6 0.4 1.9 1.1 3.4 1.9 4.6 0.9 1.2 1.9 2.1 3.1 2.7s2.7 0.8 4.3 0.8 3-0.2 4.2-0.7c1.2-0.4 2.3-1 3.1-1.6s1.5-1.3 1.9-2.1 0.7-1.5 0.7-2.1l-0.4-1zm-161.3-10.7c0.8-1.9 1.7-3.5 2.8-4.8 0.5-0.6 1-1.1 1.5-1.3 0.5-0.3 0.9-0.4 1.2-0.4 0.4 0 0.8 0.2 1 0.6 0.3 0.4 0.4 0.9 0.4 1.4 0 0.6-0.1 1.1-0.3 1.7s-0.5 1.1-0.8 1.7c-0.3 0.5-0.7 1-1.2 1.5-0.4 0.5-0.8 0.9-1.3 1.4-0.6 0.6-1.3 1.3-2.1 2s-1.7 1.5-2.9 2.4c0.4-2.3 1-4.3 1.7-6.2zm101.3 0c0.8-1.9 1.7-3.5 2.8-4.8 0.5-0.6 1-1.1 1.5-1.3 0.5-0.3 0.9-0.4 1.2-0.4 0.4 0 0.8 0.2 1 0.6 0.3 0.4 0.4 0.9 0.4 1.4 0 0.6-0.1 1.1-0.3 1.7s-0.5 1.1-0.9 1.7c-0.3 0.5-0.7 1-1.2 1.5-0.4 0.5-0.8 0.9-1.3 1.4-0.6 0.6-1.3 1.3-2.1 2s-1.7 1.5-2.9 2.4c0.5-2.3 1.1-4.3 1.8-6.2z"/>
<path class="st1" d="m288.4 21c0 3.4-0.1 6.3-0.3 8.7s-0.5 4.5-0.9 6.1c-0.1 0.4-0.3 0.9-0.5 1.5s-0.6 1.3-0.9 2.1c-0.4 0.8-0.7 1.6-1.1 2.2-0.3 0.6-0.7 1.2-1 1.7-0.1 0.2-0.3 0.5-0.6 0.8s-0.6 0.7-1 1.2c-1.4 1.6-2.8 2.8-4.4 3.5s-3.4 1.1-5.5 1.1c-1.5 0-3.1-0.1-4.7-0.3s-3.1-0.6-4.6-1.2-2.7-1.3-3.5-2.2c-0.3-0.3-0.5-0.7-0.5-1.1s0.1-0.8 0.2-1.1l0.6-0.9 0.9-0.6c0.4-0.1 0.7-0.2 1.2-0.2 0.4 0 1.6 0.4 3.4 1.2 0.9 0.4 1.7 0.7 2.4 1 0.6 0.3 1.2 0.5 1.5 0.6 0.8 0.3 1.5 0.4 2.2 0.4 2.4 0 4.3-0.5 5.8-1.6s2.7-2.7 3.6-5c1.3-3.2 2-7.5 2-12.9 0-0.8 0-2-0.1-3.6-0.1-1.7-0.2-3.8-0.3-6.4 0-0.9-0.1-1.8-0.1-2.5s-0.1-1.3-0.1-1.8c0-0.1 0-0.2 0.1-0.4s0.3-0.3 0.5-0.5 0.4-0.3 0.5-0.4c0.2-0.1 0.3-0.2 0.4-0.3 0.2-0.2 0.6-0.3 1-0.3 0.5 0 1 0.1 1.4 0.4s0.7 0.6 0.8 1c0 0 0.1 0.3 0.1 0.8 0.1 0.5 0.1 1.2 0.3 2.1 0.3 1.8 0.4 3.4 0.6 4.6 0.5 1.2 0.6 2 0.6 2.3z"/>
<path class="st1" d="m349.2 46.6c-0.4 0.4-0.8 0.8-1.4 1.1s-1 0.4-1.5 0.4h-0.9-1.2-1.2-0.9c-1.1 0-2.3 0.1-3.6 0.3s-2.5 0.4-3.7 0.7-2.5 0.6-3.7 0.9-2.4 0.6-3.4 0.9c-1.1 0.3-2.1 0.5-3 0.7s-1.7 0.3-2.4 0.3c-1.1 0-1.9-0.2-2.5-0.7s-0.9-1.1-1-1.8v-1.5c0-0.6 0.1-1.2 0.2-1.9s0.2-1.4 0.4-2.2c0.1-0.8 0.3-1.6 0.5-2.4 0.1-0.5 0.2-1.2 0.4-2.1s0.3-1.8 0.5-2.7 0.3-1.9 0.5-2.7c0.1-0.9 0.3-1.6 0.3-2.2 0.2-1.3 0.4-2.5 0.6-3.5s0.3-2.1 0.5-3c0.2-1 0.3-1.9 0.4-2.9s0.3-2.1 0.4-3.3c0.1-1.3 0.2-2.5 0.2-3.6s0.2-1.9 0.3-2.7c0.2-0.7 0.5-1.3 0.9-1.7s1.1-0.6 1.9-0.6c0.5 0 0.9 0.1 1.2 0.3s0.6 0.5 0.8 0.8 0.4 0.7 0.5 1.1 0.2 0.8 0.2 1.2c0 0.1 0 0.5-0.2 1.2-0.1 0.7-0.3 1.5-0.5 2.5s-0.5 2.1-0.7 3.4c-0.3 1.2-0.5 2.5-0.8 3.8s-0.5 2.5-0.7 3.7-0.4 2.2-0.5 3.1c-0.1 0.8-0.2 1.6-0.4 2.5s-0.3 1.8-0.5 2.7-0.3 1.8-0.5 2.8-0.3 1.8-0.4 2.6-0.2 1.5-0.3 2.1-0.1 1.1 0 1.5c0 0.3 0.2 0.6 0.4 0.9s0.5 0.4 0.9 0.4 1-0.1 1.6-0.2c0.7-0.1 1.4-0.3 2.1-0.5s1.5-0.4 2.3-0.6 1.5-0.4 2.2-0.6c0.2-0.1 0.5-0.1 0.9-0.2 0.5-0.1 1-0.2 1.6-0.3s1.2-0.3 1.9-0.4 1.3-0.2 1.9-0.3 1.1-0.2 1.6-0.3 0.8-0.1 1-0.1 0.6 0 1-0.1 0.9-0.1 1.4-0.1 1.1-0.1 1.7-0.1 1.3 0.1 1.9 0.2c0.3 0.1 0.6 0.2 0.7 0.5 0.2 0.2 0.3 0.5 0.3 0.8s0 0.6-0.1 1c0.2 0.4 0.1 0.7-0.1 0.9z"/>
<path class="st1" d="m617.3 40.7c-0.1 0-0.2 0-0.4 0.1-0.1 0.1-0.3 0.2-0.4 0.3-0.2 0.1-0.4 0.3-0.5 0.4-0.7 0.5-1.4 1-2 1.3-0.6 0.4-1.2 0.7-1.7 0.9-0.6 0.2-1.2 0.4-1.8 0.5s-1.3 0.2-2.1 0.2c-1.3 0-2.3-0.3-3.2-0.8s-1.6-1.3-2.1-2.2-0.9-2.1-1.1-3.4-0.4-2.7-0.4-4.3c0-0.1 0-0.4 0.1-0.8s0.1-0.8 0.2-1.2 0.1-0.8 0.2-1.2 0.1-0.6 0.1-0.8 0-0.3 0-0.4v-0.5c0-0.4-0.1-0.7-0.2-0.9-0.1-0.3-0.5-0.4-1-0.4-0.8 0-1.5 0.1-2.1 0.4-0.7 0.2-1.3 0.6-1.9 1s-1.2 0.9-1.7 1.5c-0.6 0.6-1.1 1.3-1.6 2-0.4 0.5-1 1.2-1.7 2s-1.4 1.6-2.2 2.5c-0.8 0.8-1.5 1.7-2.2 2.5s-1.3 1.5-1.7 2c0.1-0.7 0.1-1.4 0.2-1.9 0-0.5 0.1-1.1 0.1-1.7 0.1-0.6 0.2-1.3 0.3-2.2 0.1-0.8 0.4-1.9 0.7-3.3 0.1-0.7 0.3-1.3 0.4-2s0.3-1.3 0.4-1.8 0.2-1 0.2-1.3c0.1-0.3 0.1-0.5 0.1-0.6v-0.7c0-0.3 0.1-0.5 0.1-0.8 0-0.2 0-0.5-0.1-0.7 0-0.2-0.1-0.4-0.3-0.6-0.1-0.2-0.3-0.3-0.6-0.4s-0.6-0.2-1-0.2c-0.5 0-1 0.1-1.4 0.3s-0.7 0.5-1 0.9-0.4 0.8-0.6 1.3c-0.1 0.5-0.2 1-0.2 1.6v0.4c-1.6 1.6-3.2 3.2-4.7 4.8-1.6 1.7-3.2 3.2-5 4.6-0.8 0.6-1.5 1.1-2.1 1.5s-1.2 0.5-1.8 0.5c-0.5 0-0.9-0.3-1.3-0.8s-0.7-1.1-0.9-1.9c-0.2-0.7-0.4-1.5-0.5-2.3s-0.2-1.6-0.2-2.2c0-1 0.1-1.9 0.2-2.6s0.3-1.4 0.5-2 0.3-1.1 0.5-1.6 0.2-0.9 0.2-1.3c0-0.2-0.1-0.4-0.3-0.6s-0.4-0.4-0.7-0.6-0.5-0.4-0.7-0.6l-0.5-0.5c-0.1-0.3-0.3-0.5-0.4-0.7s-0.3-0.5-0.4-0.7c-0.2-0.2-0.4-0.4-0.6-0.5s-0.5-0.2-0.8-0.2c-1.6 0-3.2 0.3-4.8 1-1.6 0.6-3 1.6-4.4 3-1.2 1.2-2.4 2.6-3.5 4.2-0.8 1.1-1.5 2.3-2.2 3.5l-0.6 0.6c-0.6 0.6-1.1 1.1-1.7 1.6-0.5 0.5-1.1 1-1.6 1.6s-1.1 1-1.7 1.5l-1.8 1.5c-0.7 0.5-1.3 1-2 1.4s-1.3 0.7-1.8 1c-0.6 0.3-1.1 0.4-1.4 0.4-1 0-1.8-0.5-2.3-1.6s-0.9-2.8-1.2-5c-0.1-1.1-0.2-2-0.2-2.9s-0.1-1.7-0.2-2.4-0.1-1.3-0.3-1.9c-0.1-0.5-0.3-1-0.6-1.5-0.1-0.2-0.3-0.3-0.5-0.5s-0.4-0.3-0.7-0.4-0.6-0.2-0.8-0.3c-0.3 0-0.6-0.1-0.8-0.1-0.4 0-0.9 0.2-1.5 0.7-0.6 0.4-1.2 1-1.9 1.8s-1.3 1.6-2 2.6-1.4 2-2 3c-0.6 1.1-1.2 2-1.7 2.9s-1 1.7-1.4 2.4c-0.8 1.4-1.4 2.1-1.7 2.1 0 0-0.1 0-0.2-0.2-0.1-0.1-0.2-0.3-0.3-0.5s-0.2-0.6-0.3-1-0.2-0.9-0.2-1.6c-0.1-0.7-0.1-1.3-0.2-2 0-0.7-0.1-1.4-0.1-2.2-0.1-0.7-0.1-1.4-0.2-2.1s-0.2-1.2-0.3-1.7c-0.2-1.1-0.6-2-1.3-2.6-0.6-0.7-1.4-1-2.2-1-0.9 0-1.7 0.2-2.5 0.7s-1.6 1.1-2.3 2c-0.4 0.4-0.8 1-1.2 1.6s-0.9 1.3-1.4 2-0.9 1.4-1.3 2.1-0.8 1.3-1.1 1.9c-0.5 0.8-1 1.6-1.4 2.3-0.5 0.8-0.9 1.4-1.3 2.1s-0.8 1.2-1.2 1.6c-0.3 0.5-0.6 0.8-0.9 1 0-0.4 0-0.8 0.1-1.4 0-0.6 0.2-1.4 0.3-2.4 0.1-0.4 0.1-0.9 0.3-1.5 0.1-0.6 0.2-1.3 0.4-2 0.1-0.7 0.3-1.5 0.4-2.3s0.3-1.6 0.4-2.3c0.1-0.8 0.2-1.5 0.3-2.1 0.1-0.7 0.1-1.2 0.1-1.6s0-0.8-0.1-1.2-0.2-0.7-0.3-1-0.3-0.5-0.6-0.7-0.5-0.3-0.9-0.3c-0.2 0-0.5 0.1-0.8 0.3s-0.6 0.4-0.8 0.7-0.5 0.5-0.7 0.8-0.3 0.5-0.4 0.8c-0.1 0.4-0.2 1-0.3 1.7v0.4c-0.5 0.4-1.1 0.9-1.9 1.6-0.9 0.8-1.6 1.5-2.4 2.2-0.7 0.6-1.4 1.2-2 1.7-0.7 0.6-1.4 1.2-2.3 1.9-0.8 0.7-1.8 1.3-2.7 1.9s-1.9 1-2.9 1.4-2 0.6-2.9 0.6c-0.5 0-0.9-0.2-1.2-0.7-0.3-0.4-0.6-1.1-0.9-1.8s-0.4-1.6-0.6-2.6c-0.1-1-0.3-2-0.4-3-0.1-1.1-0.2-2.1-0.4-3.1s-0.4-1.9-0.8-2.9c-0.1-0.3-0.2-0.5-0.5-0.7l-0.7-0.7c-0.3-0.2-0.5-0.4-0.8-0.5-0.2-0.1-0.4-0.2-0.6-0.2-1 0-2.2 0.4-3.5 1.1s-2.5 1.7-3.8 2.9c-0.7 0.7-1.5 1.6-2.3 2.6s-1.6 2-2.4 3.2-1.7 2.3-2.5 3.6-1.6 2.5-2.4 3.8h-0.1c-0.1 0-0.2-0.1-0.3-0.2-0.1-0.2-0.2-0.3-0.2-0.4 0-0.6 0.1-1.3 0.2-2.1s0.3-1.7 0.4-2.7c0.2-1 0.3-1.9 0.5-2.9s0.4-1.9 0.6-2.7c0.2-0.9 0.4-1.6 0.5-2.2 0.2-0.6 0.3-1.1 0.3-1.4 0.3-1.2 0.6-2.4 1-3.7s0.7-2.7 1.1-4.1c0.3-1.4 0.6-2.8 0.8-4.3s0.3-2.9 0.3-4.3c0-0.6-0.1-1.1-0.3-1.5s-0.4-0.8-0.7-1c-0.3-0.3-0.6-0.5-0.9-0.6s-0.6-0.2-0.9-0.2-0.6 0.2-0.9 0.5-0.6 0.7-0.8 1.1-0.4 0.9-0.6 1.4-0.3 1-0.3 1.4c-0.1 0.5-0.1 1-0.2 1.7-0.1 0.6-0.2 1.4-0.3 2.1l-0.3 2.4-0.3 2.4c-0.1 0.8-0.2 1.5-0.3 2.1s-0.2 1.2-0.2 1.6c-0.1 1-0.3 1.9-0.4 2.9-0.7 1.1-1.4 2.2-2.3 3.4-1.1 1.5-2.3 2.9-3.5 4.3-1.3 1.4-2.6 2.8-4.1 4.1-1.4 1.3-2.8 2.4-4.2 3.4-0.5 0.4-1.2 0.7-1.9 1.1s-1.5 0.7-2.3 1-1.6 0.5-2.4 0.7-1.5 0.3-2.1 0.3c-0.5 0-1.1-0.1-1.6-0.2-0.6-0.1-1-0.4-1.5-0.7s-0.8-0.7-1.1-1.3c-0.3-0.5-0.4-1.1-0.4-1.9 0-0.7 0.1-1.5 0.4-2.5s0.6-2.1 1-3.2c0.5-1.1 1-2.3 1.6-3.4s1.3-2.2 2-3.1 1.5-1.7 2.2-2.3c0.8-0.6 1.6-0.9 2.4-0.9 0.5 0 1 0.2 1.3 0.5 0.3 0.4 0.6 0.7 0.8 1.2 0.2 0.4 0.5 0.8 0.7 1.2 0.3 0.4 0.6 0.5 1 0.5 0.2 0 0.5-0.1 0.7-0.3s0.4-0.4 0.6-0.7 0.3-0.6 0.4-0.9 0.2-0.7 0.2-1c0-0.4-0.2-0.9-0.5-1.4s-0.7-0.9-1.3-1.3c-0.5-0.4-1.1-0.7-1.7-1s-1.2-0.4-1.7-0.4c-0.4 0-0.9 0.1-1.5 0.2s-1.1 0.3-1.7 0.5-1.1 0.5-1.7 0.8c-0.5 0.3-1 0.6-1.3 0.9-0.7 0.6-1.3 1.3-2 2.1-0.6 0.8-1.3 1.8-1.9 2.8-0.5 0.8-1 1.7-1.4 2.6-0.1 0-0.1 0.1-0.2 0.2-0.2 0.3-0.5 0.5-0.7 0.8s-0.4 0.5-0.5 0.5c-1.1 1.2-2.3 2.3-3.4 3.4-1.2 1-2.3 2-3.5 2.8s-2.3 1.4-3.5 1.9c-1.1 0.5-2.3 0.7-3.4 0.7-0.7 0-1.3-0.2-1.8-0.5s-1-0.8-1.3-1.3c-0.4-0.5-0.6-1.1-0.8-1.7s-0.3-1.3-0.3-1.9c0-1.1 0.1-2.1 0.4-3.1 0.2-1 0.5-2.1 0.8-3.4 0.3-1 0.4-1.8 0.4-2.4 0-0.2-0.1-0.5-0.2-0.9s-0.3-0.8-0.5-1.1c-0.2-0.4-0.4-0.7-0.6-1s-0.4-0.5-0.6-0.6c-0.3-0.2-0.7-0.4-1.1-0.5s-0.8-0.2-1.2-0.2-0.8-0.1-1.3-0.1h-1.2c-0.8 0-1.6 0.2-2.6 0.6s-1.9 1-2.9 1.6c-1 0.7-2 1.4-2.9 2.3-0.9 0.8-1.7 1.7-2.4 2.6-0.6 0.8-1.3 1.7-1.9 2.8l-0.7 0.7c-1.2 1.2-2.4 2.4-3.7 3.5-1.2 1.1-2.6 2.2-4.1 3.3-0.8 0.6-1.7 1.2-2.6 1.7-0.9 0.6-1.9 1.1-2.9 1.5s-2 0.8-3.1 1.1c-1 0.3-2.1 0.4-3.1 0.4-1.8 0-3.3-0.4-4.3-1.3s-1.6-2.2-1.6-4c1.3-0.9 2.5-1.7 3.4-2.5s1.8-1.5 2.6-2.1c1.2-1 2.3-2 3.1-2.9 0.9-0.9 1.5-1.8 2.1-2.6 0.5-0.8 0.9-1.7 1.1-2.5s0.3-1.6 0.3-2.4c0-0.7-0.2-1.4-0.5-2s-0.7-1.2-1.2-1.8c-0.2-0.2-0.4-0.4-0.6-0.5-0.3-0.1-0.6-0.2-0.8-0.3-0.3-0.1-0.6-0.2-0.8-0.2s-0.5 0-0.6 0c-0.6 0-1.2 0.1-1.8 0.3s-1.1 0.4-1.7 0.7c-0.5 0.3-1.1 0.7-1.6 1-0.5 0.4-0.9 0.8-1.3 1.2-2.1 2.4-3.6 5-4.5 7.7s-1.3 5.4-1.3 8.2c0 3.4 0.8 5.9 2.4 7.5 1.6 1.7 3.8 2.5 6.7 2.5 1.3 0 2.7-0.2 4.1-0.6s2.8-1 4.3-1.8c1.4-0.8 2.9-1.7 4.3-2.7s2.8-2.2 4.1-3.4c0.5-0.4 0.9-0.9 1.4-1.3-0.1 0.2-0.1 0.3-0.1 0.5-0.3 1.2-0.5 2.4-0.5 3.6 0 0.6 0.1 1.3 0.3 2 0.2 0.8 0.4 1.5 0.8 2.1 0.3 0.7 0.8 1.2 1.3 1.7s1.2 0.7 1.9 0.7c0.5 0 1-0.1 1.6-0.2l1.8-0.6c0.6-0.2 1.2-0.5 1.7-0.8 0.6-0.3 1-0.5 1.4-0.8 0.7-0.5 1.4-1 2-1.5 0.7-0.6 1.3-1.1 1.9-1.7l1.8-1.8c0.6-0.6 1.1-1.1 1.6-1.7 0.2 0.8 0.5 1.4 0.9 2.1 0.4 0.6 0.9 1.2 1.5 1.6 0.6 0.5 1.2 0.8 1.9 1 0.7 0.3 1.3 0.4 2 0.4 1.4 0 2.8-0.2 4-0.6s2.4-1 3.5-1.8c1.1-0.7 2.2-1.6 3.3-2.5 1-0.9 2-1.8 3.1-2.8-0.2 1-0.3 1.8-0.3 2.6 0 1.3 0.2 2.5 0.5 3.5s0.8 1.8 1.3 2.4c0.6 0.6 1.3 1.1 2.1 1.4s1.7 0.5 2.6 0.5c1 0 1.8 0 2.6-0.1s1.5-0.2 2.3-0.3c0.7-0.2 1.5-0.4 2.2-0.7 0.8-0.3 1.6-0.7 2.5-1.3 1.3-0.8 2.6-1.6 3.8-2.5s2.5-1.9 3.7-3.1 2.4-2.4 3.6-3.8c1-1.1 2-2.4 3.1-3.8-0.2 1.3-0.5 2.6-0.7 3.9-0.3 1.5-0.5 3-0.8 4.5-0.1 0.3-0.2 0.7-0.3 1.2l-0.3 1.5c-0.1 0.5-0.2 1-0.2 1.5-0.1 0.5-0.1 0.8-0.1 1.1s0.1 0.6 0.2 0.8c0.2 0.2 0.4 0.4 0.6 0.5 0.3 0.1 0.6 0.3 0.9 0.3 0.3 0.1 0.7 0.1 1 0.1 0.2 0 0.5-0.1 0.9-0.4l1.2-0.9c0.4-0.4 0.8-0.7 1.1-1.1s0.6-0.6 0.7-0.8c0.5-0.8 1.1-1.7 1.8-2.6 0.6-0.9 1.3-1.9 1.9-2.8s1.2-1.8 1.8-2.6 1-1.5 1.4-2c0.7-0.9 1.3-1.7 2-2.4s1.3-1.4 1.9-1.9 1.2-1 1.7-1.3 0.9-0.5 1.2-0.5c0.4 0 0.7 0.1 1 0.4 0.2 0.3 0.4 0.6 0.6 1.1 0.1 0.5 0.3 1 0.4 1.7s0.2 1.4 0.2 2.2c0.2 1.7 0.4 3.2 0.7 4.4s0.7 2.2 1.2 3.1c0.9 1.7 2.4 2.6 4.5 2.6 1.4 0 2.8-0.3 4.1-0.9s2.6-1.3 3.8-2.3c1.2-0.9 2.4-1.9 3.6-3s2.3-2.2 3.3-3.2l0.9-0.9c0.3-0.4 0.7-0.7 1-1.1 0.2-0.3 0.4-0.5 0.7-0.8 0 0.3 0 0.6-0.1 1-0.1 0.9-0.1 1.7-0.2 2.5-0.1 0.9-0.2 1.7-0.3 2.4s-0.2 1.3-0.3 2c-0.1 0.6-0.1 1.2-0.2 1.8 0 0.6-0.1 1.3-0.1 2v1s0 0.5 0.1 0.7c0 0.2 0.1 0.5 0.2 0.7s0.1 0.5 0.3 0.9c0.4 1.4 1.3 2.1 2.7 2.1 0.7 0 1.4-0.4 1.9-1.1 0.2-0.3 0.5-0.7 0.8-1.2s0.6-1 1-1.6c0.3-0.6 0.7-1.1 1-1.7s0.6-1 0.9-1.5c0.9-1.6 1.8-3.1 2.7-4.5s1.8-2.6 2.5-3.6 1.5-1.8 2.1-2.4 1.1-0.9 1.4-0.9c0.5 0 0.9 0.7 1.3 2.2 0.3 1.5 0.5 3.5 0.6 6.3s0.3 4.8 0.7 5.9c0.4 1.2 1.3 1.8 2.5 1.8 0.8 0 1.7-0.7 2.7-2 1-1.4 2.2-3.3 3.7-5.9 0.7-1.3 1.4-2.5 2.1-3.5s1.3-1.9 1.9-2.7c0.6-0.7 1.1-1.3 1.5-1.7s0.8-0.6 1-0.6 0.3 0.1 0.4 0.4 0.2 0.6 0.3 1.1 0.2 1 0.3 1.6 0.2 1.2 0.2 1.9c0.1 0.7 0.2 1.3 0.2 2 0.1 0.7 0.2 1.3 0.3 1.8 0.2 1.4 0.5 2.5 0.8 3.3 0.3 0.9 0.7 1.5 1.1 2s0.9 0.8 1.4 1 1.1 0.3 1.7 0.3c0.7 0 1.4-0.1 2.2-0.4s1.6-0.7 2.3-1.1c0.8-0.4 1.5-0.9 2.1-1.4 0.7-0.5 1.3-1 1.8-1.4 0.6-0.5 1.3-1.1 2-1.8l0.6-0.6c-0.5 1.6-0.7 3-0.7 4.2 0 0.8 0.2 1.5 0.4 2.1 0.3 0.6 0.7 1.2 1.2 1.6s1 0.8 1.7 1c0.6 0.2 1.3 0.3 2 0.3 0.3 0 0.8-0.2 1.4-0.5s1.3-0.8 2.1-1.3 1.5-1.1 2.3-1.8 1.4-1.3 2-1.9c0.2-0.2 0.4-0.5 0.7-0.8s0.6-0.8 0.9-1.2 0.7-0.9 1.1-1.3c0.3-0.5 0.7-0.9 1-1.2 0.3-0.4 0.6-0.7 0.8-0.9s0.4-0.3 0.5-0.3 0.2 0.1 0.3 0.3 0.2 0.5 0.2 0.8c0.1 0.3 0.1 0.6 0.2 1 0.1 0.3 0.2 0.7 0.2 0.9 0.2 0.5 0.4 1 0.7 1.5s0.6 0.9 1 1.2 0.8 0.6 1.2 0.8 0.9 0.3 1.3 0.3c1 0 2.2-0.3 3.5-1s2.6-1.6 3.9-2.8c1.3-1.1 2.5-2.3 3.7-3.6 1.2-1.2 2.3-2.6 3.5-4.1 0 0.6-0.1 1.2-0.1 1.8-0.1 1.8-0.3 3.4-0.5 4.7s-0.4 2.4-0.6 3.3c-0.1 0.3-0.1 0.7-0.2 1.1s-0.1 0.9-0.2 1.3-0.1 0.9-0.2 1.3c0 0.4-0.1 0.8-0.1 1.1 0 0.2 0.1 0.5 0.2 0.7s0.3 0.4 0.5 0.6 0.5 0.3 0.8 0.5c0.3 0.1 0.7 0.2 1.1 0.2s0.7-0.1 1-0.2 0.5-0.3 0.7-0.6 0.5-0.6 0.8-1.1c0.3-0.4 0.6-1 1.1-1.7 0.3-0.4 0.6-0.9 1.2-1.6s1.1-1.4 1.8-2.2 1.4-1.6 2.1-2.5 1.5-1.7 2.2-2.4 1.3-1.4 1.9-1.9c0.6-0.6 1-0.9 1.3-1.1 0 2.6 0.2 4.8 0.7 6.6 0.4 1.9 1.1 3.4 1.9 4.6s1.9 2.1 3.1 2.7 2.7 0.8 4.3 0.8 3-0.2 4.2-0.7c1.2-0.4 2.3-1 3.1-1.6s1.5-1.3 1.9-2.1 0.6-1.5 0.6-2.1l0.1-1.4zm-257.8-6.5l0.3-1.5c0.1-0.5 0.3-1 0.4-1.5s0.3-0.9 0.5-1.3c0.8-1.8 1.7-3.3 2.7-4.4s1.9-1.7 2.9-1.7c0.2 0 0.4 0.1 0.6 0.2s0.3 0.3 0.4 0.5 0.2 0.4 0.3 0.7 0.1 0.5 0.1 0.8c0 0.6-0.1 1.1-0.3 1.6s-0.5 1.1-0.9 1.6-0.8 1-1.2 1.4c-0.4 0.5-0.9 0.9-1.3 1.3-0.7 0.6-1.4 1.2-2.2 1.8s-1.6 1.2-2.6 1.9c0.1-0.4 0.2-0.9 0.3-1.4zm38.6 3.1c-1 1.6-2.1 3.1-3.5 4.3s-2.9 2.2-4.6 2.9c-1.2 0.5-2.3 0.8-3.1 0.8-0.3 0-0.5-0.1-0.6-0.3-0.2-0.2-0.3-0.4-0.4-0.7s-0.2-0.6-0.2-0.9-0.1-0.5-0.1-0.7c0-0.6 0.1-1.3 0.3-2s0.4-1.5 0.7-2.3 0.7-1.6 1.1-2.4 0.8-1.6 1.3-2.3c0.4-0.7 0.9-1.4 1.4-2 0.4-0.6 0.9-1.1 1.3-1.5 0.5-0.5 1-1 1.5-1.4 0.5-0.5 1-0.9 1.6-1.2s1.1-0.6 1.7-0.8 1.2-0.3 1.8-0.3h0.9c0.3 0 0.5 0.1 0.7 0.4s0.3 0.7 0.3 1.1c0 0.5 0.1 0.8 0.1 1.1-0.1 3-0.8 5.7-2.2 8.2zm165.6-11.4c0 0.3-0.1 0.6-0.2 1s-0.1 0.7-0.2 1.1-0.1 0.7-0.2 1c-0.2 0.9-0.6 1.9-1.1 2.9-0.5 1.1-1.2 2.2-1.9 3.3s-1.6 2.2-2.4 3.2c-0.9 1.1-1.7 2-2.5 2.8s-1.6 1.5-2.3 2-1.3 0.7-1.8 0.7c-0.4 0-0.9-0.1-1.3-0.4s-0.6-0.7-0.6-1.3c0-0.9 0.1-1.8 0.3-2.7 0.2-0.8 0.5-1.6 0.8-2.4s0.7-1.4 1.1-2 0.7-1.2 1-1.7c1-1.7 2-3.2 2.9-4.4s1.8-2.2 2.7-3c0.8-0.8 1.6-1.3 2.4-1.7s1.5-0.6 2.1-0.7h0.1c0.2 0 0.3 0.1 0.5 0.2l0.4 0.4c0.1 0.2 0.2 0.3 0.2 0.5 0.1 0.2 0.1 0.3 0.1 0.3 0 0.4-0.1 0.6-0.1 0.9z"/>
</g>
</svg>
