<svg xmlns="http://www.w3.org/2000/svg" viewBox="0 0 252 252"><defs><style>.cls-1{fill:#2ecc71;}.cls-2{fill:#ffc107;}.cls-3{fill:#00b4db;}.cls-4{fill:#0083b0;}</style></defs><title>Other_services_icon</title><g id="Layer_4" data-name="Layer 4"><path class="cls-1" d="M117.11,188.54v-44a2.75,2.75,0,0,0-2.75-2.74H96.06a2.75,2.75,0,0,0,0,5.49h15.56v41.25a11.9,11.9,0,1,0,5.49,0Zm-2.75,18a6.41,6.41,0,1,1,6.41-6.4A6.41,6.41,0,0,1,114.36,206.51Z"/><path class="cls-2" d="M146.38,188.54v-44a2.74,2.74,0,0,0-2.74-2.74h-18.3a2.75,2.75,0,0,0,0,5.49h15.55v41.25a11.9,11.9,0,1,0,5.49,0Zm-2.74,18a6.41,6.41,0,1,1,6.4-6.4A6.41,6.41,0,0,1,143.64,206.51Z"/><path class="cls-3" d="M193,169.91a11.92,11.92,0,0,0-11.57,9.15h-5.81V144.54a2.75,2.75,0,0,0-2.75-2.74H154.62a2.75,2.75,0,1,0,0,5.49h15.55v34.52a2.74,2.74,0,0,0,2.74,2.74h8.56A11.9,11.9,0,1,0,193,169.91Zm0,18.3a6.41,6.41,0,1,1,6.41-6.4A6.41,6.41,0,0,1,193,188.21Z"/><path class="cls-4" d="M208.46,99.12a29.78,29.78,0,0,0-14.31-9.73A52,52,0,0,0,98,64.81a23.31,23.31,0,0,0-7.11-1.09,23.78,23.78,0,0,0-23.18,18.7A33,33,0,0,0,76,147.29h6.38v31.77H76.53a11.9,11.9,0,1,0,0,5.49h8.56a2.74,2.74,0,0,0,2.74-2.74V144.54a2.74,2.74,0,0,0-2.74-2.74H76a27.48,27.48,0,0,1-5.37-54.42,2.74,2.74,0,0,0,2.18-2.33A18.24,18.24,0,0,1,98.07,70.7a2.74,2.74,0,0,0,3.49-1.19,46.47,46.47,0,0,1,87.16,22,2.74,2.74,0,0,0,2.13,2.65,24.12,24.12,0,0,1-5.46,47.62h-1.5a2.75,2.75,0,0,0,0,5.49h1.5a29.61,29.61,0,0,0,23.07-48.17ZM65,188.21a6.41,6.41,0,1,1,6.4-6.4A6.41,6.41,0,0,1,65,188.21Z"/><path class="cls-4" d="M176.83,94.38h0a2.73,2.73,0,0,0,2.72-2.77A37,37,0,0,0,177,78.46a2.75,2.75,0,0,0-5.12,2,31.32,31.32,0,0,1,2.16,11.2,2.75,2.75,0,0,0,2.75,2.72Z"/><path class="cls-3" d="M166.8,71.75a2.71,2.71,0,0,0,2.11,1,2.75,2.75,0,0,0,2.12-4.5,37.25,37.25,0,0,0-28.77-13.61,2.75,2.75,0,1,0,0,5.49A31.77,31.77,0,0,1,166.8,71.75Z"/><path class="cls-1" d="M121.18,109.69l-2.2-1.27a1.87,1.87,0,0,1,0-3.24l2.2-1.27a1.89,1.89,0,0,0,.69-2.57l-4.17-7.21a1.87,1.87,0,0,0-2.56-.69l-2.2,1.27A1.89,1.89,0,0,1,112,95a1.87,1.87,0,0,1-1.87-1.87V90.55a1.88,1.88,0,0,0-1.88-1.88H99.92A1.88,1.88,0,0,0,98,90.55v2.54A1.87,1.87,0,0,1,96.17,95a1.89,1.89,0,0,1-.94-.25L93,93.44a1.87,1.87,0,0,0-2.56.69l-4.17,7.21a1.89,1.89,0,0,0,.69,2.57l2.2,1.27a1.87,1.87,0,0,1,0,3.24L87,109.69a1.88,1.88,0,0,0-.69,2.56l4.17,7.22a1.89,1.89,0,0,0,1.63.94,1.86,1.86,0,0,0,.93-.25l2.2-1.27a1.81,1.81,0,0,1,.94-.26A1.88,1.88,0,0,1,98,120.51v2.54a1.88,1.88,0,0,0,1.88,1.88h8.33a1.88,1.88,0,0,0,1.88-1.88v-2.54a1.88,1.88,0,0,1,1.87-1.88,1.81,1.81,0,0,1,.94.26l2.2,1.27a1.86,1.86,0,0,0,.93.25,1.89,1.89,0,0,0,1.63-.94l4.17-7.22A1.88,1.88,0,0,0,121.18,109.69Zm-17.13,5.67a8.56,8.56,0,1,1,8.56-8.56A8.56,8.56,0,0,1,104.05,115.36Z"/><path class="cls-3" d="M150.87,113.68l-1.61-.93a1.38,1.38,0,0,1,0-2.39l1.61-.93a1.38,1.38,0,0,0,.51-1.88l-3.07-5.3a1.34,1.34,0,0,0-1.19-.69,1.45,1.45,0,0,0-.69.18l-1.61.93a1.36,1.36,0,0,1-.69.19,1.38,1.38,0,0,1-1.38-1.38V99.62a1.37,1.37,0,0,0-1.37-1.38h-6.13a1.37,1.37,0,0,0-1.37,1.38v1.86a1.38,1.38,0,0,1-1.38,1.38,1.36,1.36,0,0,1-.69-.19l-1.61-.93a1.45,1.45,0,0,0-.69-.18,1.34,1.34,0,0,0-1.19.69l-3.07,5.3a1.38,1.38,0,0,0,.51,1.88l1.61.93a1.38,1.38,0,0,1,0,2.39l-1.61.93a1.38,1.38,0,0,0-.51,1.88l3.07,5.3a1.36,1.36,0,0,0,1.19.69,1.45,1.45,0,0,0,.69-.18l1.61-.94a1.34,1.34,0,0,1,.69-.18,1.37,1.37,0,0,1,1.38,1.37v1.87a1.37,1.37,0,0,0,1.37,1.38h6.13a1.37,1.37,0,0,0,1.37-1.38v-1.87a1.37,1.37,0,0,1,1.38-1.37,1.34,1.34,0,0,1,.69.18l1.61.94a1.45,1.45,0,0,0,.69.18,1.36,1.36,0,0,0,1.19-.69l3.07-5.3A1.38,1.38,0,0,0,150.87,113.68Zm-12.58,4.16a6.29,6.29,0,1,1,6.29-6.29A6.29,6.29,0,0,1,138.29,117.84Z"/><path class="cls-2" d="M138.63,87.7l-1.39-.8a1.18,1.18,0,0,1,0-2l1.39-.8a1.2,1.2,0,0,0,.43-1.62l-2.62-4.54a1.19,1.19,0,0,0-1-.59,1.16,1.16,0,0,0-.59.16l-1.38.8a1.16,1.16,0,0,1-.59.16,1.18,1.18,0,0,1-1.18-1.19V75.65a1.18,1.18,0,0,0-1.18-1.18h-5.25a1.18,1.18,0,0,0-1.18,1.18v1.59a1.19,1.19,0,0,1-1.18,1.19,1.16,1.16,0,0,1-.59-.16l-1.38-.8a1.16,1.16,0,0,0-.59-.16,1.19,1.19,0,0,0-1,.59l-2.62,4.54a1.19,1.19,0,0,0,.43,1.62l1.39.8a1.18,1.18,0,0,1,0,2l-1.39.8a1.18,1.18,0,0,0-.43,1.61l2.62,4.55a1.21,1.21,0,0,0,1,.59,1.27,1.27,0,0,0,.59-.16l1.38-.8a1.16,1.16,0,0,1,.59-.16,1.18,1.18,0,0,1,1.18,1.18v1.6a1.18,1.18,0,0,0,1.18,1.18h5.25a1.18,1.18,0,0,0,1.18-1.18v-1.6a1.18,1.18,0,0,1,1.77-1l1.38.8a1.27,1.27,0,0,0,.59.16,1.21,1.21,0,0,0,1-.59l2.62-4.55A1.19,1.19,0,0,0,138.63,87.7Zm-10.79,3.57a5.39,5.39,0,1,1,5.39-5.39A5.4,5.4,0,0,1,127.84,91.27Z"/></g></svg>