<svg xmlns="http://www.w3.org/2000/svg" viewBox="0 0 117 117"><defs><style>.cls-1{fill:#263238;}.cls-2{fill:#039be5;}.cls-3{fill:#e6e9ed;}.cls-4{fill:#ccd1d9;}</style></defs><title>skils</title><g id="skils"><circle class="cls-1" cx="58.5" cy="58.5" r="58.1"/><circle class="cls-2" cx="82.35" cy="36.89" r="7.45"/><circle class="cls-2" cx="62.97" cy="39.87" r="7.45"/><circle class="cls-2" cx="58.5" cy="23.47" r="7.45"/><circle class="cls-2" cx="43.59" cy="36.89" r="7.45"/><path class="cls-2" d="M79.37,65.54l-4-1L77.5,61l-5.86-5.86-3.53,2.11-1-4H58.83l-1,4-3.52-2.11L48.45,61l2.11,3.52-4,1v8.29l4,1-2.11,3.52,5.86,5.87,3.52-2.12,1,4h8.29l1-4,3.52,2.11,5.86-5.86-2.11-3.52,4-1ZM63,75.64a6,6,0,1,1,6-6A6,6,0,0,1,63,75.64Z"/><path class="cls-3" d="M92.78,37.21a10.35,10.35,0,0,0-2.94-7.59l-.17-.16a9.64,9.64,0,0,0,.13-1.52A9,9,0,0,0,80.86,19h-.13a12,12,0,0,0-10.3-6,11.79,11.79,0,0,0-6,1.62,11.79,11.79,0,0,0-6-1.62,11.93,11.93,0,0,0-10.4,6.1A8.6,8.6,0,0,0,46.58,19a9,9,0,0,0-8.95,8.94c0,.12,0,.25,0,.37a10.4,10.4,0,0,0-4.27,6.35A10.43,10.43,0,0,0,37.1,45.05,28.53,28.53,0,0,0,33.34,53l-.68,2.24a32,32,0,0,1-8,13.42,1.48,1.48,0,0,0,0,2.1l.7.7a21.46,21.46,0,0,1,6.32,15.26,9.83,9.83,0,0,0,14.48,8.65l3.41-1.84V104H77.88V91.45a10.42,10.42,0,0,1,2-6.14l4.42-6.07a28.64,28.64,0,0,0,5.51-17v-1a28.75,28.75,0,0,0-4-14.63A10.52,10.52,0,0,0,92.78,37.21Zm-6,24v1a25.74,25.74,0,0,1-4.94,15.21l-4.42,6.07a13.35,13.35,0,0,0-2.56,7.89V101H52.54V91.9l2.83-1.53L54,87.74l-9.22,5a6.84,6.84,0,0,1-10.09-6,24.39,24.39,0,0,0-6.86-17,35,35,0,0,0,7.73-13.59l.67-2.25a26.07,26.07,0,0,1,3.36-7.08l.15-.19a10.46,10.46,0,0,0,3.89.77H54a4.48,4.48,0,0,1,4.47,4.47v1.49h3V51.79A7.46,7.46,0,0,0,54,44.34H43.59a7.42,7.42,0,0,1-5.78-2.76,7.5,7.5,0,0,1-1.5-6.31A7.42,7.42,0,0,1,42,29.6l-.6-2.92c-.22.05-.43.13-.65.19A6,6,0,0,1,46.58,22c.13,0,.25,0,.38,0A11.92,11.92,0,0,0,46.58,25h3a8.94,8.94,0,0,1,17.88,0h3a11.85,11.85,0,0,0-3.36-8.27,8.85,8.85,0,0,1,10.52,2.95,8.78,8.78,0,0,0-2.1,1.15l1.79,2.38a5.94,5.94,0,0,1,9.49,4.27,10.36,10.36,0,0,0-4.42-1v3a7.46,7.46,0,0,1,7.45,7.69A7.71,7.71,0,0,1,82,44.34H71.92a7.46,7.46,0,0,0-7.46,7.45v1.49h3V51.79a4.48,4.48,0,0,1,4.48-4.47H82c.25,0,.49,0,.74,0A25.77,25.77,0,0,1,86.82,61.26Z"/><path class="cls-4" d="M63,62.23a7.45,7.45,0,1,0,7.46,7.45A7.46,7.46,0,0,0,63,62.23Zm0,11.92a4.47,4.47,0,1,1,4.47-4.47A4.47,4.47,0,0,1,63,74.15Z"/><path class="cls-4" d="M67.36,40.7,78.43,39a4.45,4.45,0,1,0-.47-3L66.89,37.76a4.45,4.45,0,0,0-3.58-2.33l-2.26-8.29a4.47,4.47,0,1,0-7-3.67,4.42,4.42,0,0,0,.34,1.71L45.71,33a4.43,4.43,0,0,0-2.12-.56,4.5,4.5,0,1,0,4.13,2.76l8.66-7.79a4.34,4.34,0,0,0,1.79.53l2.26,8.29a4.47,4.47,0,1,0,6.93,4.5Zm15-5.3a1.49,1.49,0,1,1-1.49,1.49A1.49,1.49,0,0,1,82.35,35.4Zm-38.76,3a1.49,1.49,0,1,1,1.49-1.49A1.49,1.49,0,0,1,43.59,38.38ZM57,23.47A1.49,1.49,0,1,1,58.5,25,1.49,1.49,0,0,1,57,23.47Zm4.47,16.4A1.49,1.49,0,1,1,63,41.36,1.49,1.49,0,0,1,61.48,39.87Z"/></g></svg>