<svg xmlns="http://www.w3.org/2000/svg" xmlns:xlink="http://www.w3.org/1999/xlink" viewBox="0 0 261 252"><defs><style>.cls-1{fill:url(#linear-gradient);}.cls-2{fill:#00acc1;}.cls-3{fill:#039be5;}.cls-4{fill:url(#linear-gradient-2);}</style><linearGradient id="linear-gradient" x1="1.86" y1="194.01" x2="57.98" y2="194.01" gradientUnits="userSpaceOnUse"><stop offset="0" stop-color="#039be5"/><stop offset="1" stop-color="#039be5"/></linearGradient><linearGradient id="linear-gradient-2" x1="29.29" y1="130.37" x2="250.3" y2="9.82" xlink:href="#linear-gradient"/></defs><title>trading_icon</title><g id="trading_icon"><path class="cls-1" d="M54.51,137.43a6,6,0,0,0-6.12,1.12L29.92,155.62,11.45,138.55a6,6,0,0,0-7.94,0,5,5,0,0,0-1.65,3.68v103.6A5.41,5.41,0,0,0,7.47,251h44.9A5.41,5.41,0,0,0,58,245.82V142.22A5.19,5.19,0,0,0,54.51,137.43Z"/><path class="cls-2" d="M101.23,97.11a6,6,0,0,0-7.93,0L70.85,117.83a5,5,0,0,0-1.65,3.67V245.82A5.41,5.41,0,0,0,74.81,251h44.9a5.41,5.41,0,0,0,5.61-5.18V121.5a5,5,0,0,0-1.64-3.67Z"/><path class="cls-3" d="M168.57,76.39a6,6,0,0,0-7.93,0L138.19,97.11a5,5,0,0,0-1.65,3.67v145a5.41,5.41,0,0,0,5.61,5.18h44.9a5.41,5.41,0,0,0,5.61-5.18v-145A5,5,0,0,0,191,97.11Z"/><path class="cls-2" d="M258.36,66,247.14,55.67a5.9,5.9,0,0,0-4-1.51H231.94a5.86,5.86,0,0,0-4,1.51L205.52,76.39a5,5,0,0,0-1.64,3.67V245.82a5.41,5.41,0,0,0,5.61,5.18h44.9a5.41,5.41,0,0,0,5.61-5.18V69.7A5,5,0,0,0,258.36,66Z"/><path class="cls-4" d="M254.39,2.36H220.72a5.4,5.4,0,0,0-5.62,5.17,5,5,0,0,0,1.65,3.68l12.87,11.87-42.57,39.3L168.57,45.31a6,6,0,0,0-7.93,0L119.71,83.1,101.23,66a6,6,0,0,0-7.93,0L29.92,124.54,11.45,107.47a6,6,0,0,0-7.94.13,4.9,4.9,0,0,0,0,7.2L26,135.52a6,6,0,0,0,7.93,0L97.26,77l18.48,17.06a6,6,0,0,0,7.93,0L164.6,56.3l18.48,17.06a6,6,0,0,0,7.93,0l46.54-43,12.87,11.88a5.86,5.86,0,0,0,4,1.52,6,6,0,0,0,2.14-.39A5.19,5.19,0,0,0,260,38.62V7.54A5.41,5.41,0,0,0,254.39,2.36Z"/></g></svg>