<svg xmlns="http://www.w3.org/2000/svg" xmlns:xlink="http://www.w3.org/1999/xlink" viewBox="0 0 261 252"><defs><style>.cls-1{fill:url(#linear-gradient);}.cls-2{fill:#0083b0;}.cls-3{fill:#039be5;}.cls-4{fill:#2ecc71;}</style><linearGradient id="linear-gradient" x1="10.93" y1="188.38" x2="62.92" y2="188.38" gradientUnits="userSpaceOnUse"><stop offset="0" stop-color="#039be5"/><stop offset="1" stop-color="#039be5"/></linearGradient></defs><title>trading_icon</title><g id="trading_icon"><path class="cls-1" d="M59.71,136A5.54,5.54,0,0,0,54,137L36.92,152.81,19.81,137a5.51,5.51,0,0,0-7.35,0,4.63,4.63,0,0,0-1.53,3.41v96a5,5,0,0,0,5.2,4.8H57.72a5,5,0,0,0,5.2-4.8v-96A4.81,4.81,0,0,0,59.71,136Z"/><path class="cls-2" d="M103,98.61a5.52,5.52,0,0,0-7.35,0L74.84,117.8a4.7,4.7,0,0,0-1.53,3.4V236.37a5,5,0,0,0,5.2,4.8H120.1a5,5,0,0,0,5.2-4.8V121.2a4.63,4.63,0,0,0-1.52-3.4Z"/><path class="cls-3" d="M165.37,79.41a5.52,5.52,0,0,0-7.35,0l-20.79,19.2a4.61,4.61,0,0,0-1.53,3.4V236.37a5,5,0,0,0,5.2,4.8h41.59a5,5,0,0,0,5.19-4.8V102a4.59,4.59,0,0,0-1.51-3.4Z"/><path class="cls-2" d="M248.55,69.82l-10.4-9.6a5.42,5.42,0,0,0-3.68-1.4H224.08a5.46,5.46,0,0,0-3.69,1.4L199.6,79.41a4.67,4.67,0,0,0-1.52,3.4V236.37a5,5,0,0,0,5.2,4.8h41.59a5,5,0,0,0,5.2-4.8V73.21A4.63,4.63,0,0,0,248.55,69.82Z"/><path class="cls-4" d="M244.87,10.83H213.68a5,5,0,0,0-5.21,4.79A4.65,4.65,0,0,0,210,19l11.92,11-39.43,36.4L165.37,50.62a5.52,5.52,0,0,0-7.35,0l-37.92,35L103,69.82a5.49,5.49,0,0,0-7.35,0L36.92,124l-17.11-15.8a5.51,5.51,0,0,0-7.35.11,4.53,4.53,0,0,0,0,6.67l20.79,19.2a5.53,5.53,0,0,0,7.36,0L99.31,80l17.11,15.8a5.52,5.52,0,0,0,7.35,0l37.92-35,17.12,15.8a5.49,5.49,0,0,0,7.35,0l43.11-39.79,11.92,11a5.43,5.43,0,0,0,3.68,1.41,5.61,5.61,0,0,0,2-.36,4.83,4.83,0,0,0,3.21-4.44V15.63A5,5,0,0,0,244.87,10.83Z"/></g></svg>