<svg viewBox="0 0 117 117" xmlns="http://www.w3.org/2000/svg" xmlns:xlink="http://www.w3.org/1999/xlink">
<defs>
<style>.cls-1{fill:#e6e9ed;}.cls-2{fill:url(#a);}.cls-3{fill:#00acc1;}.cls-4{fill:#039be5;}.cls-5{fill:url(#b);}</style>
<linearGradient id="a" x1="18.69" x2="36" y1="79.27" y2="79.27" gradientUnits="userSpaceOnUse">
<stop stop-color="#039be5" offset="0"/>
<stop stop-color="#039be5" offset="1"/>
</linearGradient>
<linearGradient id="b" x1="27.15" x2="95.32" y1="59.64" y2="22.46" xlink:href="#a"/>
</defs>
<title>trading</title>
<circle class="cls-1" cx="58.5" cy="58.5" r="58.1" data-name="background"/>
<path class="cls-2" d="M34.93,61.82a1.83,1.83,0,0,0-1.89.34l-5.69,5.26-5.7-5.26a1.85,1.85,0,0,0-2.45,0,1.57,1.57,0,0,0-.51,1.13V95.24a1.67,1.67,0,0,0,1.73,1.6H34.27A1.66,1.66,0,0,0,36,95.24V63.29A1.59,1.59,0,0,0,34.93,61.82Z"/>
<path class="cls-3" d="M49.34,49.38a1.85,1.85,0,0,0-2.45,0L40,55.77a1.57,1.57,0,0,0-.51,1.13V95.24a1.67,1.67,0,0,0,1.73,1.6H55a1.67,1.67,0,0,0,1.73-1.6V56.9a1.53,1.53,0,0,0-.51-1.13Z"/>
<path class="cls-4" d="M70.11,43a1.85,1.85,0,0,0-2.45,0l-6.92,6.39a1.53,1.53,0,0,0-.51,1.13V95.24A1.67,1.67,0,0,0,62,96.84H75.81a1.67,1.67,0,0,0,1.73-1.6V50.51A1.53,1.53,0,0,0,77,49.38Z"/>
<path class="cls-3" d="M97.8,39.8l-3.46-3.2a1.83,1.83,0,0,0-1.23-.47H89.65a1.79,1.79,0,0,0-1.22.47L81.5,43a1.56,1.56,0,0,0-.5,1.13V95.24a1.66,1.66,0,0,0,1.73,1.6H96.58a1.67,1.67,0,0,0,1.73-1.6V40.93A1.51,1.51,0,0,0,97.8,39.8Z"/>
<path class="cls-5" d="M96.58,20.16H86.19a1.67,1.67,0,0,0-1.73,1.59A1.53,1.53,0,0,0,85,22.89l4,3.66L75.81,38.67l-5.7-5.27a1.85,1.85,0,0,0-2.45,0L55,45.06l-5.7-5.26a1.82,1.82,0,0,0-2.45,0l-19.54,18-5.7-5.26a1.82,1.82,0,0,0-2.45,0,1.5,1.5,0,0,0,0,2.21l6.92,6.4a1.85,1.85,0,0,0,2.45,0l19.55-18,5.69,5.25a1.82,1.82,0,0,0,2.45,0L68.88,36.79l5.7,5.26a1.82,1.82,0,0,0,2.45,0L91.38,28.81l4,3.66a1.83,1.83,0,0,0,1.23.47,1.88,1.88,0,0,0,.66-.12,1.62,1.62,0,0,0,1.07-1.48V21.76A1.67,1.67,0,0,0,96.58,20.16Z"/>
</svg>
