<svg xmlns="http://www.w3.org/2000/svg" viewBox="0 0 500 500"><defs><style>.cls-1{fill:#263238;}.cls-2{fill:#0083b0;}</style></defs><title>app_icon</title><g id="App"><path class="cls-1" d="M45,45V388.87H84.68v11.38l16.23,5.42L93.26,421l25.45,25.45L134,438.76l5.4,16.24h36l5.41-16.24,15.3,7.66L221.57,421l-7.65-15.3,16.24-5.42v-36l-16.23-5.42,7.65-15.3-25.45-25.44-15.31,7.65-5.41-16.24h-36L134,325.76l-15.31-7.66L93.27,343.55l7.65,15.3-16.24,5.41v11.39H58.23V111.13H441.77V326.79l-3-1a91.46,91.46,0,0,0-9.69-23.32l7.68-15.36-25.45-25.45-15.36,7.68a92.26,92.26,0,0,0-23.31-9.69l-5.42-16.25h-36l-5.43,16.25a92.05,92.05,0,0,0-23.31,9.69l-15.36-7.68L261.67,287.1l7.68,15.36a91.85,91.85,0,0,0-9.7,23.32l-16.26,5.42v36l16.26,5.42a91.1,91.1,0,0,0,9.69,23.32l-7.68,15.36,25.44,25.45,15.37-7.68a92.26,92.26,0,0,0,23.31,9.69L331.2,455h36l5.42-16.25a91.93,91.93,0,0,0,23.31-9.7l15.37,7.68,25.44-25.44L429,395.93a91.61,91.61,0,0,0,9.69-23.32L455,367.19V45ZM97.9,373.8l15.17-5.06,1.12-2.91c.33-.85.66-1.69,1-2.51l1.28-2.86-7.15-14.3,12-12,14.3,7.14,2.86-1.28c.82-.36,1.64-.69,2.48-1l3-1.11,5.06-15.2h16.92l5.07,15.2,2.94,1.11c.84.32,1.67.65,2.48,1l2.86,1.28,14.3-7.14,12,12-7.15,14.3,1.28,2.86c.37.83.69,1.66,1,2.51l1.11,2.91,15.17,5.06v16.92l-15.17,5.06-1.12,2.92c-.33.84-.66,1.69-1,2.51l-1.28,2.86,7.15,14.29-12,12-14.3-7.15-2.86,1.28c-.82.37-1.64.69-2.48,1l-2.95,1.12-5.06,15.18H149l-5.07-15.19L141,425.47c-.84-.32-1.67-.65-2.48-1l-2.87-1.28-14.29,7.15-12-12,7.15-14.3-1.28-2.86c-.37-.83-.69-1.66-1-2.51l-1.11-2.92L97.9,390.71Zm343.87-16.15-14.27,4.76-.8,3.68A78.45,78.45,0,0,1,415.93,392l-2,3.17,6.75,13.5-12,12-13.49-6.75-3.17,2a78.52,78.52,0,0,1-25.93,10.78l-3.68.8-4.76,14.27H340.73L336,427.5l-3.68-.8a78.5,78.5,0,0,1-25.93-10.77l-3.17-2-13.49,6.75-12-12,6.75-13.49-2-3.17a78.54,78.54,0,0,1-10.77-25.92l-.8-3.68-14.27-4.77V340.73L270.88,336l.8-3.68a78.68,78.68,0,0,1,10.78-25.92l2-3.17-6.75-13.5,12-12,13.49,6.75,3.17-2a78.52,78.52,0,0,1,25.93-10.78l3.67-.8,4.77-14.27h16.92l4.76,14.27,3.68.8A78.82,78.82,0,0,1,392,282.46l3.16,2,13.49-6.75,12,12-6.75,13.5,2,3.17a79,79,0,0,1,10.77,25.92l.8,3.68,14.26,4.77ZM58.23,97.9V58.23H441.77V97.9Z"/><path class="cls-2" d="M71.45,71.45H84.68V84.68H71.45Z"/><path class="cls-2" d="M97.9,71.45h13.23V84.68H97.9Z"/><path class="cls-2" d="M124.35,71.45h13.23V84.68H124.35Z"/><path class="cls-2" d="M157.42,415.32a33.07,33.07,0,1,0-33.07-33.06A33.1,33.1,0,0,0,157.42,415.32Zm0-52.9a19.84,19.84,0,1,1-19.84,19.84A19.86,19.86,0,0,1,157.42,362.42Z"/><path class="cls-2" d="M349.19,283.06a66.13,66.13,0,1,0,66.13,66.13A66.21,66.21,0,0,0,349.19,283.06Zm0,119a52.91,52.91,0,1,1,52.91-52.91A53,53,0,0,1,349.19,402.1Z"/><path class="cls-1" d="M349.19,322.74a26.46,26.46,0,1,0,26.46,26.45A26.49,26.49,0,0,0,349.19,322.74Zm0,39.68a13.23,13.23,0,1,1,13.23-13.23A13.24,13.24,0,0,1,349.19,362.42Z"/><path class="cls-2" d="M102,255.16l72.58-58.06L102,139l-8.27,10.33,59.67,47.74L93.77,244.84Z"/><path class="cls-2" d="M131,243.39H276.45v13.22H131Z"/><path class="cls-2" d="M283.06,124.35H428.55v13.23H283.06Z"/><path class="cls-2" d="M283.06,150.81H428.55V164H283.06Z"/><path class="cls-2" d="M283.06,177.26H428.55v13.22H283.06Z"/><path class="cls-2" d="M283.06,203.71H428.55v13.23H283.06Z"/></g></svg>