<svg xmlns="http://www.w3.org/2000/svg" viewBox="0 0 500 500"><defs><style>.cls-1{fill:#0083b0;}.cls-2{fill:#263238;}</style></defs><title>business_icon</title><g id="business"><path class="cls-1" d="M440,269c-5.7,0-9.5,3.8-9.5,9.5V402c0,5.7-3.8,9.5-9.5,9.5H79c-5.7,0-9.5-3.8-9.5-9.5V278.5c0-5.7-3.8-9.5-9.5-9.5s-9.5,3.8-9.5,9.5V402A28,28,0,0,0,79,430.5H421A28,28,0,0,0,449.5,402V278.5C449.5,272.8,445.7,269,440,269Z"/><path class="cls-2" d="M430.5,136H69.5A28,28,0,0,0,41,164.5v60.8a28.52,28.52,0,0,0,21.85,27.55L212,286.1v30.4c0,5.7,3.8,9.5,9.5,9.5h57c5.7,0,9.5-3.8,9.5-9.5V286.1l149.15-33.25A28.52,28.52,0,0,0,459,225.3V164.5A28,28,0,0,0,430.5,136ZM269,307H231V269h38Zm171-81.7a9.25,9.25,0,0,1-7.6,9.5L288,267.1v-7.6c0-5.7-3.8-9.5-9.5-9.5h-57c-5.7,0-9.5,3.8-9.5,9.5v7.6L67.6,234.8a9.25,9.25,0,0,1-7.6-9.5V164.5c0-5.7,3.8-9.5,9.5-9.5h361c5.7,0,9.5,3.8,9.5,9.5Z"/><path class="cls-1" d="M297.5,69.5h-95A28,28,0,0,0,174,98v9.5c0,5.7,3.8,9.5,9.5,9.5s9.5-3.8,9.5-9.5V98c0-5.7,3.8-9.5,9.5-9.5h95c5.7,0,9.5,3.8,9.5,9.5v9.5c0,5.7,3.8,9.5,9.5,9.5s9.5-3.8,9.5-9.5V98A28,28,0,0,0,297.5,69.5Z"/></g></svg>