<svg xmlns="http://www.w3.org/2000/svg" viewBox="0 0 200 139"><defs><style>.cls-1,.cls-2,.cls-3,.cls-4{fill:none;stroke-miterlimit:10;}.cls-1,.cls-2,.cls-4{stroke:#0083b0;}.cls-2{stroke-dasharray:4.86 4.86;}.cls-3{stroke:#00b4db;}.cls-4{stroke-width:0.75px;}.cls-5{fill:#0083b0;}.cls-6{fill:#263238;opacity:0.76;}</style></defs><title>breakouts</title><g id="reversals"><line class="cls-1" x1="7.5" y1="37.98" x2="10" y2="37.98"/><line class="cls-2" x1="14.86" y1="37.98" x2="187.57" y2="37.98"/><line class="cls-1" x1="190" y1="37.98" x2="192.5" y2="37.98"/><line class="cls-1" x1="8" y1="79.2" x2="10.5" y2="79.2"/><line class="cls-2" x1="15.36" y1="79.2" x2="188.07" y2="79.2"/><line class="cls-1" x1="190.5" y1="79.2" x2="193" y2="79.2"/><polyline class="cls-3" points="3 136 51.33 37.98 66.4 79.2 87.7 37.98 105.89 79.2 129.28 37.98 148.51 79.2 197.5 0.5"/><line class="cls-4" x1="170.5" y1="29.5" x2="184.75" y2="6.03"/><polygon class="cls-5" points="187.5 1.5 186.23 9.46 184.55 6.37 181.02 6.3 187.5 1.5"/></g><g id="breakouts"><ellipse class="cls-6" cx="51" cy="38.44" rx="5" ry="4.58"/><ellipse class="cls-6" cx="88" cy="38.44" rx="5" ry="4.58"/><ellipse class="cls-6" cx="130" cy="37.52" rx="5" ry="4.58"/><line class="cls-1" x1="163" y1="33.5" x2="192" y2="33.5"/></g></svg>