<svg xmlns="http://www.w3.org/2000/svg" viewBox="0 0 200 139"><defs><style>.cls-1{fill:#e6e9ed;}.cls-1,.cls-5,.cls-6{stroke:#0083b0;}.cls-1,.cls-4,.cls-5,.cls-6,.cls-7{stroke-miterlimit:10;}.cls-2{fill:#00b4db;}.cls-3{fill:#0083b0;}.cls-4,.cls-6{fill:none;}.cls-4,.cls-7{stroke:#00b4db;}.cls-5{fill:#00acc1;}.cls-7{fill:#039be5;}</style></defs><title>candlePatterns</title><g id="candlePatterns"><ellipse class="cls-1" cx="102.52" cy="34" rx="33.32" ry="33.5"/><rect class="cls-2" x="11" y="90.68" width="12.93" height="36.83"/><rect class="cls-2" x="26.91" y="67.07" width="12.93" height="24.55"/><rect class="cls-3" x="43.82" y="67.07" width="12.93" height="5.67"/><rect class="cls-2" x="60.73" y="49.13" width="12.93" height="24.55"/><rect class="cls-2" x="77.63" y="21.75" width="12.93" height="27.38"/><rect class="cls-3" x="95.53" y="21.75" width="12.93" height="2.83"/><rect class="cls-3" x="112.44" y="24.58" width="12.93" height="28.33"/><line class="cls-4" x1="16.81" y1="87.84" x2="16.81" y2="136"/><line class="cls-4" x1="33.38" y1="55.27" x2="33.38" y2="95.87"/><line class="cls-5" x1="50.28" y1="57.63" x2="50.28" y2="73.21"/><line class="cls-4" x1="67.19" y1="45.35" x2="67.19" y2="78.87"/><line class="cls-5" x1="102" y1="9" x2="102" y2="38.27"/><line class="cls-4" x1="84.1" y1="15.5" x2="84.1" y2="52.43"/><line class="cls-6" x1="118.9" y1="9" x2="118.9" y2="46.77"/><rect class="cls-3" x="128.35" y="52" width="12.93" height="29.23"/><line class="cls-6" x1="134.82" y1="46.77" x2="134.82" y2="91.15"/><rect class="cls-3" x="145.26" y="81.23" width="12.93" height="28.33"/><line class="cls-6" x1="151.72" y1="69.77" x2="151.72" y2="114.15"/><rect class="cls-2" x="162.16" y="100" width="12.93" height="9.23"/><rect class="cls-3" x="179.07" y="100" width="12.93" height="34"/><line class="cls-7" x1="168.18" y1="86.5" x2="168.18" y2="117.15"/><line class="cls-6" x1="185.6" y1="106.5" x2="185.6" y2="137.5"/></g></svg>