<svg xmlns="http://www.w3.org/2000/svg" viewBox="0 0 200 139"><defs><style>.cls-1,.cls-2,.cls-3,.cls-4,.cls-6{fill:none;stroke-miterlimit:10;}.cls-1,.cls-2,.cls-3,.cls-6{stroke:#0083b0;}.cls-2{stroke-dasharray:4.95 4.95;}.cls-3{stroke-dasharray:5.04 5.04;}.cls-4{stroke:#00b4db;}.cls-5{fill:#263238;opacity:0.76;}.cls-6{stroke-width:0.75px;}.cls-7{fill:#0083b0;}</style></defs><title>chartPatterns</title><g id="patterns"><line class="cls-1" x1="57.5" y1="30.5" x2="59.85" y2="31.34"/><line class="cls-2" x1="64.52" y1="33.01" x2="164.81" y2="68.83"/><line class="cls-1" x1="167.15" y1="69.66" x2="169.5" y2="70.5"/><line class="cls-1" x1="49" y1="90.5" x2="51.49" y2="90.27"/><line class="cls-3" x1="56.51" y1="89.81" x2="164.5" y2="79.96"/><line class="cls-1" x1="167.01" y1="79.73" x2="169.5" y2="79.5"/><polyline class="cls-4" points="5.5 137.5 65.76 35 82.2 86.25 105.89 48.8 120.91 83.02 142.17 63 150.93 80 196 0.5"/><ellipse class="cls-5" cx="65" cy="33.52" rx="5" ry="4.58"/><ellipse class="cls-5" cx="83" cy="86.52" rx="5" ry="4.58"/><ellipse class="cls-5" cx="106" cy="48.52" rx="5" ry="4.58"/><ellipse class="cls-5" cx="121" cy="84.52" rx="5" ry="4.58"/><ellipse class="cls-5" cx="142" cy="61.52" rx="5" ry="4.58"/><ellipse class="cls-5" cx="151" cy="81.52" rx="5" ry="4.58"/><line class="cls-1" x1="151" y1="57.5" x2="180" y2="57.5"/><line class="cls-6" x1="157.5" y1="53.5" x2="175.94" y2="20.13"/><polygon class="cls-7" points="178.5 15.5 177.56 23.51 175.75 20.48 172.22 20.56 178.5 15.5"/></g></svg>