<svg xmlns="http://www.w3.org/2000/svg" viewBox="0 0 200 139"><defs><style>.cls-1,.cls-4{fill:none;stroke-miterlimit:10;}.cls-1{stroke:#00b4db;}.cls-2{font-size:12px;font-family:MyriadPro-Regular, Myriad Pro;}.cls-2,.cls-5{fill:#0083b0;}.cls-3{fill:#263238;opacity:0.76;}.cls-4{stroke:#0083b0;stroke-width:0.75px;}</style></defs><title>elliottWave</title><g id="elliottWave"><polyline class="cls-1" points="7 136 40 90 57 108 113.5 32.5 148.5 56.5 184.5 9.5"/><text class="cls-2" transform="translate(36 85)">1</text><text class="cls-2" transform="translate(56 122)">2</text><text class="cls-2" transform="translate(110.5 27.5)">3</text><text class="cls-2" transform="translate(148 69.5)">4</text><text class="cls-2" transform="translate(190 10.5)">5</text><ellipse class="cls-3" cx="40.04" cy="91.52" rx="5.08" ry="4.58"/><ellipse class="cls-3" cx="56.04" cy="107.52" rx="5.08" ry="4.58"/><ellipse class="cls-3" cx="114.04" cy="34.52" rx="5.08" ry="4.58"/><ellipse class="cls-3" cx="148.04" cy="55.52" rx="5.08" ry="4.58"/><ellipse class="cls-3" cx="183.04" cy="10.52" rx="5.08" ry="4.58"/><line class="cls-4" x1="14.5" y1="135.5" x2="37.4" y2="103.79"/><polygon class="cls-5" points="40.5 99.5 38.6 107.33 37.17 104.11 33.66 103.76 40.5 99.5"/><line class="cls-4" x1="67.5" y1="105.5" x2="111.3" y2="47.72"/><polygon class="cls-5" points="114.5 43.5 112.42 51.29 111.06 48.03 107.56 47.6 114.5 43.5"/><line class="cls-4" x1="160.5" y1="53.5" x2="181.32" y2="25.74"/><polygon class="cls-5" points="184.5 21.5 182.46 29.3 181.09 26.05 177.58 25.64 184.5 21.5"/></g></svg>