<svg xmlns="http://www.w3.org/2000/svg" viewBox="0 0 200 139"><defs><style>.cls-1,.cls-2,.cls-3,.cls-4,.cls-5,.cls-7{fill:none;stroke-miterlimit:10;}.cls-1{stroke:#00b4db;}.cls-2,.cls-3,.cls-4,.cls-5,.cls-7{stroke:#0083b0;}.cls-3{stroke-dasharray:5.06 5.06;}.cls-4{stroke-dasharray:4.67 4.67;}.cls-5{stroke-dasharray:5.01 5.01;}.cls-6{fill:#263238;opacity:0.76;}.cls-7{stroke-dasharray:4.78 4.78;}.cls-8{font-size:12px;fill:#0083b0;font-family:MyriadPro-Regular, Myriad Pro;}</style></defs><title>fibonacci </title><g id="fibanacci"><polyline class="cls-1" points="8.04 136 39.55 90 50.41 109 114.51 33 135.16 69 196 0"/><line class="cls-2" x1="33.44" y1="32.5" x2="35.94" y2="32.5"/><line class="cls-3" x1="41" y1="32.5" x2="129.5" y2="32.5"/><line class="cls-2" x1="132.03" y1="32.5" x2="134.53" y2="32.5"/><line class="cls-2" x1="92.37" y1="69.5" x2="94.87" y2="69.5"/><line class="cls-3" x1="99.93" y1="69.5" x2="188.43" y2="69.5"/><line class="cls-2" x1="190.96" y1="69.5" x2="193.46" y2="69.5"/><line class="cls-2" x1="5.5" y1="134.5" x2="6.94" y2="132.46"/><line class="cls-4" x1="9.64" y1="128.65" x2="35.22" y2="92.45"/><line class="cls-2" x1="36.57" y1="90.54" x2="38.01" y2="88.5"/><line class="cls-2" x1="40.03" y1="87.24" x2="41.3" y2="89.39"/><line class="cls-5" x1="43.85" y1="93.71" x2="47.66" y2="100.19"/><line class="cls-2" x1="48.94" y1="102.35" x2="50.2" y2="104.5"/><ellipse class="cls-6" cx="39.54" cy="90.52" rx="5.08" ry="4.58"/><ellipse class="cls-6" cx="51.73" cy="107.52" rx="5.08" ry="4.58"/><ellipse class="cls-6" cx="113.7" cy="34.52" rx="5.08" ry="4.58"/><line class="cls-2" x1="52.24" y1="109.5" x2="53.85" y2="107.59"/><line class="cls-7" x1="56.95" y1="103.95" x2="111.05" y2="40.23"/><line class="cls-2" x1="112.59" y1="38.41" x2="114.21" y2="36.5"/><text class="cls-8" transform="translate(31.41 28.67) scale(1.02 1)">1.618</text><text class="cls-8" transform="translate(171.62 65.67) scale(1.02 1)">50%</text><ellipse class="cls-6" cx="135.04" cy="68.52" rx="5.08" ry="4.58"/></g></svg>