<svg xmlns="http://www.w3.org/2000/svg" viewBox="0 0 200 139"><defs><style>.cls-1,.cls-11,.cls-2,.cls-8,.cls-9{fill:none;}.cls-1{stroke:#00b4db;}.cls-1,.cls-2,.cls-8,.cls-9{stroke-miterlimit:10;}.cls-11,.cls-2{stroke:#0083b0;}.cls-3,.cls-4{font-size:10.47px;fill:#0083b0;font-family:MyriadPro-Regular, Myriad Pro;}.cls-4{letter-spacing:-0.03em;}.cls-5{letter-spacing:0em;}.cls-6{letter-spacing:0.01em;}.cls-7{letter-spacing:0em;}.cls-8,.cls-9{stroke:#263238;stroke-width:0.5px;}.cls-9{stroke-dasharray:4.79 4.79;}.cls-10{fill:#00b4db;opacity:0.64;}.cls-11{stroke-linecap:round;stroke-linejoin:round;stroke-width:4px;}</style></defs><title>timeSeries</title><g id="timeSeries"><polyline class="cls-1" points="6.5 122 42.24 66.2 63.16 89.6 96.28 45.5 105.86 59 116.32 50 134.63 73.4 159.91 30.2 170.37 45.5 200 0.5"/><rect class="cls-2" x="122.5" y="83.5" width="69" height="52" rx="9.17" ry="9.17"/><text class="cls-3" transform="translate(6 133.07)">Jan</text><text class="cls-4" transform="translate(35.21 133.07)">F<tspan class="cls-5" x="4.77" y="0">eb</tspan></text><text class="cls-3" transform="translate(64.57 133.07)"><tspan class="cls-6">M</tspan><tspan x="8.48" y="0">ar</tspan></text><text class="cls-3" transform="translate(95 133.07)"><tspan class="cls-7">A</tspan><tspan x="6.37" y="0">pr</tspan></text><line class="cls-8" x1="13.5" y1="25" x2="13.5" y2="27.5"/><line class="cls-9" x1="13.5" y1="32.29" x2="13.5" y2="116.11"/><line class="cls-8" x1="13.5" y1="118.5" x2="13.5" y2="121"/><line class="cls-8" x1="43.5" y1="25" x2="43.5" y2="27.5"/><line class="cls-9" x1="43.5" y1="32.29" x2="43.5" y2="116.11"/><line class="cls-8" x1="43.5" y1="118.5" x2="43.5" y2="121"/><line class="cls-8" x1="73.5" y1="25" x2="73.5" y2="27.5"/><line class="cls-9" x1="73.5" y1="32.29" x2="73.5" y2="116.11"/><line class="cls-8" x1="73.5" y1="118.5" x2="73.5" y2="121"/><line class="cls-8" x1="103.5" y1="25" x2="103.5" y2="27.5"/><line class="cls-9" x1="103.5" y1="32.29" x2="103.5" y2="116.11"/><line class="cls-8" x1="103.5" y1="118.5" x2="103.5" y2="121"/><line class="cls-2" x1="122.5" y1="93" x2="191.5" y2="93"/><rect class="cls-10" x="145.96" y="100" width="8.61" height="7.82"/><rect class="cls-10" x="158.68" y="100" width="8.61" height="7.82"/><rect class="cls-10" x="171.39" y="100" width="8.61" height="7.82"/><rect class="cls-10" x="133.25" y="111.17" width="8.61" height="7.82"/><rect class="cls-10" x="145.96" y="111.17" width="8.61" height="7.82"/><rect class="cls-10" x="158.68" y="111.17" width="8.61" height="7.82"/><rect class="cls-10" x="171.39" y="111.17" width="8.61" height="7.82"/><rect class="cls-10" x="133.25" y="122.17" width="8.61" height="7.82"/><rect class="cls-10" x="145.96" y="122.17" width="8.61" height="7.82"/><rect class="cls-10" x="158.68" y="122.17" width="8.61" height="7.82"/><rect class="cls-10" x="171.39" y="122.17" width="8.61" height="7.82"/><line class="cls-11" x1="138" y1="80" x2="138" y2="87"/><line class="cls-11" x1="174" y1="80" x2="174" y2="87"/></g></svg>